<?xml version="1.0" standalone="no"?>
<!DOCTYPE svg PUBLIC "-//W3C//DTD SVG 1.1//EN" "http://www.w3.org/Graphics/SVG/1.1/DTD/svg11.dtd" >
<svg xmlns="http://www.w3.org/2000/svg" xmlns:xlink="http://www.w3.org/1999/xlink" version="1.1">
<metadata>
Created by Christoph Koeberlin (http://christoph.koe.berlin)
Copyright (c) 2017 Swiss Typefaces Sarl. All rights reserved.
</metadata>
<defs>
<font id="Font" horiz-adv-x="0" >
  <font-face 
    font-family="Font"
    font-weight="250"
    font-stretch="normal"
    units-per-em="1000"
    panose-1="2 4 2 4 8 0 0 0 0 4"
    ascent="800"
    descent="-200"
    x-height="502"
    cap-height="758"
    bbox="-382 -403 1332 1029"
    underline-thickness="11"
    underline-position="-130"
    unicode-range="U+000D-FEFF"
  />
<missing-glyph horiz-adv-x="640" 
d="M70 758h500v-758h-500v758zM320 396l217 343h-434zM89 30l221 349l-221 349v-698zM551 30v698l-220 -349zM537 19l-217 343l-217 -343h434z" />
    <glyph glyph-name="f_f.liga" unicode="ff" horiz-adv-x="661" 
d="M38 6l50 2q32 2 32 16v467h-82v6q30 1 47 2t24.5 3.5t9 7t1.5 12.5q0 53 11.5 96.5t35.5 74.5t60.5 48t85.5 17h20v-11h-19q-99 0 -147 -76q-20 -32 -27.5 -73.5t-7.5 -95.5h198v-11h-198v-467q0 -14 32 -16l80 -2v-6h-206v6zM376 6l50 2q32 2 32 16v467h-82v6q30 1 47 2
t24.5 3.5t9 7t1.5 12.5q0 53 11.5 96.5t35.5 74.5t60.5 48t85.5 17h20v-11h-19q-99 0 -147 -76q-20 -32 -27.5 -73.5t-7.5 -95.5h196l-4 -11h-192v-467q0 -14 32 -16l80 -2v-6h-206v6z" />
    <glyph glyph-name="f_i.liga" unicode="fi" horiz-adv-x="589" 
d="M38 6l50 2q32 2 32 16v467h-82v6q30 1 47 2t24.5 3.5t9 7t1.5 12.5q0 53 11.5 96.5t35.5 74.5t60.5 48t85.5 17h20v-11h-19q-99 0 -147 -76q-20 -32 -27.5 -73.5t-7.5 -95.5h196l-4 -11h-192v-467q0 -14 32 -16l80 -2v-6h-206v6zM376 6l50 2q32 2 32 16v463l-82 9v6h94
v-478q0 -14 32 -16l50 -2v-6h-176v6zM445 739q0 8 5.5 13.5t13.5 5.5t13.5 -5.5t5.5 -13.5t-5.5 -13.5t-13.5 -5.5t-13.5 5.5t-5.5 13.5z" />
    <glyph glyph-name="f_f_i.liga" unicode="ffi" horiz-adv-x="923" 
d="M38 6l50 2q32 2 32 16v467h-82v6q30 1 47 2t24.5 3.5t9 7t1.5 12.5q0 53 11.5 96.5t35.5 74.5t60.5 48t85.5 17h20v-11h-19q-99 0 -147 -76q-20 -32 -27.5 -73.5t-7.5 -95.5h198v-11h-198v-467q0 -14 32 -16l80 -2v-6h-206v6zM376 6l50 2q32 2 32 16v467h-82v6q30 1 47 2
t24.5 3.5t9 7t1.5 12.5q0 53 11.5 96.5t35.5 74.5t60.5 48t85.5 17h20v-11h-19q-99 0 -147 -76q-20 -32 -27.5 -73.5t-7.5 -95.5h196l-4 -11h-192v-467q0 -14 32 -16l80 -2v-6h-206v6zM714 6l50 2q32 2 32 16v463l-82 9v6h94v-478q0 -14 32 -16l50 -2v-6h-176v6zM783 739
q0 8 5.5 13.5t13.5 5.5t13.5 -5.5t5.5 -13.5t-5.5 -13.5t-13.5 -5.5t-13.5 5.5t-5.5 13.5z" />
    <glyph glyph-name="f_l.liga" unicode="fl" horiz-adv-x="602" 
d="M38 6l50 2q32 2 32 16v467h-82v6q30 1 47 2t24.5 3.5t9 7t1.5 12.5q0 53 11.5 96.5t35.5 74.5t60.5 48t85.5 17h20v-11h-19q-99 0 -147 -76q-20 -32 -27.5 -73.5t-7.5 -95.5h196l-4 -11h-192v-467q0 -14 32 -16l80 -2v-6h-206v6zM389 6l50 2q32 2 32 16v719l-82 9v6h94
v-734q0 -14 32 -16l50 -2v-6h-176v6z" />
    <glyph glyph-name="f_f_l.liga" unicode="ffl" horiz-adv-x="936" 
d="M38 6l50 2q32 2 32 16v467h-82v6q30 1 47 2t24.5 3.5t9 7t1.5 12.5q0 53 11.5 96.5t35.5 74.5t60.5 48t85.5 17h20v-11h-19q-99 0 -147 -76q-20 -32 -27.5 -73.5t-7.5 -95.5h198v-11h-198v-467q0 -14 32 -16l80 -2v-6h-206v6zM376 6l50 2q32 2 32 16v467h-82v6q30 1 47 2
t24.5 3.5t9 7t1.5 12.5q0 53 11.5 96.5t35.5 74.5t60.5 48t85.5 17h20v-11h-19q-99 0 -147 -76q-20 -32 -27.5 -73.5t-7.5 -95.5h196l-4 -11h-192v-467q0 -14 32 -16l80 -2v-6h-206v6zM727 6l50 2q32 2 32 16v719l-82 9v6h94v-734q0 -14 32 -16l50 -2v-6h-176v6z" />
    <glyph glyph-name=".notdef" horiz-adv-x="640" 
d="M70 758h500v-758h-500v758zM320 396l217 343h-434zM89 30l221 349l-221 349v-698zM551 30v698l-220 -349zM537 19l-217 343l-217 -343h434z" />
    <glyph glyph-name="glyph1" 
 />
    <glyph glyph-name="uni000D" unicode="&#xd;" horiz-adv-x="294" 
 />
    <glyph glyph-name="space" unicode=" " horiz-adv-x="294" 
 />
    <glyph glyph-name="exclam" unicode="!" horiz-adv-x="268" 
d="M130 182q0 117 -1 204t-1.5 154.5t-1 121t-0.5 102.5q0 3 8 3t8 -3q0 -49 -0.5 -102.5t-1 -121t-1.5 -154.5t-1 -204h-8zM134 -10q-8 0 -13.5 5.5t-5.5 13.5t5.5 14t13.5 6q9 0 14.5 -6t5.5 -14t-5.5 -13.5t-14.5 -5.5z" />
    <glyph glyph-name="quotedbl" unicode="&#x22;" horiz-adv-x="390" 
d="M83 766q4 2 8 2q3 0 7 -2l-5 -294h-6zM293 766q4 2 8 2q3 0 7 -2l-5 -294h-6z" />
    <glyph glyph-name="numbersign" unicode="#" horiz-adv-x="912" 
d="M233 220h-197l5 11h197l124 306h-197l4 11h197l93 228h12l-93 -228h289l93 228h12l-93 -228h197l-5 -11h-196l-124 -306h196l-5 -11h-196l-89 -220h-12l89 220h-289l-89 -220h-12zM539 231l124 306h-289l-124 -306h289z" />
    <glyph glyph-name="dollar" unicode="$" horiz-adv-x="590" 
d="M284 -10q-64 0 -109 16.5t-73.5 39t-41.5 45t-13 33.5q0 7 4.5 10t10.5 2q6 -29 24 -53.5t46 -43t66 -29t86 -10.5h6v394l-41 13q-86 26 -134.5 71t-48.5 122q0 36 18 66.5t48.5 53t71.5 35.5t86 13v120h12v-120q61 -2 104.5 -19t70.5 -39t39.5 -43.5t12.5 -32.5
q0 -7 -4.5 -10t-10.5 -2q-6 28 -23 52t-44 42.5t-63.5 29.5t-81.5 12v-353l4 -1q50 -15 92.5 -34t74 -44.5t49 -59.5t17.5 -81q0 -38 -15 -72.5t-44.5 -61t-74 -43t-103.5 -18.5v-134h-12v134h-6zM525 182q0 46 -17.5 79.5t-48 57.5t-71 41t-86.5 31v-391q53 2 94.5 17
t70 39t43.5 56.5t15 69.5zM290 409v349q-42 0 -80.5 -12.5t-67.5 -33.5t-46 -49.5t-17 -62.5q0 -71 46 -113t129 -67z" />
    <glyph glyph-name="percent" unicode="%" horiz-adv-x="924" 
d="M738 758h14l-566 -758h-14zM51 550q0 46 10.5 86t29.5 69t46 46t60 17q34 0 61 -17t46 -46t29.5 -69t10.5 -86q0 -47 -10.5 -87t-29.5 -69t-46 -46t-61 -17q-33 0 -60 17t-46 46t-29.5 69t-10.5 87zM65 550q0 -102 37.5 -156t94.5 -54q28 0 52.5 14t42.5 40.5t28 65.5
t10 90q0 50 -10 89t-28 65.5t-42.5 40.5t-52.5 14q-57 0 -94.5 -54t-37.5 -155zM581 209q0 46 10.5 86t29.5 69t46 46t60 17q34 0 61 -17t46 -46t29.5 -69t10.5 -86q0 -47 -10.5 -87t-29.5 -69t-46 -46t-61 -17q-33 0 -60 17t-46 46t-29.5 69t-10.5 87zM595 209
q0 -102 37.5 -156t94.5 -54q28 0 52.5 14t42.5 40.5t28 65.5t10 90q0 50 -10 89t-28 65.5t-42.5 40.5t-52.5 14q-57 0 -94.5 -54t-37.5 -155z" />
    <glyph glyph-name="ampersand" unicode="&#x26;" horiz-adv-x="877" 
d="M296 -10q-49 0 -90 17.5t-70.5 47t-46 67.5t-16.5 79q0 88 63.5 145t178.5 88l-4 3q-25 21 -48 43.5t-40 46t-27.5 49t-10.5 52.5q0 31 14 57t37.5 44.5t55.5 28.5t68 10q32 0 63 -8t55.5 -25t39.5 -43t15 -61q0 -69 -54.5 -118t-148.5 -77q66 -55 129 -112.5t126 -117.5
l155 272q8 14 -32 16l-50 2v6h176v-6l-50 -2q-16 -1 -22 -5t-10 -11l-159 -279q82 -80 164 -161q18 -17 25 -22.5t19 -6.5l56 -3v-6h-78q-95 96 -192 189q-57 -98 -126 -148.5t-165 -50.5zM88 206q0 -46 17.5 -84t47 -65t67 -42t77.5 -15q50 0 91 15t75.5 41t63 62t52.5 78
q-64 61 -129 120t-133 116q-107 -33 -168 -88t-61 -138zM328 438q92 32 141.5 77t49.5 116q0 31 -13 55t-34.5 40t-50.5 24t-61 8q-34 0 -63.5 -9.5t-51.5 -26.5t-34.5 -41t-12.5 -53q0 -26 10 -50t27 -47t40 -45.5t49 -44.5z" />
    <glyph glyph-name="quotesingle" unicode="'" horiz-adv-x="180" 
d="M83 766q4 2 8 2q3 0 7 -2l-5 -294h-6z" />
    <glyph glyph-name="parenleft" unicode="(" horiz-adv-x="297" 
d="M265 -226q-53 50 -92 109t-64.5 124.5t-38 135.5t-12.5 142q0 145 50 277.5t157 233.5l7 -7q-106 -103 -152.5 -233t-46.5 -271t46.5 -271t152.5 -233z" />
    <glyph glyph-name="parenright" unicode=")" horiz-adv-x="297" 
d="M32 796q53 -50 92 -109t64.5 -124.5t38 -135.5t12.5 -142q0 -145 -50 -277.5t-157 -233.5l-7 7q106 103 152.5 233t46.5 271t-46.5 271t-152.5 233z" />
    <glyph glyph-name="asterisk" unicode="*" horiz-adv-x="441" 
d="M117 481l93 133l-153 52l2 7l155 -48l3 162h7l3 -162l155 48l2 -7l-153 -52l93 -133l-6 -4l-98 129l-97 -129z" />
    <glyph glyph-name="plus" unicode="+" horiz-adv-x="653" 
d="M320 254h-252v11h252v250h12v-250h252v-11h-252v-254h-12v254z" />
    <glyph glyph-name="comma" unicode="," horiz-adv-x="159" 
d="M-4 -193q50 51 69 91.5t19 66.5q0 29 -21 44q0 8 5.5 14t13.5 6q20 0 20 -31q0 -15 -3 -35.5t-13.5 -45.5t-30 -54.5t-52.5 -62.5z" />
    <glyph glyph-name="hyphen" unicode="-" horiz-adv-x="454" 
d="M80 265h294v-11h-294v11z" />
    <glyph glyph-name="period" unicode="." horiz-adv-x="179" 
d="M89 -10q-8 0 -13.5 5.5t-5.5 13.5t5.5 14t13.5 6q9 0 14.5 -6t5.5 -14t-5.5 -13.5t-14.5 -5.5z" />
    <glyph glyph-name="slash" unicode="/" horiz-adv-x="509" 
d="M464 776h13l-433 -828h-13z" />
    <glyph glyph-name="zero" unicode="0" horiz-adv-x="662" 
d="M67 379q0 85 18.5 156.5t53 123.5t83.5 80.5t109 28.5t108.5 -28.5t83 -80.5t53.5 -123.5t19 -156.5q0 -86 -19 -157t-53.5 -123t-83 -80.5t-108.5 -28.5t-109 28.5t-83.5 80.5t-53 123t-18.5 157zM82 379q0 -93 20 -164t54 -119t79 -72t96 -24t96 24t79 72t54 119
t20 164t-20 164t-54 119t-79 72t-96 24t-96 -24t-79 -72t-54 -119t-20 -164z" />
    <glyph glyph-name="one" unicode="1" horiz-adv-x="366" 
d="M213 751l-185 -80v11l197 85v-743q0 -14 32 -16l50 -2v-6h-206v6l80 2q32 2 32 16v727z" />
    <glyph glyph-name="two" unicode="2" horiz-adv-x="596" 
d="M35 4q101 97 182 177t138 149.5t87.5 132.5t30.5 126q0 45 -14 77t-37.5 52.5t-55 29.5t-67.5 9q-41 0 -77 -13.5t-63 -40t-42 -64.5t-14 -86h-6q-2 48 12 87.5t41 68t65.5 44t85.5 15.5t82 -13.5t58.5 -37t35 -56t11.5 -71.5q0 -55 -22.5 -109.5t-69 -116.5t-118.5 -136
t-172 -168l-52 -49h412q10 0 15 2.5t8 10.5l55 139h9l-57 -163h-461v4z" />
    <glyph glyph-name="three" unicode="3" horiz-adv-x="575" 
d="M260 -10q-56 0 -96.5 16.5t-67.5 39t-40 45t-13 33.5q0 7 4.5 10t10.5 2q6 -29 23.5 -53.5t43.5 -43t60.5 -29t74.5 -10.5q45 0 88.5 15t77.5 45t55 74.5t21 103.5q0 48 -18 86t-46.5 63.5t-62.5 39t-67 13.5q-22 0 -45.5 -8.5t-40.5 -15.5l-3 9l22 8q44 16 80.5 36.5
t62.5 45t40.5 53.5t14.5 63q0 60 -42 93t-115 33q-35 0 -67.5 -10t-59 -29.5t-44.5 -49.5t-22 -69h-6q4 41 21.5 72.5t45 53t62 32.5t72.5 11q43 0 75 -11.5t53 -30t31.5 -43t10.5 -50.5q0 -36 -14.5 -64.5t-35.5 -50t-45.5 -37.5t-43.5 -26v-1q34 -2 70 -16.5t64.5 -41.5
t47 -66.5t18.5 -91.5q0 -58 -21 -104t-56.5 -78t-81.5 -49t-96 -17z" />
    <glyph glyph-name="four" unicode="4" horiz-adv-x="673" 
d="M471 221h-457l462 541h7v-530h162v-11h-162v-221h-12v221zM471 232v507l-432 -507h432z" />
    <glyph glyph-name="five" unicode="5" horiz-adv-x="573" 
d="M248 -10q-53 0 -93 16.5t-67 39t-41 45t-14 33.5q0 7 4.5 10t10.5 2q6 -29 24 -53.5t45 -43t60.5 -29t71.5 -10.5q53 0 97.5 16t76.5 46t50 72.5t18 95.5q0 48 -20 92.5t-64 80.5t-115.5 61.5t-173.5 36.5l68 257h339l-3 -11h-327l-63 -235q101 -11 172 -37t115.5 -63.5
t64.5 -83.5t20 -98q0 -54 -19 -98.5t-53 -76t-81 -48.5t-103 -17z" />
    <glyph glyph-name="six" unicode="6" horiz-adv-x="598" 
d="M542 228q0 -53 -18.5 -96.5t-50.5 -75t-75.5 -49t-94.5 -17.5q-61 0 -106.5 22t-75.5 59.5t-45 87t-15 103.5q0 88 33 167.5t95 146.5t149.5 119.5t197.5 87.5l2 -5q-90 -31 -166.5 -73.5t-134.5 -95.5t-97 -116.5t-54 -136.5q19 25 45 44.5t56 32t61.5 19t60.5 6.5
q48 0 90.5 -16.5t74 -46.5t50 -72.5t18.5 -94.5zM76 262q0 -58 15.5 -106.5t45 -83t71.5 -53.5t95 -19q46 0 87 16.5t71.5 46.5t48 71t17.5 90q0 48 -16.5 89t-46 71t-69.5 47t-87 17q-31 0 -63.5 -7t-62.5 -20.5t-55.5 -32t-42.5 -42.5q-8 -43 -8 -84z" />
    <glyph glyph-name="seven" unicode="7" horiz-adv-x="583" 
d="M572 758l-307 -524q-22 -38 -37 -63.5t-27.5 -48.5t-26 -48.5t-32.5 -62.5q-5 -9 -9 -13.5t-12 -6.5l-5 -1q-5 -1 -5 2t1.5 7.5t4.5 10t5 8.5q55 91 107 179.5t105 178t108 181.5t115 190h-440q-10 0 -15 -2.5t-8 -10.5l-57 -139h-7l57 163h485z" />
    <glyph glyph-name="eight" unicode="8" horiz-adv-x="592" 
d="M296 -10q-48 0 -90.5 13.5t-75 39t-51.5 61.5t-19 82q0 81 59 139t166 89q-41 21 -73.5 43t-56 46.5t-36 52.5t-12.5 61q0 37 16 65.5t43 47.5t61.5 28.5t71.5 9.5q31 0 64.5 -8.5t60.5 -27t44.5 -47t17.5 -68.5q0 -41 -16.5 -73.5t-42 -57.5t-57.5 -42.5t-62 -27.5
l25 -13q42 -21 78.5 -44t63.5 -49.5t42.5 -57.5t15.5 -69q0 -39 -15 -74.5t-45 -61.5t-74.5 -41.5t-102.5 -15.5zM303 418q32 12 62.5 29.5t54.5 42t38.5 56t14.5 71.5q0 39 -16.5 66t-42 43.5t-57 24t-60.5 7.5q-34 0 -66 -8.5t-56.5 -26t-39.5 -44t-15 -61.5
q0 -64 47.5 -110t133.5 -89zM73 187q0 -47 19 -82t50.5 -58.5t71.5 -35t82 -11.5q51 0 92.5 13t70.5 37t45 58t16 75q0 35 -14 64t-39.5 54t-61 47t-78.5 44l-36 19q-42 -13 -81 -32.5t-69.5 -47t-49 -63t-18.5 -81.5z" />
    <glyph glyph-name="nine" unicode="9" horiz-adv-x="600" 
d="M57.9961 529.968q0 52.9971 18.499 96.4941t50.4971 74.9951t75.4951 48.9971q43.498 17.499 94.4941 17.499q60.9971 0 106.494 -21.999q45.4971 -21.998 75.4951 -59.4961t44.9971 -86.9941q14.999 -49.4971 14.999 -103.494q0 -87.9951 -32.998 -167.49
t-94.9941 -146.49q-61.9961 -66.9961 -149.49 -119.493q-87.4951 -52.4971 -197.488 -87.4941l-2 4.99902q89.9941 30.998 166.49 73.4961q76.4951 42.4971 134.491 95.4941q57.9971 52.9961 96.9941 116.492q38.998 63.4961 53.9971 136.492
q-18.999 -24.999 -44.9971 -44.4971q-25.999 -19.499 -55.9971 -31.998q-29.998 -12.5 -61.4961 -18.999q-31.498 -6.5 -60.4961 -6.5q-47.9971 0 -90.4951 16.499q-42.4971 16.499 -73.9951 46.4971t-49.9971 72.4961q-18.499 42.4971 -18.499 94.4941zM523.968 495.97
q0 57.9961 -15.499 106.493t-44.9971 82.9951t-71.4951 53.4971q-41.998 18.999 -94.9951 18.999q-45.9971 0 -86.9941 -16.499q-40.998 -16.499 -71.4961 -46.4971q-30.498 -29.999 -47.9971 -70.9961t-17.499 -89.9941q0 -47.9971 16.499 -88.9951
q16.499 -40.9971 45.998 -70.9951q29.498 -29.999 69.4951 -46.9971q39.998 -16.999 86.9951 -16.999q30.998 0 63.4961 6.99902q32.498 7 62.4961 20.499t55.4961 31.998q25.499 18.499 42.498 42.4971q7.99902 42.998 7.99902 83.9951z" />
    <glyph glyph-name="colon" unicode=":" horiz-adv-x="199" 
d="M99 -10q-8 0 -13.5 5.5t-5.5 13.5t5.5 14t13.5 6q9 0 14.5 -6t5.5 -14t-5.5 -13.5t-14.5 -5.5zM99 473q-8 0 -13.5 5.5t-5.5 13.5t5.5 14t13.5 6q9 0 14.5 -6t5.5 -14t-5.5 -13.5t-14.5 -5.5z" />
    <glyph glyph-name="semicolon" unicode=";" horiz-adv-x="305" 
d="M82 -193q50 51 69 91.5t19 66.5q0 29 -21 44q0 8 5.5 14t13.5 6q20 0 20 -31q0 -15 -3 -35.5t-13.5 -45.5t-30 -54.5t-52.5 -62.5zM168 473q-8 0 -13.5 5.5t-5.5 13.5t5.5 14t13.5 6q9 0 14.5 -6t5.5 -14t-5.5 -13.5t-14.5 -5.5z" />
    <glyph glyph-name="less" unicode="&#x3c;" horiz-adv-x="653" 
d="M67 265l494 228v-13l-479 -220l479 -222v-13l-494 229v11z" />
    <glyph glyph-name="equal" unicode="=" horiz-adv-x="653" 
d="M79 385h495v-11h-495v11zM79 145h495v-11h-495v11z" />
    <glyph glyph-name="greater" unicode="&#x3e;" horiz-adv-x="653" 
d="M586 254l-494 -229v13l479 222l-479 220v13l494 -228v-11z" />
    <glyph glyph-name="question" unicode="?" horiz-adv-x="552" 
d="M264 758q-42 0 -78 -9t-63.5 -26t-46 -40.5t-24.5 -51.5q-6 -1 -10.5 2t-4.5 10q0 11 14 32t42.5 41.5t71 36t99.5 15.5q58 0 103.5 -16.5t76 -44.5t46.5 -63.5t16 -73.5q0 -42 -14.5 -72t-38.5 -51t-54.5 -33.5t-63.5 -19.5l-71 -15q-13 -3 -21.5 -5t-13.5 -7
t-7.5 -14.5t-2.5 -27.5l-3 -143h-9v142q0 19 2.5 31t8.5 18.5t16 10t25 6.5l71 15q33 7 62.5 19t51.5 31.5t34.5 47.5t12.5 67q0 37 -14.5 71t-43.5 60t-71.5 41.5t-97.5 15.5zM212 -10q-8 0 -13.5 5.5t-5.5 13.5t5.5 14t13.5 6q9 0 14.5 -6t5.5 -14t-5.5 -13.5t-14.5 -5.5z
" />
    <glyph glyph-name="at" unicode="@" horiz-adv-x="945" 
d="M595 171q-24 0 -37.5 6t-13.5 23q0 8 4.5 22t12.5 34l34 88h-2q-24 -40 -54 -72t-63 -54.5t-67 -34.5t-66 -12q-46 0 -75.5 25t-29.5 78q0 44 16.5 86.5t44 81t65 71t79 56.5t85 37.5t84.5 13.5q50 0 95 -25l-135 -340q-10 -24 -13.5 -35.5t-3.5 -19.5t6.5 -13.5
t35.5 -5.5q51 0 103.5 18.5t95 56t69.5 95.5t27 138q0 69 -27.5 119.5t-73 84t-104.5 49.5t-122 16q-98 0 -187.5 -37.5t-157 -100.5t-107.5 -146t-40 -174q0 -69 24.5 -124.5t68 -94.5t102 -60t127.5 -21q48 0 86.5 5.5t68.5 13.5t53.5 18t43.5 19l3 -6q-18 -9 -42 -19.5
t-55.5 -19.5t-70.5 -15t-87 -6q-73 0 -134.5 21.5t-106.5 61.5t-70.5 97.5t-25.5 129.5q0 91 41 175.5t111 149.5t162 104t193 39q64 0 125 -17t108.5 -51.5t76.5 -87t29 -123.5q0 -75 -26 -134.5t-69.5 -100t-99 -62t-114.5 -21.5zM344 181q34 0 73.5 15.5t77.5 45t70.5 71
t53.5 93.5l73 185q-17 10 -37 14.5t-42 4.5q-40 0 -82.5 -13t-82.5 -36.5t-75.5 -55t-62 -69t-42 -78.5t-15.5 -83q0 -48 24.5 -71t66.5 -23z" />
    <glyph glyph-name="A" unicode="A" horiz-adv-x="756" 
d="M675 24q3 -8 9.5 -11.5t22.5 -4.5l60 -2v-6h-198v6l60 2q38 1 32 16l-118 303h-331l-117 -303q-3 -8 4 -11.5t28 -4.5l60 -2v-6h-198v6l60 2q16 1 22.5 4.5t9.5 11.5l291 749h11zM217 338h322l-162 414z" />
    <glyph glyph-name="B" unicode="B" horiz-adv-x="712" 
d="M67 6l60 2q32 2 32 16v710q0 14 -32 16l-60 2v6h252q56 0 107.5 -6.5t90.5 -26t62.5 -54t23.5 -90.5q0 -40 -15.5 -72t-41.5 -55.5t-61 -37t-74 -16.5v-1q48 -1 92 -11.5t77.5 -32.5t53.5 -57t20 -86q0 -46 -15.5 -84.5t-52 -67t-97 -44.5t-150.5 -16h-272v6zM364 404
q46 0 86.5 11t71 33.5t48.5 55.5t18 77q0 51 -20.5 83.5t-57 50.5t-87 25t-110.5 7h-141v-343h192zM333 11q82 0 140.5 13.5t95 39t53.5 63t17 85.5t-19 82t-54.5 56t-86.5 32.5t-115 10.5h-192v-382h161z" />
    <glyph glyph-name="C" unicode="C" horiz-adv-x="825" 
d="M475 -10q-87 0 -162.5 25.5t-131.5 75t-88.5 122t-32.5 166.5q0 93 32.5 165.5t89 122t133 75.5t164.5 26q70 0 135.5 -16t110.5 -54l44 -137h-7l-46 110q-7 16 -11 21.5t-13 13.5q-26 23 -84 37.5t-126 14.5q-81 0 -154.5 -23.5t-130 -71t-89.5 -119t-33 -166.5
q0 -93 31.5 -164t86.5 -118.5t128.5 -71.5t156.5 -24q34 0 66.5 4t61 11t51 16.5t35.5 20.5q9 8 13.5 13.5t11.5 21.5l53 119h7l-52 -146q-45 -38 -112.5 -54t-137.5 -16z" />
    <glyph glyph-name="D" unicode="D" horiz-adv-x="841" 
d="M67 6l60 2q32 2 32 16v710q0 14 -32 16l-60 2v6h244q90 0 174.5 -17.5t149.5 -60t104.5 -115t39.5 -183.5t-39.5 -184.5t-104.5 -117.5t-149.5 -62t-174.5 -18h-244v6zM311 11q96 0 179 20.5t143.5 64.5t95.5 114.5t35 171.5q0 100 -35 170t-95.5 113t-143.5 62.5
t-179 19.5h-139v-736h139z" />
    <glyph glyph-name="E" unicode="E" horiz-adv-x="702" 
d="M67 6l60 2q32 2 32 16v710q0 14 -32 16l-60 2v6h499l28 -147h-7l-33 124q-3 12 -16 12h-366v-343h227q20 0 24 2.5t5 13.5l6 97h7v-237h-7l-6 97q-1 11 -5 13.5t-24 2.5h-227v-382h420q10 0 14.5 2.5t8.5 10.5l58 129h7l-57 -153h-556v6z" />
    <glyph glyph-name="F" unicode="F" horiz-adv-x="674" 
d="M67 6l60 2q32 2 32 16v710q0 14 -32 16l-60 2v6h549l28 -147h-7l-33 124q-3 12 -16 12h-416v-343h225q20 0 24 2.5t5 13.5l6 97h7v-237h-7l-6 97q-1 11 -5 13.5t-24 2.5h-225v-369q0 -16 32 -16l110 -2v-6h-247v6z" />
    <glyph glyph-name="G" unicode="G" horiz-adv-x="889" 
d="M475 -10q-87 0 -162.5 25.5t-131.5 75t-88.5 122t-32.5 166.5q0 93 32.5 165.5t89 122t133 75.5t164.5 26q70 0 135.5 -16t110.5 -54l44 -137h-7l-46 110q-7 16 -11 21.5t-13 13.5q-26 23 -84 37.5t-126 14.5q-81 0 -154.5 -23.5t-130 -71t-89.5 -118.5t-33 -166
q0 -93 31.5 -164t86.5 -119t128.5 -72t156.5 -24q70 0 144.5 16.5t133.5 57.5v248q0 16 -32 16l-210 1v9h347v-8l-92 -2v-201l1 -68q-32 -23 -68 -38t-74.5 -24t-77.5 -13t-75 -4z" />
    <glyph glyph-name="H" unicode="H" horiz-adv-x="881" 
d="M67 6l60 2q32 2 32 16v710q0 14 -32 16l-60 2v6h197v-6l-60 -2q-32 -2 -32 -16v-330h537v330q0 14 -32 16l-60 2v6h197v-6l-60 -2q-32 -2 -32 -16v-710q0 -14 32 -16l60 -2v-6h-197v6l60 2q32 2 32 16v369h-537v-369q0 -14 32 -16l60 -2v-6h-197v6z" />
    <glyph glyph-name="I" unicode="I" horiz-adv-x="331" 
d="M67 6l60 2q32 2 32 16v710q0 14 -32 16l-60 2v6h197v-6l-60 -2q-32 -2 -32 -16v-710q0 -14 32 -16l60 -2v-6h-197v6z" />
    <glyph glyph-name="J" unicode="J" horiz-adv-x="310" 
d="M3 -126q46 38 75.5 63.5t46 49.5t22.5 50.5t6 67.5v629q0 14 -32 16l-60 2v6h197v-6l-60 -2q-32 -2 -32 -16v-619q0 -41 -3.5 -67t-15 -48t-33 -43.5t-57.5 -52.5q-11 -9 -23 -18.5t-25 -19.5z" />
    <glyph glyph-name="K" unicode="K" horiz-adv-x="741" 
d="M67 6l60 2q32 2 32 16v710q0 14 -32 16l-60 2v6h197v-6l-60 -2q-32 -2 -32 -16v-344l417 347q8 7 0.5 9t-36.5 4l-49 2v6h212v-6l-53 -2q-25 -1 -37 -4t-26 -14l-408 -340l537 -392h-21l-536 390v-366q0 -14 32 -16l60 -2v-6h-197v6z" />
    <glyph glyph-name="L" unicode="L" horiz-adv-x="664" 
d="M67 6l60 2q32 2 32 16v710q0 14 -32 16l-60 2v6h197v-6l-60 -2q-32 -2 -32 -16v-723h383q10 0 14.5 2.5t8.5 10.5l58 129h7l-57 -153h-519v6z" />
    <glyph glyph-name="M" unicode="M" horiz-adv-x="1017" 
d="M47 6l60 2q31 1 32 16l40 710q1 14 -32 16l-60 2v6h112l307 -582l312 582h112v-6l-60 -2q-33 -2 -32 -16l40 -710q1 -15 32 -16l60 -2v-6h-197v6l60 2q33 2 32 16l-40 720l-316 -587h-6l-311 588l-40 -721q-1 -14 32 -16l60 -2v-6h-197v6z" />
    <glyph glyph-name="N" unicode="N" horiz-adv-x="868" 
d="M67 6l60 2q32 2 32 16v640l-76 93v1h14l615 -745v721q0 14 -32 16l-60 2v6h197v-6l-60 -2q-32 -2 -32 -16v-756h-2l-551 671v-625q0 -14 32 -16l60 -2v-6h-197v6z" />
    <glyph glyph-name="O" unicode="O" horiz-adv-x="884" 
d="M442 -10q-86 0 -156.5 30.5t-120.5 83t-77.5 123.5t-27.5 152t27.5 152t77.5 123.5t120.5 83t156.5 30.5t156.5 -30.5t120.5 -83t77.5 -123.5t27.5 -152t-27.5 -152t-77.5 -123.5t-120.5 -83t-156.5 -30.5zM442 0q72 0 138 26t117 74.5t81.5 119t30.5 159.5t-30.5 159.5
t-81.5 119t-117 74.5t-138 26t-138 -26t-117 -74.5t-81.5 -119t-30.5 -159.5t30.5 -159.5t81.5 -119t117 -74.5t138 -26z" />
    <glyph glyph-name="P" unicode="P" horiz-adv-x="695" 
d="M67 6l60 2q32 2 32 16v710q0 14 -32 16l-60 2v6h296q57 0 110 -7t93.5 -28t65 -59.5t24.5 -101.5t-24.5 -101.5t-65 -59.5t-93.5 -28t-110 -7h-166v11h154q59 0 112 6.5t92.5 26.5t62.5 56.5t23 95.5t-23 95.5t-62.5 56.5t-92.5 26.5t-112 6.5h-179v-723q0 -16 32 -16
l110 -2v-6h-247v6z" />
    <glyph glyph-name="Q" unicode="Q" horiz-adv-x="884" 
d="M438 -10l-179 -73q31 8 58 9.5t28 1.5q60 0 99.5 -18.5t72 -40.5t64 -40.5t74.5 -18.5q25 0 48 6t43.5 21.5t38.5 41.5t33 65l10 -3q-29 -77 -72 -109t-101 -32q-31 0 -55.5 9t-45.5 22t-42 28.5t-45.5 28.5t-55.5 22t-73 9q-25 0 -47.5 -3t-36.5 -9q-14 -19 -33 -19
q-13 0 -13 10q0 8 24 18t89 36l97 39q-81 4 -147 36t-113 84t-72.5 121t-25.5 147q0 81 27.5 152t77.5 123.5t120.5 83t156.5 30.5t156.5 -30.5t120.5 -83t77.5 -123.5t27.5 -152t-27.5 -152t-77.5 -123.5t-120.5 -83t-156.5 -30.5h-4zM442 0q72 0 138 26t117 74.5t81.5 119
t30.5 159.5t-30.5 159.5t-81.5 119t-117 74.5t-138 26t-138 -26t-117 -74.5t-81.5 -119t-30.5 -159.5t30.5 -159.5t81.5 -119t117 -74.5t138 -26z" />
    <glyph glyph-name="R" unicode="R" horiz-adv-x="715" 
d="M67 6l60 2q32 2 32 16v710q0 14 -32 16l-60 2v6h242q57 0 110 -6t94.5 -26t66 -57.5t24.5 -100.5q0 -60 -23 -97t-61 -57.5t-86 -27.5t-97 -8l386 -378h-20l-385 378h-146v-354q0 -14 32 -16l60 -2v-6h-197v6zM301 389q58 0 110 5.5t91.5 24.5t63 54.5t23.5 94.5
t-23.5 94.5t-63 54t-91.5 24.5t-110 6h-129v-358h129z" />
    <glyph glyph-name="S" unicode="S" horiz-adv-x="625" 
d="M317 -10q-58 0 -113 12.5t-100 42.5l-44 153h7l46 -124q6 -16 10 -21.5t14 -11.5q19 -12 43 -20t48.5 -12.5t47.5 -6.5t41 -2q51 0 93 14t72 38.5t46.5 57.5t16.5 72q0 46 -17.5 79.5t-48 57.5t-71.5 41t-87 31l-52 16q-86 26 -134.5 71t-48.5 122q0 36 18 66.5t48.5 53
t71.5 35.5t87 13q57 0 104 -10t86 -36l43 -137h-7l-45 110q-7 16 -11 21.5t-13 10.5q-14 9 -33.5 15t-40.5 9.5t-42.5 5t-39.5 1.5q-43 0 -81.5 -12t-68 -33t-46.5 -50t-17 -63q0 -71 46 -113t129 -67l52 -16q50 -15 92.5 -34t74 -44.5t49 -59.5t17.5 -81q0 -39 -16 -74.5
t-47 -62.5t-76 -42.5t-103 -15.5z" />
    <glyph glyph-name="T" unicode="T" horiz-adv-x="713" 
d="M258 6l60 2q32 2 32 16v723h-276q-13 0 -16 -12l-33 -154h-7l28 177h621l28 -177h-7l-33 154q-3 12 -16 12h-276v-723q0 -14 32 -16l60 -2v-6h-197v6z" />
    <glyph glyph-name="U" unicode="U" horiz-adv-x="858" 
d="M429 -10q-293 0 -293 308v436q0 14 -32 16l-60 2v6h197v-6l-60 -2q-32 -2 -32 -16v-436q0 -67 15 -122t48.5 -94t86.5 -60.5t130 -21.5q76 0 129.5 21.5t87 60.5t48.5 94t15 122v436q0 14 -32 16l-60 2v6h197v-6l-60 -2q-32 -2 -32 -16v-436q0 -308 -293 -308z" />
    <glyph glyph-name="V" unicode="V" horiz-adv-x="777" 
d="M81 734q-3 8 -9.5 11.5t-22.5 4.5l-60 2v6h198v-6l-60 -2q-38 -1 -32 -16l294 -728l294 728q6 15 -32 16l-60 2v6h197v-6l-60 -2q-16 -1 -22.5 -4.5t-9.5 -11.5l-302 -749h-11z" />
    <glyph glyph-name="W" unicode="W" horiz-adv-x="1188" 
d="M81 734q-3 8 -9.5 11.5t-22.5 4.5l-60 2v6h198v-6l-60 -2q-38 -1 -32 -16l294 -728l208 520l-84 232h166v-6l-110 -2q-38 0 -32 -16l263 -728l294 728q6 15 -32 16l-60 2v6h197v-6l-60 -2q-16 -1 -22.5 -4.5t-9.5 -11.5l-302 -749h-11l-191 524l-210 -524h-10z" />
    <glyph glyph-name="X" unicode="X" horiz-adv-x="792" 
d="M-2 6l57 2q14 1 22 5t13 11l298 380l-258 330q-5 6 -13 10.5t-22 5.5l-57 2v6h200v-6l-60 -3q-20 -1 -28 -5.5t-3 -10.5l249 -318l250 318q5 7 -3 11t-28 5l-60 3v6h198v-6l-57 -2q-14 -1 -22 -5t-13 -11l-258 -329l299 -381q5 -6 13 -10.5t22 -5.5l57 -2v-6h-200v6l60 3
q20 1 28 5.5t3 10.5l-290 370l-290 -370q-5 -7 3 -11t28 -5l60 -3v-6h-198v6z" />
    <glyph glyph-name="Y" unicode="Y" horiz-adv-x="769" 
d="M287 6l60 2q32 2 32 16v319l-290 391q-5 7 -10.5 11t-21.5 5l-60 2v6h199v-6l-60 -2q-20 -1 -28.5 -5t-3.5 -11l282 -380l281 380q5 7 -3.5 11t-28.5 5l-60 2v6h198v-6l-60 -2q-16 -1 -21.5 -5t-10.5 -11l-289 -391v-319q0 -14 32 -16l60 -2v-6h-197v6z" />
    <glyph glyph-name="Z" unicode="Z" horiz-adv-x="718" 
d="M33 8l610 739h-500q-10 0 -14.5 -2.5t-8.5 -10.5l-58 -129h-7l57 153h549v-9l-609 -738h543q10 0 14.5 2.5t8.5 10.5l58 129h7l-57 -153h-593v8z" />
    <glyph glyph-name="bracketleft" unicode="[" horiz-adv-x="279" 
d="M125 793h93v-8l-50 -2q-31 -1 -31 -16v-952q0 -15 31 -16l50 -2v-8h-93v1004z" />
    <glyph glyph-name="backslash" unicode="\" horiz-adv-x="509" 
d="M465 -52l-433 828h13l433 -828h-13z" />
    <glyph glyph-name="bracketright" unicode="]" horiz-adv-x="279" 
d="M154 -211h-93v8l50 2q31 1 31 16v952q0 15 -31 16l-50 2v8h93v-1004z" />
    <glyph glyph-name="asciicircum" unicode="^" horiz-adv-x="653" 
d="M320 776h12l215 -415h-13l-208 400l-208 -400h-13z" />
    <glyph glyph-name="underscore" unicode="_" horiz-adv-x="625" 
d="M32 -25h561v-11h-561v11z" />
    <glyph glyph-name="grave" unicode="`" 
d="M51 579l-112 178v1h15l106 -179h-9z" />
    <glyph glyph-name="a" unicode="a" horiz-adv-x="532" 
d="M217 -10q-37 0 -67 11.5t-51.5 30t-33 43.5t-11.5 52q0 36 17.5 61t47 41.5t67.5 28t79 20.5q55 13 85.5 22.5t44.5 18.5t17 19.5t3 25.5q0 28 -8 53t-25.5 44t-46 30t-69.5 11q-42 0 -76 -13t-57.5 -35t-34.5 -51.5t-7 -61.5h-8q-5 0 -7 1t-2 8q0 35 17 68t49 56
q24 17 55.5 27.5t70.5 10.5q163 0 161 -159l-2 -342h81v-8l-93 -7v151q-9 -44 -28.5 -73.5t-45.5 -48.5t-57 -27t-65 -8zM219 0q36 0 71 11t62 35t43.5 62t17.5 92l2 118q-29 -17 -66 -28t-82 -22q-39 -9 -74.5 -19t-63 -26t-44 -39t-16.5 -57q0 -26 11 -49t30.5 -40
t47 -27.5t61.5 -10.5z" />
    <glyph glyph-name="b" unicode="b" horiz-adv-x="599" 
d="M294 512q57 0 103 -20.5t78.5 -55.5t50 -82.5t17.5 -102.5t-17.5 -102.5t-50 -83t-78.5 -55.5t-103 -20q-54 0 -103 24.5t-75 66.5l-5 -81h-7v743l-82 9v6h94v-336q26 42 75.5 66t102.5 24zM116 85q38 -48 86.5 -66.5t91.5 -18.5q54 0 97.5 20t73.5 54t46.5 79.5
t16.5 97.5t-16.5 97.5t-46.5 79.5t-73.5 54t-97.5 20q-43 0 -91.5 -18.5t-86.5 -66.5v-332z" />
    <glyph glyph-name="c" unicode="c" horiz-adv-x="570" 
d="M302 -10q-53 0 -98 18.5t-78 53t-51.5 83t-18.5 108.5q0 62 21.5 110.5t56 81.5t79 50t90.5 17q53 0 91.5 -14t63 -33.5t36.5 -39t12 -31.5q0 -11 -11 -11h-4q-13 55 -63 87t-126 32q-43 0 -84.5 -16.5t-74 -48.5t-52.5 -78t-20 -106q0 -54 16.5 -100.5t47 -80
t73.5 -52.5t96 -19q32 0 66.5 8t65 27t54 50t34.5 77h7q-11 -49 -35.5 -82t-56 -53.5t-67.5 -29t-70 -8.5z" />
    <glyph glyph-name="d" unicode="d" horiz-adv-x="608" 
d="M304 -10q-57 0 -103 20t-78.5 55.5t-50 83t-17.5 102.5t17.5 102.5t50 82.5t78.5 55.5t103 20.5q54 0 103 -24.5t75 -65.5v321l-92 9v6h104v-748h82v-6l-94 -9v85q-26 -42 -75.5 -66t-102.5 -24zM70 251q0 -52 16.5 -97.5t46.5 -79.5t73.5 -54t97.5 -20q43 0 91.5 18.5
t86.5 66.5v332q-38 48 -86.5 66.5t-91.5 18.5q-54 0 -97.5 -20t-73.5 -54t-46.5 -79.5t-16.5 -97.5z" />
    <glyph glyph-name="e" unicode="e" horiz-adv-x="580" 
d="M302 -10q-53 0 -98 18.5t-78 53t-51.5 83t-18.5 108.5q0 62 20.5 110.5t54.5 81.5t76.5 50t87.5 17q90 0 153 -54t78 -156h-451q-2 -11 -3 -23.5t-1 -25.5q0 -54 16.5 -100.5t47 -80t73.5 -52.5t96 -19q32 0 66.5 8t65 27t54 50t34.5 77h7q-11 -49 -35.5 -82t-56 -53.5
t-67.5 -29t-70 -8.5zM294 502q-36 0 -71.5 -12.5t-65 -36.5t-51 -59.5t-30.5 -81.5h432q-5 43 -22.5 78t-45.5 60t-65 38.5t-81 13.5z" />
    <glyph glyph-name="f" unicode="f" horiz-adv-x="339" 
d="M38 6l50 2q32 2 32 16v467h-82v6q30 1 47 2t24.5 3.5t9 7t1.5 12.5q0 53 11.5 96.5t35.5 74.5t60.5 48t85.5 17h20v-11h-19q-99 0 -147 -76q-20 -32 -27.5 -73.5t-7.5 -95.5h196l-4 -11h-192v-467q0 -14 32 -16l80 -2v-6h-206v6z" />
    <glyph glyph-name="g" unicode="g" horiz-adv-x="527" 
d="M249 156q-33 0 -64 11l-112 -117l224 -22q46 -5 85.5 -11t68.5 -18t45.5 -33t16.5 -55q0 -38 -23 -69t-61 -53.5t-87 -34.5t-101 -12q-45 0 -84 9t-67.5 26t-44.5 41t-16 55q0 33 19.5 60t49.5 47t66.5 31t71.5 11q-26 2 -53 5t-51 6.5t-43.5 7t-30.5 7.5l117 123
q-47 20 -77 62t-30 101q0 40 15 73t39.5 56t57.5 36t69 13t69 -13t57.5 -36t39.5 -56t15 -73t-15 -73t-39.5 -56t-57.5 -36t-69 -13zM346 502h171l-10 -10h-171zM249 166q35 0 65 12t52.5 34t35.5 53t13 69t-13 69t-35.5 53t-52.5 34t-65 12t-65 -12t-52.5 -34t-35.5 -53
t-13 -69t13 -69t35.5 -53t52.5 -34t65 -12zM242 -248q53 0 100 12.5t81.5 34t54.5 50t20 60.5q0 30 -15.5 49t-42.5 30.5t-64 17.5t-81 10q-53 5 -99 -5t-80 -30t-53 -48t-19 -59q0 -29 15 -52t41 -38.5t62.5 -23.5t79.5 -8z" />
    <glyph glyph-name="h" unicode="h" horiz-adv-x="599" 
d="M33 6l50 2q32 2 32 16v719l-82 9v6h94v-412q7 46 25.5 77.5t44 51t56 28.5t62.5 9q94 0 133.5 -53.5t39.5 -164.5v-270q0 -14 32 -16l50 -2v-6h-176v6l50 2q32 2 32 16v268q0 109 -39 159.5t-126 50.5q-39 0 -72.5 -14t-58.5 -40.5t-39 -65.5t-14 -90v-268q0 -14 32 -16
l50 -2v-6h-176v6z" />
    <glyph glyph-name="i" unicode="i" horiz-adv-x="255" 
d="M42 6l50 2q32 2 32 16v463l-82 9v6h94v-478q0 -14 32 -16l50 -2v-6h-176v6zM111 739q0 8 5.5 13.5t13.5 5.5t13.5 -5.5t5.5 -13.5t-5.5 -13.5t-13.5 -5.5t-13.5 5.5t-5.5 13.5z" />
    <glyph glyph-name="j" unicode="j" horiz-adv-x="231" 
d="M-2 -254q37 30 60 52t36 48.5t17 65t4 102.5v473l-82 9v6h94v-488q0 -53 -2.5 -88.5t-10.5 -60.5t-22.5 -43.5t-38.5 -38.5q-11 -10 -24 -20t-28 -21zM102 739q0 8 5.5 13.5t13.5 5.5t13.5 -5.5t5.5 -13.5t-5.5 -13.5t-13.5 -5.5t-13.5 5.5t-5.5 13.5z" />
    <glyph glyph-name="k" unicode="k" horiz-adv-x="523" 
d="M33 6l50 2q32 2 32 16v719l-82 9v6h94v-477l265 198q8 6 6 10.5t-28 5.5l-32 1v6h159v-6l-44 -2q-14 -1 -23 -3.5t-20 -10.5l-269 -201l370 -279h-20l-364 276v-252q0 -14 32 -16l50 -2v-6h-176v6z" />
    <glyph glyph-name="l" unicode="l" horiz-adv-x="250" 
d="M37 6l50 2q32 2 32 16v719l-82 9v6h94v-734q0 -14 32 -16l50 -2v-6h-176v6z" />
    <glyph glyph-name="m" unicode="m" horiz-adv-x="965" 
d="M214 0h-176v6l50 2q32 2 32 16v463l-82 9v6h94v-156q7 46 25.5 77.5t44 51t56 28.5t62.5 9q84 0 124 -43t47 -130q7 49 26 82t44.5 53t56.5 29t63 9q94 0 133.5 -53.5t39.5 -164.5v-270q0 -14 32 -16l50 -2v-6h-176v6l50 2q32 2 32 16v268q0 109 -39 159.5t-126 50.5
q-39 0 -72.5 -14t-58.5 -40.5t-39 -65.5t-14 -90v-268q0 -14 32 -16l50 -2v-6h-176v6l50 2q32 2 32 16v268q0 109 -39 159.5t-126 50.5q-39 0 -72.5 -14t-58.5 -40.5t-39 -65.5t-14 -90v-268q0 -14 32 -16l50 -2v-6z" />
    <glyph glyph-name="n" unicode="n" horiz-adv-x="604" 
d="M38 6l50 2q32 2 32 16v463l-82 9v6h94v-156q7 46 25.5 77.5t44 51t56 28.5t62.5 9q94 0 133.5 -53.5t39.5 -164.5v-270q0 -14 32 -16l50 -2v-6h-176v6l50 2q32 2 32 16v268q0 109 -39 159.5t-126 50.5q-39 0 -72.5 -14t-58.5 -40.5t-39 -65.5t-14 -90v-268q0 -14 32 -16
l50 -2v-6h-176v6z" />
    <glyph glyph-name="o" unicode="o" horiz-adv-x="614" 
d="M307 -10q-47 0 -92 17.5t-80.5 50.5t-57.5 81.5t-22 111.5t22 111.5t57.5 81.5t80.5 50.5t92 17.5q46 0 91.5 -17.5t81 -50.5t57.5 -81.5t22 -111.5t-22 -111.5t-57.5 -81.5t-81 -50.5t-91.5 -17.5zM307 0q42 0 84.5 16t76.5 47.5t55 78.5t21 109t-21 109t-55 78.5
t-76.5 47.5t-84.5 16t-84.5 -16t-76.5 -47.5t-55 -78.5t-21 -109t21 -109t55 -78.5t76.5 -47.5t84.5 -16z" />
    <glyph glyph-name="p" unicode="p" horiz-adv-x="610" 
d="M33 -242l50 2q32 2 32 16v711l-82 9v6h94v-80q26 42 75.5 66t102.5 24q57 0 103 -20.5t78.5 -55.5t50 -82.5t17.5 -102.5t-17.5 -102.5t-50 -83t-78.5 -55.5t-103 -20q-27 0 -53.5 6.5t-50 18t-42.5 28t-32 37.5v-304q0 -14 32 -16l70 -2v-6h-196v6zM127 85
q38 -48 86.5 -66.5t91.5 -18.5q54 0 97.5 20t73.5 54t46.5 79.5t16.5 97.5t-16.5 97.5t-46.5 79.5t-73.5 54t-97.5 20q-43 0 -91.5 -18.5t-86.5 -66.5v-332z" />
    <glyph glyph-name="q" unicode="q" horiz-adv-x="598" 
d="M304 -10q-57 0 -103 20t-78.5 55.5t-50 83t-17.5 102.5t17.5 102.5t50 82.5t78.5 55.5t103 20.5q54 0 103 -24.5t75 -66.5l5 81h7v-726q0 -14 32 -16l50 -2v-6h-196v6l70 2q32 2 32 16v304q-26 -42 -75.5 -66t-102.5 -24zM70 251q0 -52 16.5 -97.5t46.5 -79.5t73.5 -54
t97.5 -20q43 0 91.5 18.5t86.5 66.5v332q-38 48 -86.5 66.5t-91.5 18.5q-54 0 -97.5 -20t-73.5 -54t-46.5 -79.5t-16.5 -97.5z" />
    <glyph glyph-name="r" unicode="r" horiz-adv-x="364" 
d="M38 6l50 2q32 2 32 16v463l-82 9v6h94v-154q8 46 26.5 77t44.5 49t59 25.5t69 7.5h6v-13h-18q-51 0 -86.5 -16t-58 -43.5t-32.5 -64t-10 -78.5v-268q0 -8 9 -11.5t30 -4.5l73 -2v-6h-206v6z" />
    <glyph glyph-name="s" unicode="s" horiz-adv-x="472" 
d="M235 -10q-49 0 -91 11.5t-71 34.5l-12 137h7l18 -119q2 -14 18.5 -24.5t41.5 -18.5q41 -11 88 -11q34 0 64 8.5t52.5 24.5t36 39.5t13.5 53.5t-11 51.5t-30 36t-46 23t-58 14.5l-45 8q-66 12 -101.5 44t-35.5 87q0 24 11 46t32 39t51 27t69 10q38 0 73 -10.5t62 -33.5
l20 -127h-7l-25 109q-4 15 -18 25t-33 16t-38.5 8.5t-33.5 2.5q-71 0 -110.5 -33t-39.5 -80q0 -48 33 -77.5t93 -40.5l49 -9q73 -14 113 -44.5t40 -90.5q0 -32 -14 -57t-38 -43t-56.5 -27.5t-70.5 -9.5z" />
    <glyph glyph-name="t" unicode="t" horiz-adv-x="376" 
d="M239 -10q-17 0 -34 2.5t-30.5 10.5t-22 24t-8.5 43v421h-135v11h135v108l12 2v-110h216v-11h-216v-420q0 -24 7.5 -38.5t19.5 -21.5t27 -9t30 -2q31 0 62 8.5t58 22.5l3 -6q-26 -15 -61 -25t-63 -10z" />
    <glyph glyph-name="u" unicode="u" horiz-adv-x="597" 
d="M283 -10q-94 0 -133.5 53.5t-39.5 164.5v279l-82 9v6h94v-292q0 -109 39 -159.5t126 -50.5q39 0 72.5 14t58.5 40.5t39 65.5t14 90v277l-82 9v6h94v-492h82v-6l-94 -9v161q-8 -46 -26 -77.5t-43.5 -51t-56 -28.5t-62.5 -9z" />
    <glyph glyph-name="v" unicode="v" horiz-adv-x="571" 
d="M78 478q-3 8 -9.5 11.5t-22.5 4.5l-50 2v6h177v-6l-50 -2q-38 -1 -32 -16l195 -467l195 467q6 15 -32 16l-50 2v6h176v-6l-50 -2q-16 -1 -22.5 -4.5t-9.5 -11.5l-204 -488h-7z" />
    <glyph glyph-name="w" unicode="w" horiz-adv-x="865" 
d="M78 478q-3 8 -9.5 11.5t-22.5 4.5l-50 2v6h177v-6l-50 -2q-38 -1 -32 -16l195 -468l149 349l-54 143h127v-6l-72 -2q-38 -1 -32 -16l176 -467l195 467q6 15 -32 16l-50 2v6h176v-6l-50 -2q-16 -1 -22.5 -4.5t-9.5 -11.5l-204 -488h-7l-135 354l-152 -354h-7z" />
    <glyph glyph-name="x" unicode="x" horiz-adv-x="598" 
d="M13 6l47 2q28 1 37 13l195 238l-178 222q-9 12 -37 13l-47 2v6h179v-6l-50 -2q-38 -1 -29 -14l170 -212l174 212q10 13 -29 14l-50 2v6h178v-6l-47 -2q-28 -1 -37 -13l-182 -221l192 -239q9 -12 35 -13l47 -2v-6h-179v6l50 2q40 2 31 14l-184 228l-187 -228
q-10 -13 29 -14l50 -2v-6h-178v6z" />
    <glyph glyph-name="y" unicode="y" horiz-adv-x="572" 
d="M162 -250q-9 0 -9 9t9 24t26 31l88 196l-195 468q-3 8 -9.5 11.5t-22.5 4.5l-50 2v6h177v-6l-50 -2q-38 -1 -32 -16l189 -452l201 452q6 15 -32 16l-50 2v6h176v-6l-50 -2q-16 -1 -22.5 -4.5t-9.5 -11.5l-304 -683q-12 -28 -18 -36.5t-12 -8.5z" />
    <glyph glyph-name="z" unicode="z" horiz-adv-x="526" 
d="M448 492h-306q-10 0 -14.5 -2.5t-8.5 -10.5l-58 -139h-7l57 162h360l-411 -492h341q10 0 15 2.5t8 10.5l58 140h7l-57 -163h-396z" />
    <glyph glyph-name="braceleft" unicode="{" horiz-adv-x="294" 
d="M261 -234q-42 8 -75 23.5t-53.5 41.5t-27 64t4.5 91l24 115q16 76 -12.5 122.5t-89.5 57.5v6q61 11 89.5 57.5t12.5 122.5l-24 115q-11 53 -4.5 91t27 64t53.5 41.5t75 23.5l2 -10q-41 -8 -72.5 -22.5t-50 -39.5t-24 -61.5t5.5 -87.5l24 -115q14 -70 -10 -118t-78 -63v-2
q54 -15 78 -63t10 -118l-24 -115q-11 -51 -5.5 -87.5t24 -61.5t50 -40t72.5 -22z" />
    <glyph glyph-name="bar" unicode="|" horiz-adv-x="262" 
d="M125 793h12v-1004h-12v1004z" />
    <glyph glyph-name="braceright" unicode="}" horiz-adv-x="294" 
d="M33 802q42 -8 75 -23.5t53.5 -41.5t27 -64t-4.5 -91l-24 -115q-16 -76 12.5 -122.5t89.5 -57.5v-6q-61 -11 -89.5 -57.5t-12.5 -122.5l24 -115q11 -53 4.5 -91t-27 -64t-53.5 -41.5t-75 -23.5l-2 10q41 8 72.5 22.5t50 39.5t24 61.5t-5.5 87.5l-24 115q-14 70 10 118
t78 63v2q-54 15 -78 63t-10 118l24 115q11 51 5.5 87.5t-24 61.5t-50 40t-72.5 22z" />
    <glyph glyph-name="asciitilde" unicode="~" horiz-adv-x="653" 
d="M213 320q39 0 67 -16t52.5 -35t49.5 -35t59 -16q14 0 31.5 3t33.5 13t29 29.5t18 53.5h12q-5 -34 -18 -55.5t-30.5 -33.5t-37.5 -16t-38 -4q-37 0 -63 16t-50 35t-50.5 35t-64.5 16q-14 0 -31.5 -3t-33.5 -13t-29 -29.5t-18 -53.5h-12q5 34 18 55.5t30.5 33.5t37.5 16
t38 4z" />
    <glyph glyph-name="uni00A0" unicode="&#xa0;" horiz-adv-x="294" 
 />
    <glyph glyph-name="exclamdown" unicode="&#xa1;" horiz-adv-x="210" 
d="M109 320q0 -117 1 -203t1.5 -152t1 -118.5t0.5 -101.5q0 -3 -8 -3t-8 3q0 49 0.5 101.5t1 118.5t1.5 152t1 203h8zM105 512q9 0 14.5 -5.5t5.5 -13.5t-5.5 -14t-14.5 -6q-8 0 -13.5 6t-5.5 14t5.5 13.5t13.5 5.5z" />
    <glyph glyph-name="cent" unicode="&#xa2;" horiz-adv-x="569" 
d="M293 -10q-52 1 -95.5 20.5t-75 54t-49.5 82t-18 106.5q0 61 20.5 108t53.5 80t76 51t88 20v158h12v-158q52 0 90 -14.5t62.5 -33.5t36 -38.5t11.5 -31.5q0 -11 -11 -11h-4q-13 55 -62.5 87t-122.5 32v-501q32 0 66.5 8.5t65 27.5t53.5 50t34 76h6q-11 -49 -35 -82
t-55.5 -53.5t-66.5 -29t-68 -8.5v-134h-12v134zM70 253q0 -53 16 -98.5t45 -79t70 -53t92 -21.5v501q-42 -2 -82 -19t-71.5 -49t-50.5 -77.5t-19 -103.5z" />
    <glyph glyph-name="sterling" unicode="&#xa3;" horiz-adv-x="634" 
d="M52 4l49 45q43 40 71.5 70t44.5 55t22.5 46t6.5 42q0 23 -4.5 42.5t-12.5 39.5h-179v11h174l-3 6l-34 74q-15 33 -26.5 58.5t-18.5 46t-10.5 38t-3.5 35.5q0 40 22 72t58 53q25 14 55 22t63 8q55 0 94 -13.5t63.5 -32t36 -37.5t11.5 -30q0 -14 -15 -12q-6 29 -24 50.5
t-43.5 35.5t-57 21t-65.5 7q-32 0 -61 -8t-52 -22q-33 -20 -52 -49.5t-19 -64.5q0 -17 3.5 -33.5t10.5 -37t18 -46t26 -58.5l33 -73l5 -10h243v-11h-239q8 -19 12.5 -38.5t4.5 -43.5q0 -17 -4.5 -37t-20.5 -45.5t-45.5 -58.5t-79.5 -77l-37 -33h525l-3 -11h-542v4z" />
    <glyph glyph-name="yen" unicode="&#xa5;" horiz-adv-x="831" 
d="M219 234h191v99h-191v11h190l-289 390q-5 7 -10.5 11t-21.5 5l-60 2v6h199v-6l-60 -2q-20 -1 -28.5 -5t-3.5 -11l282 -380l281 380q5 7 -3.5 11t-28.5 5l-60 2v6h198v-6l-60 -2q-16 -1 -21.5 -5t-10.5 -11l-288 -390h190v-11h-191v-99h191v-11h-191v-199q0 -14 32 -16
l60 -2v-6h-197v6l60 2q32 2 32 16v199h-191v11z" />
    <glyph glyph-name="brokenbar" unicode="&#xa6;" horiz-adv-x="262" 
d="M125 793h12v-394h-12v394zM125 183h12v-394h-12v394z" />
    <glyph glyph-name="section" unicode="&#xa7;" horiz-adv-x="633" 
d="M207 263q-36 37 -63.5 69t-46 62.5t-28 61t-9.5 65.5q0 51 20.5 96t58.5 78.5t92 53t122 19.5q54 0 93 -14.5t64 -34t37 -39.5t12 -31q0 -14 -14 -12q-13 57 -65 89t-127 32q-42 0 -72 -10.5t-49.5 -27t-29 -37t-9.5 -40.5q0 -23 8 -46t25 -49t43 -56t61 -66l84 -87
q36 -38 67.5 -73t54.5 -70t36.5 -70.5t13.5 -73.5q0 -51 -21.5 -96t-61.5 -79t-95.5 -53.5t-122.5 -19.5q-55 0 -98 16.5t-72.5 39.5t-45 47t-15.5 39q0 7 4.5 10t9.5 2q6 -32 26.5 -58.5t50 -45.5t66 -29.5t74.5 -10.5q41 0 71 10t49 27.5t28 39.5t9 46q0 28 -10.5 55.5
t-30 56t-47.5 60t-63 67.5zM380 -175q40 10 74.5 30.5t60.5 49.5t41 66t15 81q0 69 -44.5 135t-117.5 140l-88 89q-39 39 -66 70.5t-43.5 58.5t-24 50.5t-7.5 47.5q0 29 20 57.5t58 46.5q-39 -9 -72.5 -29t-58 -49.5t-38.5 -66.5t-14 -81q0 -32 9 -61t26 -58.5t43 -60.5
t60 -66l87 -89q39 -40 68 -72.5t48.5 -62t29 -57.5t9.5 -58q0 -38 -22 -67t-53 -44z" />
    <glyph glyph-name="dieresis" unicode="&#xa8;" 
d="M120 690q-8 0 -13.5 5.5t-5.5 13.5t5.5 13.5t13.5 5.5t13.5 -5.5t5.5 -13.5t-5.5 -13.5t-13.5 -5.5zM-120 690q-8 0 -13.5 5.5t-5.5 13.5t5.5 13.5t13.5 5.5t13.5 -5.5t5.5 -13.5t-5.5 -13.5t-13.5 -5.5z" />
    <glyph glyph-name="copyright" unicode="&#xa9;" horiz-adv-x="884" 
d="M442 -10q-86 0 -156.5 30.5t-120.5 83t-77.5 123.5t-27.5 152t27.5 152t77.5 123.5t120.5 83t156.5 30.5t156.5 -30.5t120.5 -83t77.5 -123.5t27.5 -152t-27.5 -152t-77.5 -123.5t-120.5 -83t-156.5 -30.5zM442 0q72 0 138 26t117 74.5t81.5 119t30.5 159.5t-30.5 159.5
t-81.5 119t-117 74.5t-138 26t-138 -26t-117 -74.5t-81.5 -119t-30.5 -159.5t30.5 -159.5t81.5 -119t117 -74.5t138 -26zM455 165q-50 0 -93 15t-75 43t-50.5 69t-18.5 94q0 52 18.5 93.5t50.5 70t76 43.5t94 15q39 0 76 -8t63 -28l25 -91h-5l-29 71q-4 10 -7 13.5t-8 7.5
q-14 11 -45.5 18t-68.5 7q-45 0 -85.5 -13t-71.5 -38.5t-49.5 -65t-18.5 -91.5q0 -51 16.5 -91t46.5 -67.5t71 -42t90 -14.5q37 0 69.5 6.5t46.5 17.5q5 5 7.5 8.5t7.5 13.5l33 75h5l-30 -95q-26 -20 -64 -28t-77 -8z" />
    <glyph glyph-name="ordfeminine" unicode="&#xaa;" horiz-adv-x="483" 
d="M194 347q-30 0 -54 9t-41 24.5t-26.5 35.5t-9.5 42q0 29 14 49t37.5 33.5t54 22t63.5 16.5q44 10 68.5 18t36 15.5t13.5 16.5t2 21q0 22 -6 42t-20.5 35t-37 23.5t-55.5 8.5q-32 0 -59 -9.5t-46 -27t-28.5 -41t-6.5 -51.5h-6q-5 0 -7 1t-2 7q0 28 14 54.5t40 45.5
q20 14 45 22t57 8q132 0 130 -128l-2 -275h66v-7l-77 -6v121q-16 -70 -59.5 -98t-97.5 -28zM196 357q29 0 56.5 8.5t49.5 27.5t35.5 49.5t13.5 73.5l1 95q-23 -14 -52.5 -23t-65.5 -18q-31 -7 -59.5 -15t-50 -20.5t-34.5 -31t-13 -45.5q0 -21 8.5 -39t24 -32t37.5 -22t49 -8
z" />
    <glyph glyph-name="guillemotleft" unicode="&#xab;" horiz-adv-x="536" 
d="M275 52l-7 -8l-216 214l216 214l7 -8l-207 -206zM475 52l-7 -8l-216 214l216 214l7 -8l-207 -206z" />
    <glyph glyph-name="uni00AD" unicode="&#xad;" horiz-adv-x="454" 
d="M80 265h294v-11h-294v11z" />
    <glyph glyph-name="registered" unicode="&#xae;" horiz-adv-x="884" 
d="M442 -10q-86 0 -156.5 30.5t-120.5 83t-77.5 123.5t-27.5 152t27.5 152t77.5 123.5t120.5 83t156.5 30.5t156.5 -30.5t120.5 -83t77.5 -123.5t27.5 -152t-27.5 -152t-77.5 -123.5t-120.5 -83t-156.5 -30.5zM442 0q72 0 138 26t117 74.5t81.5 119t30.5 159.5t-30.5 159.5
t-81.5 119t-117 74.5t-138 26t-138 -26t-117 -74.5t-81.5 -119t-30.5 -159.5t30.5 -159.5t81.5 -119t117 -74.5t138 -26zM275 185l33 2q19 1 19 12v388q0 11 -19 12l-33 2v7h140q33 0 63.5 -4t54 -15.5t37.5 -32.5t14 -55q0 -32 -13 -53t-33.5 -33t-46.5 -17.5t-53 -6.5
l214 -213h-16l-214 213h-83v-192q0 -7 5 -9t14 -3l33 -2v-7h-116v7zM411 401q32 0 61 4t51 14.5t35 30t13 50.5t-13 50.5t-35 30t-51 14t-61 3.5h-72v-197h72z" />
    <glyph glyph-name="macron" unicode="&#xaf;" 
d="M-137 676h274v-9h-274v9z" />
    <glyph glyph-name="degree" unicode="&#xb0;" horiz-adv-x="454" 
d="M227 430q-36 0 -67 13t-54 36t-36 54t-13 66t13 66t36 54t54 36t67 13t67 -13t54 -36t36 -54t13 -66t-13 -66t-36 -54t-54 -36t-67 -13zM227 442q31 0 59 11t50 31.5t35 49.5t13 65t-13 65t-35 49.5t-50 31.5t-59 11t-59.5 -11t-50 -31.5t-34.5 -49.5t-13 -65t13 -65
t34.5 -49.5t50 -31.5t59.5 -11z" />
    <glyph glyph-name="plusminus" unicode="&#xb1;" horiz-adv-x="653" 
d="M320 304h-252v11h252v220h12v-220h252v-11h-252v-224h-12v224zM68 11h516v-11h-516v11z" />
    <glyph glyph-name="uni00B2" unicode="&#xb2;" horiz-adv-x="348" 
d="M19 403q57 54 102.5 98.5t78 83t50 73.5t17.5 69q0 47 -26.5 69.5t-68.5 22.5q-44 0 -74.5 -29.5t-29.5 -82.5h-6q-1 27 7 49.5t23 38t36.5 24.5t47.5 9q53 0 78.5 -29t25.5 -70q0 -30 -13 -60.5t-39.5 -65t-66 -74t-93.5 -87.5l-35 -31h229q13 0 17 10l29 72h6l-31 -92
h-264v2z" />
    <glyph glyph-name="uni00B3" unicode="&#xb3;" horiz-adv-x="345" 
d="M161 391q-32 0 -55 9t-38 21.5t-22.5 25.5t-7.5 20q0 11 12 9q7 -32 35 -54t76 -22q24 0 47 8.5t40.5 24.5t28 40t10.5 56q0 27 -10 48.5t-25 36.5t-33 22.5t-34 7.5q-15 0 -28 -4.5t-22 -8.5l-3 7l13 5q48 18 78.5 44t30.5 63q0 32 -23 50.5t-62 18.5q-18 0 -36 -5.5
t-32 -16.5t-23.5 -27t-12.5 -38h-5q5 46 37.5 71t74.5 25q48 0 71 -23t23 -52q0 -19 -7.5 -34.5t-19 -27.5t-25 -20.5t-25.5 -14.5v-1q19 -2 39 -11t36 -24.5t26 -38.5t10 -51q0 -33 -12.5 -59t-32.5 -43.5t-44.5 -27t-49.5 -9.5z" />
    <glyph glyph-name="acute" unicode="&#xb4;" 
d="M46 758h15v-1l-112 -178h-9z" />
    <glyph glyph-name="paragraph" unicode="&#xb6;" horiz-adv-x="571" 
d="M303 287q-5 -1 -11 -1h-12q-58 0 -103.5 16t-76.5 45.5t-47.5 70t-16.5 90.5q0 53 21.5 98.5t63.5 79.5t104 53t142 19h148v-8l-60 -2q-32 -2 -32 -16v-832l-12 -10v418q-45 -17 -96 -21v-475l-12 -9v484z" />
    <glyph glyph-name="periodcentered" unicode="&#xb7;" horiz-adv-x="199" 
d="M99 240q-8 0 -13.5 5.5t-5.5 13.5t5.5 14t13.5 6q9 0 14.5 -6t5.5 -14t-5.5 -13.5t-14.5 -5.5z" />
    <glyph glyph-name="cedilla" unicode="&#xb8;" 
d="M2 -246q-20 0 -36.5 5.5t-29 14.5t-19.5 20t-7 22q0 6 5 8t9 0q0 -16 7.5 -28t19 -19.5t25 -11t26.5 -3.5q32 0 54 14.5t22 40.5q0 13 -9.5 24.5t-25 22t-36.5 20t-44 20.5l99 96h15l-93 -91q48 -23 77.5 -42.5t29.5 -48.5t-25.5 -46.5t-63.5 -17.5z" />
    <glyph glyph-name="uni00B9" unicode="&#xb9;" horiz-adv-x="225" 
d="M126 813l-100 -43v9l112 48v-408q0 -11 18 -11l39 -1v-6h-129v6l41 2q19 1 19 10v394z" />
    <glyph glyph-name="ordmasculine" unicode="&#xba;" horiz-adv-x="520" 
d="M261 347q-38 0 -74.5 14t-65.5 41t-46.5 66t-17.5 90q0 50 17.5 89t46.5 66t65.5 41t74.5 14q37 0 73.5 -14t65.5 -41t46.5 -66t17.5 -89q0 -51 -17.5 -90t-46.5 -66t-65.5 -41t-73.5 -14zM261 358q34 0 67.5 12.5t60.5 37.5t44 62.5t17 87.5t-17 87.5t-44 62.5
t-60.5 37.5t-67.5 12.5t-68 -12.5t-61 -37.5t-43.5 -62.5t-16.5 -87.5t16.5 -87.5t43.5 -62.5t61 -37.5t68 -12.5z" />
    <glyph glyph-name="guillemotright" unicode="&#xbb;" horiz-adv-x="536" 
d="M268 258l-207 206l7 8l216 -214l-216 -214l-7 8zM468 258l-207 206l7 8l216 -214l-216 -214l-7 8z" />
    <glyph glyph-name="onequarter" unicode="&#xbc;" horiz-adv-x="753" 
d="M126 753l-100 -43v9l112 48v-408q0 -11 18 -11l39 -1v-6h-129v6l41 2q19 1 19 10v394zM583 758h14l-566 -758h-14zM627 120h-248l251 299h9v-289h88v-10h-88v-120h-12v120zM627 130v272l-229 -272h229z" />
    <glyph glyph-name="onehalf" unicode="&#xbd;" horiz-adv-x="733" 
d="M126 753l-100 -43v9l112 48v-408q0 -11 18 -11l39 -1v-6h-129v6l41 2q19 1 19 10v394zM583 758h14l-566 -758h-14zM404 2q57 54 102.5 98.5t78 83t50 73.5t17.5 69q0 47 -26.5 69.5t-68.5 22.5q-44 0 -74.5 -29.5t-29.5 -82.5h-6q-1 27 7 49.5t23 38t36.5 24.5t47.5 9
q53 0 78.5 -29t25.5 -70q0 -30 -13 -60.5t-39.5 -65t-66 -74t-93.5 -87.5l-35 -31h229q13 0 17 10l29 72h6l-31 -92h-264v2z" />
    <glyph glyph-name="threequarters" unicode="&#xbe;" horiz-adv-x="873" 
d="M161 331q-32 0 -55 9t-38 21.5t-22.5 25.5t-7.5 20q0 11 12 9q7 -32 35 -54t76 -22q24 0 47 8.5t40.5 24.5t28 40t10.5 56q0 27 -10 48.5t-25 36.5t-33 22.5t-34 7.5q-15 0 -28 -4.5t-22 -8.5l-3 7l13 5q48 18 78.5 44t30.5 63q0 32 -23 50.5t-62 18.5q-18 0 -36 -5.5
t-32 -16.5t-23.5 -27t-12.5 -38h-5q5 46 37.5 71t74.5 25q48 0 71 -23t23 -52q0 -19 -7.5 -34.5t-19 -27.5t-25 -20.5t-25.5 -14.5v-1q19 -2 39 -11t36 -24.5t26 -38.5t10 -51q0 -33 -12.5 -59t-32.5 -43.5t-44.5 -27t-49.5 -9.5zM703 758h14l-566 -758h-14zM747 120h-248
l251 299h9v-289h88v-10h-88v-120h-12v120zM747 130v272l-229 -272h229z" />
    <glyph glyph-name="questiondown" unicode="&#xbf;" horiz-adv-x="541" 
d="M282 -248q42 0 78 9t63.5 26t46 40t24.5 52q6 1 10.5 -2t4.5 -10q0 -11 -14 -32t-42.5 -41.5t-71 -36t-99.5 -15.5q-59 0 -104 16.5t-75.5 44.5t-46.5 63.5t-16 73.5q0 42 14.5 72t38.5 51t54.5 33.5t63.5 19.5l71 15q13 3 21.5 5t13.5 7t7.5 14.5t2.5 27.5l3 135h9v-134
q0 -20 -2.5 -31.5t-8.5 -18t-16 -10t-25 -6.5l-71 -15q-33 -7 -62.5 -19.5t-51.5 -32t-34.5 -47t-12.5 -66.5q0 -37 14.5 -71t43.5 -60t71 -41.5t98 -15.5zM334 512q8 0 13.5 -5.5t5.5 -13.5t-5.5 -14t-13.5 -6q-9 0 -14.5 6t-5.5 14t5.5 13.5t14.5 5.5z" />
    <glyph glyph-name="Agrave" unicode="&#xc0;" horiz-adv-x="756" 
d="M675 24q3 -8 9.5 -11.5t22.5 -4.5l60 -2v-6h-198v6l60 2q38 1 32 16l-118 303h-331l-117 -303q-3 -8 4 -11.5t28 -4.5l60 -2v-6h-198v6l60 2q16 1 22.5 4.5t9.5 11.5l291 749h11zM217 338h322l-162 414zM431 833l-170 138v1h16l166 -139h-12z" />
    <glyph glyph-name="Aacute" unicode="&#xc1;" horiz-adv-x="756" 
d="M675 24q3 -8 9.5 -11.5t22.5 -4.5l60 -2v-6h-198v6l60 2q38 1 32 16l-118 303h-331l-117 -303q-3 -8 4 -11.5t28 -4.5l60 -2v-6h-198v6l60 2q16 1 22.5 4.5t9.5 11.5l291 749h11zM217 338h322l-162 414zM500 972h16v-1l-170 -138h-12z" />
    <glyph glyph-name="Acircumflex" unicode="&#xc2;" horiz-adv-x="756" 
d="M675 24q3 -8 9.5 -11.5t22.5 -4.5l60 -2v-6h-198v6l60 2q38 1 32 16l-118 303h-331l-117 -303q-3 -8 4 -11.5t28 -4.5l60 -2v-6h-198v6l60 2q16 1 22.5 4.5t9.5 11.5l291 749h11zM217 338h322l-162 414zM375 972h4l146 -139h-9l-139 124l-139 -124h-9z" />
    <glyph glyph-name="Atilde" unicode="&#xc3;" horiz-adv-x="756" 
d="M675 24q3 -8 9.5 -11.5t22.5 -4.5l60 -2v-6h-198v6l60 2q38 1 32 16l-118 303h-331l-117 -303q-3 -8 4 -11.5t28 -4.5l60 -2v-6h-198v6l60 2q16 1 22.5 4.5t9.5 11.5l291 749h11zM217 338h322l-162 414zM462 861q-28 0 -49 13t-40 28.5t-38 28.5t-42 13q-55 0 -56 -72
h-11q0 43 19.5 62.5t47.5 19.5q25 0 45 -13t39 -28.5t39 -28.5t46 -13q25 0 39.5 18t15.5 54h11q0 -43 -20 -62.5t-46 -19.5z" />
    <glyph glyph-name="Adieresis" unicode="&#xc4;" horiz-adv-x="756" 
d="M675 24q3 -8 9.5 -11.5t22.5 -4.5l60 -2v-6h-198v6l60 2q38 1 32 16l-118 303h-331l-117 -303q-3 -8 4 -11.5t28 -4.5l60 -2v-6h-198v6l60 2q16 1 22.5 4.5t9.5 11.5l291 749h11zM217 338h322l-162 414zM257 917q-8 0 -13.5 5.5t-5.5 13.5t5.5 13.5t13.5 5.5t13.5 -5.5
t5.5 -13.5t-5.5 -13.5t-13.5 -5.5zM497 917q-8 0 -13.5 5.5t-5.5 13.5t5.5 13.5t13.5 5.5t13.5 -5.5t5.5 -13.5t-5.5 -13.5t-13.5 -5.5z" />
    <glyph glyph-name="Aring" unicode="&#xc5;" horiz-adv-x="756" 
d="M675 24q3 -8 9.5 -11.5t22.5 -4.5l60 -2v-6h-198v6l60 2q38 1 32 16l-118 303h-331l-117 -303q-3 -8 4 -11.5t28 -4.5l60 -2v-6h-198v6l60 2q16 1 22.5 4.5t9.5 11.5l291 749h11zM217 338h322l-162 414zM377 833q-21 0 -39.5 7.5t-32.5 20.5t-22 31t-8 39t8 39t22 31
t32.5 20.5t39.5 7.5t39.5 -7.5t32.5 -20.5t22 -31t8 -39t-8 -39t-22 -31t-32.5 -20.5t-39.5 -7.5zM377 843q38 0 64 25.5t26 62.5t-26 62.5t-64 25.5t-64 -25.5t-26 -62.5t26 -62.5t64 -25.5z" />
    <glyph glyph-name="AE" unicode="&#xc6;" horiz-adv-x="1160" 
d="M525 6l60 2q32 2 32 16v303h-297l-220 -303q-5 -8 -2 -11.5t20 -4.5l60 -2v-6h-201v6l60 2q20 1 31 4.5t16 11.5l533 734h407l28 -147h-7l-33 124q-3 12 -16 12h-366v-343h227q20 0 24 2.5t5 13.5l6 97h7v-237h-7l-6 97q-1 11 -5 13.5t-24 2.5h-227v-382h420
q10 0 14.5 2.5t8.5 10.5l58 129h7l-57 -153h-556v6zM617 338v398l-289 -398h289z" />
    <glyph glyph-name="Ccedilla" unicode="&#xc7;" horiz-adv-x="825" 
d="M475 -10q-87 0 -162.5 25.5t-131.5 75t-88.5 122t-32.5 166.5q0 93 32.5 165.5t89 122t133 75.5t164.5 26q70 0 135.5 -16t110.5 -54l44 -137h-7l-46 110q-7 16 -11 21.5t-13 13.5q-26 23 -84 37.5t-126 14.5q-81 0 -154.5 -23.5t-130 -71t-89.5 -119t-33 -166.5
q0 -93 31.5 -164t86.5 -118.5t128.5 -71.5t156.5 -24q34 0 66.5 4t61 11t51 16.5t35.5 20.5q9 8 13.5 13.5t11.5 21.5l53 119h7l-52 -146q-45 -38 -112.5 -54t-137.5 -16zM438 -246q-20 0 -36.5 5.5t-29 14.5t-19.5 20t-7 22q0 6 5 8t9 0q0 -16 7.5 -28t19 -19.5t25 -11
t26.5 -3.5q32 0 54 14.5t22 40.5q0 13 -9.5 24.5t-25 22t-36.5 20t-44 20.5l99 96h15l-93 -91q48 -23 77.5 -42.5t29.5 -48.5t-25.5 -46.5t-63.5 -17.5z" />
    <glyph glyph-name="Egrave" unicode="&#xc8;" horiz-adv-x="702" 
d="M67 6l60 2q32 2 32 16v710q0 14 -32 16l-60 2v6h499l28 -147h-7l-33 124q-3 12 -16 12h-366v-343h227q20 0 24 2.5t5 13.5l6 97h7v-237h-7l-6 97q-1 11 -5 13.5t-24 2.5h-227v-382h420q10 0 14.5 2.5t8.5 10.5l58 129h7l-57 -153h-556v6zM419 833l-170 138v1h16l166 -139
h-12z" />
    <glyph glyph-name="Eacute" unicode="&#xc9;" horiz-adv-x="702" 
d="M67 6l60 2q32 2 32 16v710q0 14 -32 16l-60 2v6h499l28 -147h-7l-33 124q-3 12 -16 12h-366v-343h227q20 0 24 2.5t5 13.5l6 97h7v-237h-7l-6 97q-1 11 -5 13.5t-24 2.5h-227v-382h420q10 0 14.5 2.5t8.5 10.5l58 129h7l-57 -153h-556v6zM488 972h16v-1l-170 -138h-12z
" />
    <glyph glyph-name="Ecircumflex" unicode="&#xca;" horiz-adv-x="702" 
d="M67 6l60 2q32 2 32 16v710q0 14 -32 16l-60 2v6h499l28 -147h-7l-33 124q-3 12 -16 12h-366v-343h227q20 0 24 2.5t5 13.5l6 97h7v-237h-7l-6 97q-1 11 -5 13.5t-24 2.5h-227v-382h420q10 0 14.5 2.5t8.5 10.5l58 129h7l-57 -153h-556v6zM363 972h4l146 -139h-9l-139 124
l-139 -124h-9z" />
    <glyph glyph-name="Edieresis" unicode="&#xcb;" horiz-adv-x="702" 
d="M67 6l60 2q32 2 32 16v710q0 14 -32 16l-60 2v6h499l28 -147h-7l-33 124q-3 12 -16 12h-366v-343h227q20 0 24 2.5t5 13.5l6 97h7v-237h-7l-6 97q-1 11 -5 13.5t-24 2.5h-227v-382h420q10 0 14.5 2.5t8.5 10.5l58 129h7l-57 -153h-556v6zM245 917q-8 0 -13.5 5.5
t-5.5 13.5t5.5 13.5t13.5 5.5t13.5 -5.5t5.5 -13.5t-5.5 -13.5t-13.5 -5.5zM485 917q-8 0 -13.5 5.5t-5.5 13.5t5.5 13.5t13.5 5.5t13.5 -5.5t5.5 -13.5t-5.5 -13.5t-13.5 -5.5z" />
    <glyph glyph-name="Igrave" unicode="&#xcc;" horiz-adv-x="331" 
d="M67 6l60 2q32 2 32 16v710q0 14 -32 16l-60 2v6h197v-6l-60 -2q-32 -2 -32 -16v-710q0 -14 32 -16l60 -2v-6h-197v6zM220 833l-170 138v1h16l166 -139h-12z" />
    <glyph glyph-name="Iacute" unicode="&#xcd;" horiz-adv-x="331" 
d="M67 6l60 2q32 2 32 16v710q0 14 -32 16l-60 2v6h197v-6l-60 -2q-32 -2 -32 -16v-710q0 -14 32 -16l60 -2v-6h-197v6zM289 972h16v-1l-170 -138h-12z" />
    <glyph glyph-name="Icircumflex" unicode="&#xce;" horiz-adv-x="331" 
d="M67 6l60 2q32 2 32 16v710q0 14 -32 16l-60 2v6h197v-6l-60 -2q-32 -2 -32 -16v-710q0 -14 32 -16l60 -2v-6h-197v6zM164 972h4l146 -139h-9l-139 124l-139 -124h-9z" />
    <glyph glyph-name="Idieresis" unicode="&#xcf;" horiz-adv-x="331" 
d="M67 6l60 2q32 2 32 16v710q0 14 -32 16l-60 2v6h197v-6l-60 -2q-32 -2 -32 -16v-710q0 -14 32 -16l60 -2v-6h-197v6zM46 917q-8 0 -13.5 5.5t-5.5 13.5t5.5 13.5t13.5 5.5t13.5 -5.5t5.5 -13.5t-5.5 -13.5t-13.5 -5.5zM286 917q-8 0 -13.5 5.5t-5.5 13.5t5.5 13.5
t13.5 5.5t13.5 -5.5t5.5 -13.5t-5.5 -13.5t-13.5 -5.5z" />
    <glyph glyph-name="Eth" unicode="&#xd0;" horiz-adv-x="851" 
d="M77 6l60 2q32 2 32 16v710q0 14 -32 16l-60 2v6h244q90 0 174.5 -17.5t149.5 -60t104.5 -115t39.5 -183.5t-39.5 -184.5t-104.5 -117.5t-149.5 -62t-174.5 -18h-244v6zM321 11q96 0 179 20.5t143.5 64.5t95.5 114.5t35 171.5q0 100 -35 170t-95.5 113t-143.5 62.5
t-179 19.5h-139v-736h139zM77 404h344v-11h-344v11z" />
    <glyph glyph-name="Ntilde" unicode="&#xd1;" horiz-adv-x="868" 
d="M67 6l60 2q32 2 32 16v640l-76 93v1h14l615 -745v721q0 14 -32 16l-60 2v6h197v-6l-60 -2q-32 -2 -32 -16v-756h-2l-551 671v-625q0 -14 32 -16l60 -2v-6h-197v6zM535 861q-28 0 -49 13t-40 28.5t-38 28.5t-42 13q-55 0 -56 -72h-11q0 43 19.5 62.5t47.5 19.5
q25 0 45 -13t39 -28.5t39 -28.5t46 -13q25 0 39.5 18t15.5 54h11q0 -43 -20 -62.5t-46 -19.5z" />
    <glyph glyph-name="Ograve" unicode="&#xd2;" horiz-adv-x="884" 
d="M442 -10q-86 0 -156.5 30.5t-120.5 83t-77.5 123.5t-27.5 152t27.5 152t77.5 123.5t120.5 83t156.5 30.5t156.5 -30.5t120.5 -83t77.5 -123.5t27.5 -152t-27.5 -152t-77.5 -123.5t-120.5 -83t-156.5 -30.5zM442 0q72 0 138 26t117 74.5t81.5 119t30.5 159.5t-30.5 159.5
t-81.5 119t-117 74.5t-138 26t-138 -26t-117 -74.5t-81.5 -119t-30.5 -159.5t30.5 -159.5t81.5 -119t117 -74.5t138 -26zM496 833l-170 138v1h16l166 -139h-12z" />
    <glyph glyph-name="Oacute" unicode="&#xd3;" horiz-adv-x="884" 
d="M442 -10q-86 0 -156.5 30.5t-120.5 83t-77.5 123.5t-27.5 152t27.5 152t77.5 123.5t120.5 83t156.5 30.5t156.5 -30.5t120.5 -83t77.5 -123.5t27.5 -152t-27.5 -152t-77.5 -123.5t-120.5 -83t-156.5 -30.5zM442 0q72 0 138 26t117 74.5t81.5 119t30.5 159.5t-30.5 159.5
t-81.5 119t-117 74.5t-138 26t-138 -26t-117 -74.5t-81.5 -119t-30.5 -159.5t30.5 -159.5t81.5 -119t117 -74.5t138 -26zM565 972h16v-1l-170 -138h-12z" />
    <glyph glyph-name="Ocircumflex" unicode="&#xd4;" horiz-adv-x="884" 
d="M442 -10q-86 0 -156.5 30.5t-120.5 83t-77.5 123.5t-27.5 152t27.5 152t77.5 123.5t120.5 83t156.5 30.5t156.5 -30.5t120.5 -83t77.5 -123.5t27.5 -152t-27.5 -152t-77.5 -123.5t-120.5 -83t-156.5 -30.5zM442 0q72 0 138 26t117 74.5t81.5 119t30.5 159.5t-30.5 159.5
t-81.5 119t-117 74.5t-138 26t-138 -26t-117 -74.5t-81.5 -119t-30.5 -159.5t30.5 -159.5t81.5 -119t117 -74.5t138 -26zM440 972h4l146 -139h-9l-139 124l-139 -124h-9z" />
    <glyph glyph-name="Otilde" unicode="&#xd5;" horiz-adv-x="884" 
d="M442 -10q-86 0 -156.5 30.5t-120.5 83t-77.5 123.5t-27.5 152t27.5 152t77.5 123.5t120.5 83t156.5 30.5t156.5 -30.5t120.5 -83t77.5 -123.5t27.5 -152t-27.5 -152t-77.5 -123.5t-120.5 -83t-156.5 -30.5zM442 0q72 0 138 26t117 74.5t81.5 119t30.5 159.5t-30.5 159.5
t-81.5 119t-117 74.5t-138 26t-138 -26t-117 -74.5t-81.5 -119t-30.5 -159.5t30.5 -159.5t81.5 -119t117 -74.5t138 -26zM527 861q-28 0 -49 13t-40 28.5t-38 28.5t-42 13q-55 0 -56 -72h-11q0 43 19.5 62.5t47.5 19.5q25 0 45 -13t39 -28.5t39 -28.5t46 -13q25 0 39.5 18
t15.5 54h11q0 -43 -20 -62.5t-46 -19.5z" />
    <glyph glyph-name="Odieresis" unicode="&#xd6;" horiz-adv-x="884" 
d="M442 -10q-86 0 -156.5 30.5t-120.5 83t-77.5 123.5t-27.5 152t27.5 152t77.5 123.5t120.5 83t156.5 30.5t156.5 -30.5t120.5 -83t77.5 -123.5t27.5 -152t-27.5 -152t-77.5 -123.5t-120.5 -83t-156.5 -30.5zM442 0q72 0 138 26t117 74.5t81.5 119t30.5 159.5t-30.5 159.5
t-81.5 119t-117 74.5t-138 26t-138 -26t-117 -74.5t-81.5 -119t-30.5 -159.5t30.5 -159.5t81.5 -119t117 -74.5t138 -26zM322 917q-8 0 -13.5 5.5t-5.5 13.5t5.5 13.5t13.5 5.5t13.5 -5.5t5.5 -13.5t-5.5 -13.5t-13.5 -5.5zM562 917q-8 0 -13.5 5.5t-5.5 13.5t5.5 13.5
t13.5 5.5t13.5 -5.5t5.5 -13.5t-5.5 -13.5t-13.5 -5.5z" />
    <glyph glyph-name="multiply" unicode="&#xd7;" horiz-adv-x="653" 
d="M112 52l206 205l-206 206l9 9l206 -206l206 206l8 -8l-206 -206l206 -207l-8 -9l-207 207l-205 -206z" />
    <glyph glyph-name="Oslash" unicode="&#xd8;" horiz-adv-x="884" 
d="M442 -10q-86 0 -156.5 30.5t-120.5 83t-77.5 123.5t-27.5 152t27.5 152t77.5 123.5t120.5 83t156.5 30.5t156.5 -30.5t120.5 -83t77.5 -123.5t27.5 -152t-27.5 -152t-77.5 -123.5t-120.5 -83t-156.5 -30.5zM442 0q72 0 138 26t117 74.5t81.5 119t30.5 159.5t-30.5 159.5
t-81.5 119t-117 74.5t-138 26t-138 -26t-117 -74.5t-81.5 -119t-30.5 -159.5t30.5 -159.5t81.5 -119t117 -74.5t138 -26zM60 -53l755 873l9 -7l-755 -873z" />
    <glyph glyph-name="Ugrave" unicode="&#xd9;" horiz-adv-x="858" 
d="M429 -10q-293 0 -293 308v436q0 14 -32 16l-60 2v6h197v-6l-60 -2q-32 -2 -32 -16v-436q0 -67 15 -122t48.5 -94t86.5 -60.5t130 -21.5q76 0 129.5 21.5t87 60.5t48.5 94t15 122v436q0 14 -32 16l-60 2v6h197v-6l-60 -2q-32 -2 -32 -16v-436q0 -308 -293 -308zM483 833
l-170 138v1h16l166 -139h-12z" />
    <glyph glyph-name="Uacute" unicode="&#xda;" horiz-adv-x="858" 
d="M429 -10q-293 0 -293 308v436q0 14 -32 16l-60 2v6h197v-6l-60 -2q-32 -2 -32 -16v-436q0 -67 15 -122t48.5 -94t86.5 -60.5t130 -21.5q76 0 129.5 21.5t87 60.5t48.5 94t15 122v436q0 14 -32 16l-60 2v6h197v-6l-60 -2q-32 -2 -32 -16v-436q0 -308 -293 -308zM552 972
h16v-1l-170 -138h-12z" />
    <glyph glyph-name="Ucircumflex" unicode="&#xdb;" horiz-adv-x="858" 
d="M429 -10q-293 0 -293 308v436q0 14 -32 16l-60 2v6h197v-6l-60 -2q-32 -2 -32 -16v-436q0 -67 15 -122t48.5 -94t86.5 -60.5t130 -21.5q76 0 129.5 21.5t87 60.5t48.5 94t15 122v436q0 14 -32 16l-60 2v6h197v-6l-60 -2q-32 -2 -32 -16v-436q0 -308 -293 -308zM427 972h4
l146 -139h-9l-139 124l-139 -124h-9z" />
    <glyph glyph-name="Udieresis" unicode="&#xdc;" horiz-adv-x="858" 
d="M429 -10q-293 0 -293 308v436q0 14 -32 16l-60 2v6h197v-6l-60 -2q-32 -2 -32 -16v-436q0 -67 15 -122t48.5 -94t86.5 -60.5t130 -21.5q76 0 129.5 21.5t87 60.5t48.5 94t15 122v436q0 14 -32 16l-60 2v6h197v-6l-60 -2q-32 -2 -32 -16v-436q0 -308 -293 -308zM309 917
q-8 0 -13.5 5.5t-5.5 13.5t5.5 13.5t13.5 5.5t13.5 -5.5t5.5 -13.5t-5.5 -13.5t-13.5 -5.5zM549 917q-8 0 -13.5 5.5t-5.5 13.5t5.5 13.5t13.5 5.5t13.5 -5.5t5.5 -13.5t-5.5 -13.5t-13.5 -5.5z" />
    <glyph glyph-name="Yacute" unicode="&#xdd;" horiz-adv-x="769" 
d="M287 6l60 2q32 2 32 16v319l-290 391q-5 7 -10.5 11t-21.5 5l-60 2v6h199v-6l-60 -2q-20 -1 -28.5 -5t-3.5 -11l282 -380l281 380q5 7 -3.5 11t-28.5 5l-60 2v6h198v-6l-60 -2q-16 -1 -21.5 -5t-10.5 -11l-289 -391v-319q0 -14 32 -16l60 -2v-6h-197v6zM509 972h16v-1
l-170 -138h-12z" />
    <glyph glyph-name="Thorn" unicode="&#xde;" horiz-adv-x="716" 
d="M67 6l60 2q32 2 32 16v710q0 14 -32 16l-60 2v6h197v-6l-60 -2q-32 -2 -32 -16v-154h201q57 0 110 -7t93.5 -28t65 -59.5t24.5 -101.5t-24.5 -101.5t-65 -59.5t-93.5 -28t-110 -7h-201v-164q0 -16 32 -16l110 -2v-6h-247v6zM172 199h189q59 0 112 6.5t92.5 26.5
t62.5 56.5t23 95.5t-23 95.5t-62.5 56.5t-92.5 26.5t-112 6.5h-189v-370z" />
    <glyph glyph-name="germandbls" unicode="&#xdf;" horiz-adv-x="650" 
d="M405 -10q-56 0 -94.5 13t-62.5 31t-34.5 37t-10.5 30q0 7 4.5 10t10.5 2q13 -57 62.5 -85t124.5 -28q38 0 71.5 9.5t58.5 28t39.5 45t14.5 61.5q0 48 -30.5 84t-93.5 74l-50 31q-27 16 -49 30.5t-38.5 29t-25.5 30.5t-9 35q0 27 18.5 45.5t45.5 36.5l24 16q17 11 33.5 22
t30 23.5t21.5 28t8 36.5q0 42 -40 67t-101 25q-54 0 -92.5 -18.5t-62.5 -50t-35 -72t-11 -85.5v-532h-94v6l50 2q32 2 32 16v467h-82v6q30 1 47 2t24.5 3.5t9 7t1.5 12.5v10q0 47 12 90t37.5 75.5t66 51.5t97.5 19q33 0 61 -7t48.5 -20t32.5 -32t12 -43q0 -21 -8 -37
t-22 -30t-32.5 -26.5t-39.5 -26.5l-24 -16l-20 -14t-17.5 -15t-12.5 -18.5t-5 -24.5q0 -17 9 -32t25 -28.5t37 -26.5t44 -27l50 -31q71 -44 101.5 -81.5t30.5 -87.5q0 -38 -16.5 -66.5t-43.5 -48t-63 -29.5t-75 -10z" />
    <glyph glyph-name="agrave" unicode="&#xe0;" horiz-adv-x="532" 
d="M217 -10q-37 0 -67 11.5t-51.5 30t-33 43.5t-11.5 52q0 36 17.5 61t47 41.5t67.5 28t79 20.5q55 13 85.5 22.5t44.5 18.5t17 19.5t3 25.5q0 28 -8 53t-25.5 44t-46 30t-69.5 11q-42 0 -76 -13t-57.5 -35t-34.5 -51.5t-7 -61.5h-8q-5 0 -7 1t-2 8q0 35 17 68t49 56
q24 17 55.5 27.5t70.5 10.5q163 0 161 -159l-2 -342h81v-8l-93 -7v151q-9 -44 -28.5 -73.5t-45.5 -48.5t-57 -27t-65 -8zM219 0q36 0 71 11t62 35t43.5 62t17.5 92l2 118q-29 -17 -66 -28t-82 -22q-39 -9 -74.5 -19t-63 -26t-44 -39t-16.5 -57q0 -26 11 -49t30.5 -40
t47 -27.5t61.5 -10.5zM288 579l-112 178v1h15l106 -179h-9z" />
    <glyph glyph-name="aacute" unicode="&#xe1;" horiz-adv-x="532" 
d="M217 -10q-37 0 -67 11.5t-51.5 30t-33 43.5t-11.5 52q0 36 17.5 61t47 41.5t67.5 28t79 20.5q55 13 85.5 22.5t44.5 18.5t17 19.5t3 25.5q0 28 -8 53t-25.5 44t-46 30t-69.5 11q-42 0 -76 -13t-57.5 -35t-34.5 -51.5t-7 -61.5h-8q-5 0 -7 1t-2 8q0 35 17 68t49 56
q24 17 55.5 27.5t70.5 10.5q163 0 161 -159l-2 -342h81v-8l-93 -7v151q-9 -44 -28.5 -73.5t-45.5 -48.5t-57 -27t-65 -8zM219 0q36 0 71 11t62 35t43.5 62t17.5 92l2 118q-29 -17 -66 -28t-82 -22q-39 -9 -74.5 -19t-63 -26t-44 -39t-16.5 -57q0 -26 11 -49t30.5 -40
t47 -27.5t61.5 -10.5zM317 758h15v-1l-112 -178h-9z" />
    <glyph glyph-name="acircumflex" unicode="&#xe2;" horiz-adv-x="532" 
d="M217 -10q-37 0 -67 11.5t-51.5 30t-33 43.5t-11.5 52q0 36 17.5 61t47 41.5t67.5 28t79 20.5q55 13 85.5 22.5t44.5 18.5t17 19.5t3 25.5q0 28 -8 53t-25.5 44t-46 30t-69.5 11q-42 0 -76 -13t-57.5 -35t-34.5 -51.5t-7 -61.5h-8q-5 0 -7 1t-2 8q0 35 17 68t49 56
q24 17 55.5 27.5t70.5 10.5q163 0 161 -159l-2 -342h81v-8l-93 -7v151q-9 -44 -28.5 -73.5t-45.5 -48.5t-57 -27t-65 -8zM219 0q36 0 71 11t62 35t43.5 62t17.5 92l2 118q-29 -17 -66 -28t-82 -22q-39 -9 -74.5 -19t-63 -26t-44 -39t-16.5 -57q0 -26 11 -49t30.5 -40
t47 -27.5t61.5 -10.5zM248 768h4l156 -189h-9l-149 173l-149 -173h-9z" />
    <glyph glyph-name="atilde" unicode="&#xe3;" horiz-adv-x="532" 
d="M217 -10q-37 0 -67 11.5t-51.5 30t-33 43.5t-11.5 52q0 36 17.5 61t47 41.5t67.5 28t79 20.5q55 13 85.5 22.5t44.5 18.5t17 19.5t3 25.5q0 28 -8 53t-25.5 44t-46 30t-69.5 11q-42 0 -76 -13t-57.5 -35t-34.5 -51.5t-7 -61.5h-8q-5 0 -7 1t-2 8q0 35 17 68t49 56
q24 17 55.5 27.5t70.5 10.5q163 0 161 -159l-2 -342h81v-8l-93 -7v151q-9 -44 -28.5 -73.5t-45.5 -48.5t-57 -27t-65 -8zM219 0q36 0 71 11t62 35t43.5 62t17.5 92l2 118q-29 -17 -66 -28t-82 -22q-39 -9 -74.5 -19t-63 -26t-44 -39t-16.5 -57q0 -26 11 -49t30.5 -40
t47 -27.5t61.5 -10.5zM335 631q-28 0 -49 13t-40 28.5t-38 28.5t-42 13q-55 0 -56 -72h-11q0 43 19.5 62.5t47.5 19.5q25 0 45 -13t39 -28.5t39 -28.5t46 -13q25 0 39.5 18t15.5 54h11q0 -43 -20 -62.5t-46 -19.5z" />
    <glyph glyph-name="adieresis" unicode="&#xe4;" horiz-adv-x="532" 
d="M217 -10q-37 0 -67 11.5t-51.5 30t-33 43.5t-11.5 52q0 36 17.5 61t47 41.5t67.5 28t79 20.5q55 13 85.5 22.5t44.5 18.5t17 19.5t3 25.5q0 28 -8 53t-25.5 44t-46 30t-69.5 11q-42 0 -76 -13t-57.5 -35t-34.5 -51.5t-7 -61.5h-8q-5 0 -7 1t-2 8q0 35 17 68t49 56
q24 17 55.5 27.5t70.5 10.5q163 0 161 -159l-2 -342h81v-8l-93 -7v151q-9 -44 -28.5 -73.5t-45.5 -48.5t-57 -27t-65 -8zM219 0q36 0 71 11t62 35t43.5 62t17.5 92l2 118q-29 -17 -66 -28t-82 -22q-39 -9 -74.5 -19t-63 -26t-44 -39t-16.5 -57q0 -26 11 -49t30.5 -40
t47 -27.5t61.5 -10.5zM370 690q-8 0 -13.5 5.5t-5.5 13.5t5.5 13.5t13.5 5.5t13.5 -5.5t5.5 -13.5t-5.5 -13.5t-13.5 -5.5zM130 690q-8 0 -13.5 5.5t-5.5 13.5t5.5 13.5t13.5 5.5t13.5 -5.5t5.5 -13.5t-5.5 -13.5t-13.5 -5.5z" />
    <glyph glyph-name="aring" unicode="&#xe5;" horiz-adv-x="532" 
d="M217 -10q-37 0 -67 11.5t-51.5 30t-33 43.5t-11.5 52q0 36 17.5 61t47 41.5t67.5 28t79 20.5q55 13 85.5 22.5t44.5 18.5t17 19.5t3 25.5q0 28 -8 53t-25.5 44t-46 30t-69.5 11q-42 0 -76 -13t-57.5 -35t-34.5 -51.5t-7 -61.5h-8q-5 0 -7 1t-2 8q0 35 17 68t49 56
q24 17 55.5 27.5t70.5 10.5q163 0 161 -159l-2 -342h81v-8l-93 -7v151q-9 -44 -28.5 -73.5t-45.5 -48.5t-57 -27t-65 -8zM219 0q36 0 71 11t62 35t43.5 62t17.5 92l2 118q-29 -17 -66 -28t-82 -22q-39 -9 -74.5 -19t-63 -26t-44 -39t-16.5 -57q0 -26 11 -49t30.5 -40
t47 -27.5t61.5 -10.5zM250 585q-21 0 -39.5 7.5t-32.5 20.5t-22 31t-8 39t8 39t22 31t32.5 20.5t39.5 7.5t39.5 -7.5t32.5 -20.5t22 -31t8 -39t-8 -39t-22 -31t-32.5 -20.5t-39.5 -7.5zM250 595q38 0 64 25.5t26 62.5t-26 62.5t-64 25.5t-64 -25.5t-26 -62.5t26 -62.5
t64 -25.5z" />
    <glyph glyph-name="ae" unicode="&#xe6;" horiz-adv-x="940" 
d="M217 -10q-37 0 -67 11.5t-51.5 30t-33 43.5t-11.5 52q0 36 17.5 61t47 41.5t67.5 28t79 20.5q55 13 85.5 22.5t44.5 18.5t17 19.5t3 25.5q0 28 -8 53t-25.5 44t-46 30t-69.5 11q-42 0 -76 -13t-57.5 -35t-34.5 -51.5t-7 -61.5h-8q-5 0 -7 1t-2 8q0 35 17 68t49 56
q24 17 55.5 27.5t70.5 10.5q163 0 161 -159v-11q13 41 36.5 73t54 53.5t66 32.5t71.5 11q90 0 153 -54t78 -156h-451q-2 -11 -3 -23.5t-1 -25.5q0 -54 16.5 -100.5t47 -80t73.5 -52.5t96 -19q32 0 66.5 8t65 27t54 50t34.5 77h7q-11 -49 -35.5 -82t-56.5 -53t-68.5 -28.5
t-70.5 -8.5q-82 0 -143 43.5t-87 118.5q-8 -44 -29 -75t-50 -50.5t-63.5 -28.5t-70.5 -9zM69 127q0 -26 11 -49t30.5 -40t47 -27.5t61.5 -10.5t69.5 9.5t64.5 32.5t47.5 60.5t18.5 93.5q-2 14 -3.5 28.5t-1.5 29.5v10l1 54q-29 -17 -66 -28t-82 -22q-39 -9 -74.5 -19
t-63 -26t-44 -39t-16.5 -57zM654 502q-36 0 -71.5 -12.5t-65 -36.5t-51 -59.5t-30.5 -81.5h432q-5 43 -22.5 78t-45.5 60t-65 38.5t-81 13.5z" />
    <glyph glyph-name="ccedilla" unicode="&#xe7;" horiz-adv-x="570" 
d="M302 -10q-53 0 -98 18.5t-78 53t-51.5 83t-18.5 108.5q0 62 21.5 110.5t56 81.5t79 50t90.5 17q53 0 91.5 -14t63 -33.5t36.5 -39t12 -31.5q0 -11 -11 -11h-4q-13 55 -63 87t-126 32q-43 0 -84.5 -16.5t-74 -48.5t-52.5 -78t-20 -106q0 -54 16.5 -100.5t47 -80
t73.5 -52.5t96 -19q32 0 66.5 8t65 27t54 50t34.5 77h7q-11 -49 -35.5 -82t-56 -53.5t-67.5 -29t-70 -8.5zM280 -246q-20 0 -36.5 5.5t-29 14.5t-19.5 20t-7 22q0 6 5 8t9 0q0 -16 7.5 -28t19 -19.5t25 -11t26.5 -3.5q32 0 54 14.5t22 40.5q0 13 -9.5 24.5t-25 22t-36.5 20
t-44 20.5l99 96h15l-93 -91q48 -23 77.5 -42.5t29.5 -48.5t-25.5 -46.5t-63.5 -17.5z" />
    <glyph glyph-name="egrave" unicode="&#xe8;" horiz-adv-x="580" 
d="M302 -10q-53 0 -98 18.5t-78 53t-51.5 83t-18.5 108.5q0 62 20.5 110.5t54.5 81.5t76.5 50t87.5 17q90 0 153 -54t78 -156h-451q-2 -11 -3 -23.5t-1 -25.5q0 -54 16.5 -100.5t47 -80t73.5 -52.5t96 -19q32 0 66.5 8t65 27t54 50t34.5 77h7q-11 -49 -35.5 -82t-56 -53.5
t-67.5 -29t-70 -8.5zM294 502q-36 0 -71.5 -12.5t-65 -36.5t-51 -59.5t-30.5 -81.5h432q-5 43 -22.5 78t-45.5 60t-65 38.5t-81 13.5zM340 579l-112 178v1h15l106 -179h-9z" />
    <glyph glyph-name="eacute" unicode="&#xe9;" horiz-adv-x="580" 
d="M302 -10q-53 0 -98 18.5t-78 53t-51.5 83t-18.5 108.5q0 62 20.5 110.5t54.5 81.5t76.5 50t87.5 17q90 0 153 -54t78 -156h-451q-2 -11 -3 -23.5t-1 -25.5q0 -54 16.5 -100.5t47 -80t73.5 -52.5t96 -19q32 0 66.5 8t65 27t54 50t34.5 77h7q-11 -49 -35.5 -82t-56 -53.5
t-67.5 -29t-70 -8.5zM294 502q-36 0 -71.5 -12.5t-65 -36.5t-51 -59.5t-30.5 -81.5h432q-5 43 -22.5 78t-45.5 60t-65 38.5t-81 13.5zM369 758h15v-1l-112 -178h-9z" />
    <glyph glyph-name="ecircumflex" unicode="&#xea;" horiz-adv-x="580" 
d="M302 -10q-53 0 -98 18.5t-78 53t-51.5 83t-18.5 108.5q0 62 20.5 110.5t54.5 81.5t76.5 50t87.5 17q90 0 153 -54t78 -156h-451q-2 -11 -3 -23.5t-1 -25.5q0 -54 16.5 -100.5t47 -80t73.5 -52.5t96 -19q32 0 66.5 8t65 27t54 50t34.5 77h7q-11 -49 -35.5 -82t-56 -53.5
t-67.5 -29t-70 -8.5zM294 502q-36 0 -71.5 -12.5t-65 -36.5t-51 -59.5t-30.5 -81.5h432q-5 43 -22.5 78t-45.5 60t-65 38.5t-81 13.5zM300 768h4l156 -189h-9l-149 173l-149 -173h-9z" />
    <glyph glyph-name="edieresis" unicode="&#xeb;" horiz-adv-x="580" 
d="M302 -10q-53 0 -98 18.5t-78 53t-51.5 83t-18.5 108.5q0 62 20.5 110.5t54.5 81.5t76.5 50t87.5 17q90 0 153 -54t78 -156h-451q-2 -11 -3 -23.5t-1 -25.5q0 -54 16.5 -100.5t47 -80t73.5 -52.5t96 -19q32 0 66.5 8t65 27t54 50t34.5 77h7q-11 -49 -35.5 -82t-56 -53.5
t-67.5 -29t-70 -8.5zM294 502q-36 0 -71.5 -12.5t-65 -36.5t-51 -59.5t-30.5 -81.5h432q-5 43 -22.5 78t-45.5 60t-65 38.5t-81 13.5zM422 690q-8 0 -13.5 5.5t-5.5 13.5t5.5 13.5t13.5 5.5t13.5 -5.5t5.5 -13.5t-5.5 -13.5t-13.5 -5.5zM182 690q-8 0 -13.5 5.5t-5.5 13.5
t5.5 13.5t13.5 5.5t13.5 -5.5t5.5 -13.5t-5.5 -13.5t-13.5 -5.5z" />
    <glyph glyph-name="igrave" unicode="&#xec;" horiz-adv-x="255" 
d="M42 6l50 2q32 2 32 16v463l-82 9v6h94v-478q0 -14 32 -16l50 -2v-6h-176v6zM154 579l-112 178v1h15l106 -179h-9z" />
    <glyph glyph-name="iacute" unicode="&#xed;" horiz-adv-x="255" 
d="M42 6l50 2q32 2 32 16v463l-82 9v6h94v-478q0 -14 32 -16l50 -2v-6h-176v6zM183 758h15v-1l-112 -178h-9z" />
    <glyph glyph-name="icircumflex" unicode="&#xee;" horiz-adv-x="255" 
d="M42 6l50 2q32 2 32 16v463l-82 9v6h94v-478q0 -14 32 -16l50 -2v-6h-176v6zM114 768h4l156 -189h-9l-149 173l-149 -173h-9z" />
    <glyph glyph-name="idieresis" unicode="&#xef;" horiz-adv-x="255" 
d="M42 6l50 2q32 2 32 16v463l-82 9v6h94v-478q0 -14 32 -16l50 -2v-6h-176v6zM16 690q-8 0 -13.5 5.5t-5.5 13.5t5.5 13.5t13.5 5.5t13.5 -5.5t5.5 -13.5t-5.5 -13.5t-13.5 -5.5zM216 690q-8 0 -13.5 5.5t-5.5 13.5t5.5 13.5t13.5 5.5t13.5 -5.5t5.5 -13.5t-5.5 -13.5
t-13.5 -5.5z" />
    <glyph glyph-name="eth" unicode="&#xf0;" horiz-adv-x="630" 
d="M306 -10q-47 0 -92 17.5t-80 50.5t-57 81.5t-22 111.5t22 111.5t58 81.5t82 50.5t94 17.5q76 0 130.5 -28t89.5 -67q-21 94 -71.5 165t-125.5 119l-147 -79l-5 9l143 76q-96 60 -224 80l1 5q69 -10 126.5 -30t105.5 -49l141 75l5 -8l-136 -73q55 -36 95.5 -82t67 -99.5
t39.5 -112.5t13 -120q0 -79 -22 -136t-58 -94t-81.5 -55t-91.5 -18zM70 251q0 -62 21 -109t54.5 -78.5t76 -47.5t84.5 -16q43 0 85.5 16.5t76.5 51.5t55 91t21 134q0 62 -12 118q-41 42 -95 66.5t-126 24.5q-44 0 -87 -16t-77.5 -47.5t-55.5 -78.5t-21 -109z" />
    <glyph glyph-name="ntilde" unicode="&#xf1;" horiz-adv-x="604" 
d="M38 6l50 2q32 2 32 16v463l-82 9v6h94v-156q7 46 25.5 77.5t44 51t56 28.5t62.5 9q94 0 133.5 -53.5t39.5 -164.5v-270q0 -14 32 -16l50 -2v-6h-176v6l50 2q32 2 32 16v268q0 109 -39 159.5t-126 50.5q-39 0 -72.5 -14t-58.5 -40.5t-39 -65.5t-14 -90v-268q0 -14 32 -16
l50 -2v-6h-176v6zM393 631q-28 0 -49 13t-40 28.5t-38 28.5t-42 13q-55 0 -56 -72h-11q0 43 19.5 62.5t47.5 19.5q25 0 45 -13t39 -28.5t39 -28.5t46 -13q25 0 39.5 18t15.5 54h11q0 -43 -20 -62.5t-46 -19.5z" />
    <glyph glyph-name="ograve" unicode="&#xf2;" horiz-adv-x="614" 
d="M307 -10q-47 0 -92 17.5t-80.5 50.5t-57.5 81.5t-22 111.5t22 111.5t57.5 81.5t80.5 50.5t92 17.5q46 0 91.5 -17.5t81 -50.5t57.5 -81.5t22 -111.5t-22 -111.5t-57.5 -81.5t-81 -50.5t-91.5 -17.5zM307 0q42 0 84.5 16t76.5 47.5t55 78.5t21 109t-21 109t-55 78.5
t-76.5 47.5t-84.5 16t-84.5 -16t-76.5 -47.5t-55 -78.5t-21 -109t21 -109t55 -78.5t76.5 -47.5t84.5 -16zM345 579l-112 178v1h15l106 -179h-9z" />
    <glyph glyph-name="oacute" unicode="&#xf3;" horiz-adv-x="614" 
d="M307 -10q-47 0 -92 17.5t-80.5 50.5t-57.5 81.5t-22 111.5t22 111.5t57.5 81.5t80.5 50.5t92 17.5q46 0 91.5 -17.5t81 -50.5t57.5 -81.5t22 -111.5t-22 -111.5t-57.5 -81.5t-81 -50.5t-91.5 -17.5zM307 0q42 0 84.5 16t76.5 47.5t55 78.5t21 109t-21 109t-55 78.5
t-76.5 47.5t-84.5 16t-84.5 -16t-76.5 -47.5t-55 -78.5t-21 -109t21 -109t55 -78.5t76.5 -47.5t84.5 -16zM374 758h15v-1l-112 -178h-9z" />
    <glyph glyph-name="ocircumflex" unicode="&#xf4;" horiz-adv-x="614" 
d="M307 -10q-47 0 -92 17.5t-80.5 50.5t-57.5 81.5t-22 111.5t22 111.5t57.5 81.5t80.5 50.5t92 17.5q46 0 91.5 -17.5t81 -50.5t57.5 -81.5t22 -111.5t-22 -111.5t-57.5 -81.5t-81 -50.5t-91.5 -17.5zM307 0q42 0 84.5 16t76.5 47.5t55 78.5t21 109t-21 109t-55 78.5
t-76.5 47.5t-84.5 16t-84.5 -16t-76.5 -47.5t-55 -78.5t-21 -109t21 -109t55 -78.5t76.5 -47.5t84.5 -16zM305 768h4l156 -189h-9l-149 173l-149 -173h-9z" />
    <glyph glyph-name="otilde" unicode="&#xf5;" horiz-adv-x="614" 
d="M307 -10q-47 0 -92 17.5t-80.5 50.5t-57.5 81.5t-22 111.5t22 111.5t57.5 81.5t80.5 50.5t92 17.5q46 0 91.5 -17.5t81 -50.5t57.5 -81.5t22 -111.5t-22 -111.5t-57.5 -81.5t-81 -50.5t-91.5 -17.5zM307 0q42 0 84.5 16t76.5 47.5t55 78.5t21 109t-21 109t-55 78.5
t-76.5 47.5t-84.5 16t-84.5 -16t-76.5 -47.5t-55 -78.5t-21 -109t21 -109t55 -78.5t76.5 -47.5t84.5 -16zM392 631q-28 0 -49 13t-40 28.5t-38 28.5t-42 13q-55 0 -56 -72h-11q0 43 19.5 62.5t47.5 19.5q25 0 45 -13t39 -28.5t39 -28.5t46 -13q25 0 39.5 18t15.5 54h11
q0 -43 -20 -62.5t-46 -19.5z" />
    <glyph glyph-name="odieresis" unicode="&#xf6;" horiz-adv-x="614" 
d="M307 -10q-47 0 -92 17.5t-80.5 50.5t-57.5 81.5t-22 111.5t22 111.5t57.5 81.5t80.5 50.5t92 17.5q46 0 91.5 -17.5t81 -50.5t57.5 -81.5t22 -111.5t-22 -111.5t-57.5 -81.5t-81 -50.5t-91.5 -17.5zM307 0q42 0 84.5 16t76.5 47.5t55 78.5t21 109t-21 109t-55 78.5
t-76.5 47.5t-84.5 16t-84.5 -16t-76.5 -47.5t-55 -78.5t-21 -109t21 -109t55 -78.5t76.5 -47.5t84.5 -16zM427 690q-8 0 -13.5 5.5t-5.5 13.5t5.5 13.5t13.5 5.5t13.5 -5.5t5.5 -13.5t-5.5 -13.5t-13.5 -5.5zM187 690q-8 0 -13.5 5.5t-5.5 13.5t5.5 13.5t13.5 5.5t13.5 -5.5
t5.5 -13.5t-5.5 -13.5t-13.5 -5.5z" />
    <glyph glyph-name="divide" unicode="&#xf7;" horiz-adv-x="653" 
d="M327 427q-8 0 -13.5 5.5t-5.5 13.5t5.5 14t13.5 6t14 -6t6 -14t-6 -13.5t-14 -5.5zM69 265h516v-11h-516v11zM327 53q-8 0 -13.5 5.5t-5.5 13.5t5.5 14t13.5 6t14 -6t6 -14t-6 -13.5t-14 -5.5z" />
    <glyph glyph-name="oslash" unicode="&#xf8;" horiz-adv-x="634" 
d="M317 -10q-47 0 -92 17.5t-80.5 50.5t-57.5 81.5t-22 111.5t22 111.5t57.5 81.5t80.5 50.5t92 17.5q46 0 91.5 -17.5t81 -50.5t57.5 -81.5t22 -111.5t-22 -111.5t-57.5 -81.5t-81 -50.5t-91.5 -17.5zM317 0q42 0 84.5 16t76.5 47.5t55 78.5t21 109t-21 109t-55 78.5
t-76.5 47.5t-84.5 16t-84.5 -16t-76.5 -47.5t-55 -78.5t-21 -109t21 -109t55 -78.5t76.5 -47.5t84.5 -16zM569 542l-496 -586l-8 7l496 586z" />
    <glyph glyph-name="ugrave" unicode="&#xf9;" horiz-adv-x="597" 
d="M283 -10q-94 0 -133.5 53.5t-39.5 164.5v279l-82 9v6h94v-292q0 -109 39 -159.5t126 -50.5q39 0 72.5 14t58.5 40.5t39 65.5t14 90v277l-82 9v6h94v-492h82v-6l-94 -9v161q-8 -46 -26 -77.5t-43.5 -51t-56 -28.5t-62.5 -9zM334 579l-112 178v1h15l106 -179h-9z" />
    <glyph glyph-name="uacute" unicode="&#xfa;" horiz-adv-x="597" 
d="M283 -10q-94 0 -133.5 53.5t-39.5 164.5v279l-82 9v6h94v-292q0 -109 39 -159.5t126 -50.5q39 0 72.5 14t58.5 40.5t39 65.5t14 90v277l-82 9v6h94v-492h82v-6l-94 -9v161q-8 -46 -26 -77.5t-43.5 -51t-56 -28.5t-62.5 -9zM363 758h15v-1l-112 -178h-9z" />
    <glyph glyph-name="ucircumflex" unicode="&#xfb;" horiz-adv-x="597" 
d="M283 -10q-94 0 -133.5 53.5t-39.5 164.5v279l-82 9v6h94v-292q0 -109 39 -159.5t126 -50.5q39 0 72.5 14t58.5 40.5t39 65.5t14 90v277l-82 9v6h94v-492h82v-6l-94 -9v161q-8 -46 -26 -77.5t-43.5 -51t-56 -28.5t-62.5 -9zM294 768h4l156 -189h-9l-149 173l-149 -173h-9z
" />
    <glyph glyph-name="udieresis" unicode="&#xfc;" horiz-adv-x="597" 
d="M283 -10q-94 0 -133.5 53.5t-39.5 164.5v279l-82 9v6h94v-292q0 -109 39 -159.5t126 -50.5q39 0 72.5 14t58.5 40.5t39 65.5t14 90v277l-82 9v6h94v-492h82v-6l-94 -9v161q-8 -46 -26 -77.5t-43.5 -51t-56 -28.5t-62.5 -9zM416 690q-8 0 -13.5 5.5t-5.5 13.5t5.5 13.5
t13.5 5.5t13.5 -5.5t5.5 -13.5t-5.5 -13.5t-13.5 -5.5zM176 690q-8 0 -13.5 5.5t-5.5 13.5t5.5 13.5t13.5 5.5t13.5 -5.5t5.5 -13.5t-5.5 -13.5t-13.5 -5.5z" />
    <glyph glyph-name="yacute" unicode="&#xfd;" horiz-adv-x="572" 
d="M162 -250q-9 0 -9 9t9 24t26 31l88 196l-195 468q-3 8 -9.5 11.5t-22.5 4.5l-50 2v6h177v-6l-50 -2q-38 -1 -32 -16l189 -452l201 452q6 15 -32 16l-50 2v6h176v-6l-50 -2q-16 -1 -22.5 -4.5t-9.5 -11.5l-304 -683q-12 -28 -18 -36.5t-12 -8.5zM355 758h15v-1l-112 -178
h-9z" />
    <glyph glyph-name="thorn" unicode="&#xfe;" horiz-adv-x="597" 
d="M292 512q57 0 103 -20.5t78.5 -55.5t50 -82.5t17.5 -102.5t-17.5 -102.5t-50 -83t-78.5 -55.5t-103 -20q-27 0 -53.5 6.5t-50 18t-42.5 28t-32 37.5v-304q0 -14 32 -16l70 -2v-6h-196v6l50 2q32 2 32 16v967l-82 9v6h94v-336q26 42 75.5 66t102.5 24zM114 85
q38 -48 86.5 -66.5t91.5 -18.5q54 0 97.5 20t73.5 54t46.5 79.5t16.5 97.5t-16.5 97.5t-46.5 79.5t-73.5 54t-97.5 20q-43 0 -91.5 -18.5t-86.5 -66.5v-332z" />
    <glyph glyph-name="ydieresis" unicode="&#xff;" horiz-adv-x="572" 
d="M162 -250q-9 0 -9 9t9 24t26 31l88 196l-195 468q-3 8 -9.5 11.5t-22.5 4.5l-50 2v6h177v-6l-50 -2q-38 -1 -32 -16l189 -452l201 452q6 15 -32 16l-50 2v6h176v-6l-50 -2q-16 -1 -22.5 -4.5t-9.5 -11.5l-304 -683q-12 -28 -18 -36.5t-12 -8.5zM408 690q-8 0 -13.5 5.5
t-5.5 13.5t5.5 13.5t13.5 5.5t13.5 -5.5t5.5 -13.5t-5.5 -13.5t-13.5 -5.5zM168 690q-8 0 -13.5 5.5t-5.5 13.5t5.5 13.5t13.5 5.5t13.5 -5.5t5.5 -13.5t-5.5 -13.5t-13.5 -5.5z" />
    <glyph glyph-name="Abreve" unicode="&#x102;" horiz-adv-x="756" 
d="M675 24q3 -8 9.5 -11.5t22.5 -4.5l60 -2v-6h-198v6l60 2q38 1 32 16l-118 303h-331l-117 -303q-3 -8 4 -11.5t28 -4.5l60 -2v-6h-198v6l60 2q16 1 22.5 4.5t9.5 11.5l291 749h11zM217 338h322l-162 414zM377 833q-30 0 -56.5 8.5t-47 26.5t-33.5 46.5t-17 68.5h13
q8 -72 45.5 -106t95.5 -34t95.5 34t45.5 106h13q-4 -40 -17.5 -68.5t-33.5 -46.5t-46.5 -26.5t-56.5 -8.5z" />
    <glyph glyph-name="Amacron" unicode="&#x100;" horiz-adv-x="756" 
d="M675 24q3 -8 9.5 -11.5t22.5 -4.5l60 -2v-6h-198v6l60 2q38 1 32 16l-118 303h-331l-117 -303q-3 -8 4 -11.5t28 -4.5l60 -2v-6h-198v6l60 2q16 1 22.5 4.5t9.5 11.5l291 749h11zM217 338h322l-162 414zM240 905h274v-9h-274v9z" />
    <glyph glyph-name="Aogonek" unicode="&#x104;" horiz-adv-x="756" 
d="M675 24q3 -8 9.5 -11.5t22.5 -4.5l60 -2v-6h-198v6l60 2q38 1 32 16l-118 303h-331l-117 -303q-3 -8 4 -11.5t28 -4.5l60 -2v-6h-198v6l60 2q16 1 22.5 4.5t9.5 11.5l291 749h11zM217 338h322l-162 414zM635 -232q-39 0 -67.5 19.5t-28.5 54.5q0 21 16 44t38.5 44.5
t45.5 39.5t38 30h9q-17 -14 -40 -33t-43.5 -40t-35 -42.5t-14.5 -41.5q0 -31 24.5 -48t57.5 -17q29 0 52.5 9t38.5 20l5 -7q-18 -14 -43.5 -23t-52.5 -9z" />
    <glyph glyph-name="Cacute" unicode="&#x106;" horiz-adv-x="825" 
d="M475 -10q-87 0 -162.5 25.5t-131.5 75t-88.5 122t-32.5 166.5q0 93 32.5 165.5t89 122t133 75.5t164.5 26q70 0 135.5 -16t110.5 -54l44 -137h-7l-46 110q-7 16 -11 21.5t-13 13.5q-26 23 -84 37.5t-126 14.5q-81 0 -154.5 -23.5t-130 -71t-89.5 -119t-33 -166.5
q0 -93 31.5 -164t86.5 -118.5t128.5 -71.5t156.5 -24q34 0 66.5 4t61 11t51 16.5t35.5 20.5q9 8 13.5 13.5t11.5 21.5l53 119h7l-52 -146q-45 -38 -112.5 -54t-137.5 -16zM609 972h16v-1l-170 -138h-12z" />
    <glyph glyph-name="Ccaron" unicode="&#x10c;" horiz-adv-x="825" 
d="M475 -10q-87 0 -162.5 25.5t-131.5 75t-88.5 122t-32.5 166.5q0 93 32.5 165.5t89 122t133 75.5t164.5 26q70 0 135.5 -16t110.5 -54l44 -137h-7l-46 110q-7 16 -11 21.5t-13 13.5q-26 23 -84 37.5t-126 14.5q-81 0 -154.5 -23.5t-130 -71t-89.5 -119t-33 -166.5
q0 -93 31.5 -164t86.5 -118.5t128.5 -71.5t156.5 -24q34 0 66.5 4t61 11t51 16.5t35.5 20.5q9 8 13.5 13.5t11.5 21.5l53 119h7l-52 -146q-45 -38 -112.5 -54t-137.5 -16zM347 972l139 -124l139 124h9l-146 -139h-4l-146 139h9z" />
    <glyph glyph-name="Ccircumflex" unicode="&#x108;" horiz-adv-x="825" 
d="M475 -10q-87 0 -162.5 25.5t-131.5 75t-88.5 122t-32.5 166.5q0 93 32.5 165.5t89 122t133 75.5t164.5 26q70 0 135.5 -16t110.5 -54l44 -137h-7l-46 110q-7 16 -11 21.5t-13 13.5q-26 23 -84 37.5t-126 14.5q-81 0 -154.5 -23.5t-130 -71t-89.5 -119t-33 -166.5
q0 -93 31.5 -164t86.5 -118.5t128.5 -71.5t156.5 -24q34 0 66.5 4t61 11t51 16.5t35.5 20.5q9 8 13.5 13.5t11.5 21.5l53 119h7l-52 -146q-45 -38 -112.5 -54t-137.5 -16zM484 972h4l146 -139h-9l-139 124l-139 -124h-9z" />
    <glyph glyph-name="Cdotaccent" unicode="&#x10a;" horiz-adv-x="825" 
d="M475 -10q-87 0 -162.5 25.5t-131.5 75t-88.5 122t-32.5 166.5q0 93 32.5 165.5t89 122t133 75.5t164.5 26q70 0 135.5 -16t110.5 -54l44 -137h-7l-46 110q-7 16 -11 21.5t-13 13.5q-26 23 -84 37.5t-126 14.5q-81 0 -154.5 -23.5t-130 -71t-89.5 -119t-33 -166.5
q0 -93 31.5 -164t86.5 -118.5t128.5 -71.5t156.5 -24q34 0 66.5 4t61 11t51 16.5t35.5 20.5q9 8 13.5 13.5t11.5 21.5l53 119h7l-52 -146q-45 -38 -112.5 -54t-137.5 -16zM486 917q-8 0 -13.5 5.5t-5.5 13.5t5.5 13.5t13.5 5.5t13.5 -5.5t5.5 -13.5t-5.5 -13.5t-13.5 -5.5z
" />
    <glyph glyph-name="Dcaron" unicode="&#x10e;" horiz-adv-x="841" 
d="M67 6l60 2q32 2 32 16v710q0 14 -32 16l-60 2v6h244q90 0 174.5 -17.5t149.5 -60t104.5 -115t39.5 -183.5t-39.5 -184.5t-104.5 -117.5t-149.5 -62t-174.5 -18h-244v6zM311 11q96 0 179 20.5t143.5 64.5t95.5 114.5t35 171.5q0 100 -35 170t-95.5 113t-143.5 62.5
t-179 19.5h-139v-736h139zM253 972l139 -124l139 124h9l-146 -139h-4l-146 139h9z" />
    <glyph glyph-name="Dcroat" unicode="&#x110;" horiz-adv-x="851" 
d="M77 6l60 2q32 2 32 16v710q0 14 -32 16l-60 2v6h244q90 0 174.5 -17.5t149.5 -60t104.5 -115t39.5 -183.5t-39.5 -184.5t-104.5 -117.5t-149.5 -62t-174.5 -18h-244v6zM321 11q96 0 179 20.5t143.5 64.5t95.5 114.5t35 171.5q0 100 -35 170t-95.5 113t-143.5 62.5
t-179 19.5h-139v-736h139zM77 404h344v-11h-344v11z" />
    <glyph glyph-name="Ebreve" unicode="&#x114;" horiz-adv-x="702" 
d="M67 6l60 2q32 2 32 16v710q0 14 -32 16l-60 2v6h499l28 -147h-7l-33 124q-3 12 -16 12h-366v-343h227q20 0 24 2.5t5 13.5l6 97h7v-237h-7l-6 97q-1 11 -5 13.5t-24 2.5h-227v-382h420q10 0 14.5 2.5t8.5 10.5l58 129h7l-57 -153h-556v6zM365 833q-30 0 -56.5 8.5
t-47 26.5t-33.5 46.5t-17 68.5h13q8 -72 45.5 -106t95.5 -34t95.5 34t45.5 106h13q-4 -40 -17.5 -68.5t-33.5 -46.5t-46.5 -26.5t-56.5 -8.5z" />
    <glyph glyph-name="Ecaron" unicode="&#x11a;" horiz-adv-x="702" 
d="M67 6l60 2q32 2 32 16v710q0 14 -32 16l-60 2v6h499l28 -147h-7l-33 124q-3 12 -16 12h-366v-343h227q20 0 24 2.5t5 13.5l6 97h7v-237h-7l-6 97q-1 11 -5 13.5t-24 2.5h-227v-382h420q10 0 14.5 2.5t8.5 10.5l58 129h7l-57 -153h-556v6zM226 972l139 -124l139 124h9
l-146 -139h-4l-146 139h9z" />
    <glyph glyph-name="Emacron" unicode="&#x112;" horiz-adv-x="702" 
d="M67 6l60 2q32 2 32 16v710q0 14 -32 16l-60 2v6h499l28 -147h-7l-33 124q-3 12 -16 12h-366v-343h227q20 0 24 2.5t5 13.5l6 97h7v-237h-7l-6 97q-1 11 -5 13.5t-24 2.5h-227v-382h420q10 0 14.5 2.5t8.5 10.5l58 129h7l-57 -153h-556v6zM228 905h274v-9h-274v9z" />
    <glyph glyph-name="Eogonek" unicode="&#x118;" horiz-adv-x="702" 
d="M67 6l60 2q32 2 32 16v710q0 14 -32 16l-60 2v6h499l28 -147h-7l-33 124q-3 12 -16 12h-366v-343h227q20 0 24 2.5t5 13.5l6 97h7v-237h-7l-6 97q-1 11 -5 13.5t-24 2.5h-227v-382h420q10 0 14.5 2.5t8.5 10.5l58 129h7l-57 -153h-556v6zM572 -232q-39 0 -67.5 19.5
t-28.5 54.5q0 21 16 44t38.5 44.5t45.5 39.5t38 30h9q-17 -14 -40 -33t-43.5 -40t-35 -42.5t-14.5 -41.5q0 -31 24.5 -48t57.5 -17q29 0 52.5 9t38.5 20l5 -7q-18 -14 -43.5 -23t-52.5 -9z" />
    <glyph glyph-name="Edotaccent" unicode="&#x116;" horiz-adv-x="702" 
d="M67 6l60 2q32 2 32 16v710q0 14 -32 16l-60 2v6h499l28 -147h-7l-33 124q-3 12 -16 12h-366v-343h227q20 0 24 2.5t5 13.5l6 97h7v-237h-7l-6 97q-1 11 -5 13.5t-24 2.5h-227v-382h420q10 0 14.5 2.5t8.5 10.5l58 129h7l-57 -153h-556v6zM365 917q-8 0 -13.5 5.5
t-5.5 13.5t5.5 13.5t13.5 5.5t13.5 -5.5t5.5 -13.5t-5.5 -13.5t-13.5 -5.5z" />
    <glyph glyph-name="Gbreve" unicode="&#x11e;" horiz-adv-x="889" 
d="M475 -10q-87 0 -162.5 25.5t-131.5 75t-88.5 122t-32.5 166.5q0 93 32.5 165.5t89 122t133 75.5t164.5 26q70 0 135.5 -16t110.5 -54l44 -137h-7l-46 110q-7 16 -11 21.5t-13 13.5q-26 23 -84 37.5t-126 14.5q-81 0 -154.5 -23.5t-130 -71t-89.5 -118.5t-33 -166
q0 -93 31.5 -164t86.5 -119t128.5 -72t156.5 -24q70 0 144.5 16.5t133.5 57.5v248q0 16 -32 16l-210 1v9h347v-8l-92 -2v-201l1 -68q-32 -23 -68 -38t-74.5 -24t-77.5 -13t-75 -4zM478 833q-30 0 -56.5 8.5t-47 26.5t-33.5 46.5t-17 68.5h13q8 -72 45.5 -106t95.5 -34
t95.5 34t45.5 106h13q-4 -40 -17.5 -68.5t-33.5 -46.5t-46.5 -26.5t-56.5 -8.5z" />
    <glyph glyph-name="Gcircumflex" unicode="&#x11c;" horiz-adv-x="889" 
d="M475 -10q-87 0 -162.5 25.5t-131.5 75t-88.5 122t-32.5 166.5q0 93 32.5 165.5t89 122t133 75.5t164.5 26q70 0 135.5 -16t110.5 -54l44 -137h-7l-46 110q-7 16 -11 21.5t-13 13.5q-26 23 -84 37.5t-126 14.5q-81 0 -154.5 -23.5t-130 -71t-89.5 -118.5t-33 -166
q0 -93 31.5 -164t86.5 -119t128.5 -72t156.5 -24q70 0 144.5 16.5t133.5 57.5v248q0 16 -32 16l-210 1v9h347v-8l-92 -2v-201l1 -68q-32 -23 -68 -38t-74.5 -24t-77.5 -13t-75 -4zM476 972h4l146 -139h-9l-139 124l-139 -124h-9z" />
    <glyph glyph-name="uni0122" unicode="&#x122;" horiz-adv-x="889" 
d="M475 -10q-87 0 -162.5 25.5t-131.5 75t-88.5 122t-32.5 166.5q0 93 32.5 165.5t89 122t133 75.5t164.5 26q70 0 135.5 -16t110.5 -54l44 -137h-7l-46 110q-7 16 -11 21.5t-13 13.5q-26 23 -84 37.5t-126 14.5q-81 0 -154.5 -23.5t-130 -71t-89.5 -118.5t-33 -166
q0 -93 31.5 -164t86.5 -119t128.5 -72t156.5 -24q70 0 144.5 16.5t133.5 57.5v248q0 16 -32 16l-210 1v9h347v-8l-92 -2v-201l1 -68q-32 -23 -68 -38t-74.5 -24t-77.5 -13t-75 -4zM367 -283q50 51 69 91.5t19 66.5q0 29 -21 44q0 8 5.5 14t13.5 6q20 0 20 -31
q0 -15 -3 -35.5t-13.5 -45.5t-30 -54.5t-52.5 -62.5z" />
    <glyph glyph-name="Gdotaccent" unicode="&#x120;" horiz-adv-x="889" 
d="M475 -10q-87 0 -162.5 25.5t-131.5 75t-88.5 122t-32.5 166.5q0 93 32.5 165.5t89 122t133 75.5t164.5 26q70 0 135.5 -16t110.5 -54l44 -137h-7l-46 110q-7 16 -11 21.5t-13 13.5q-26 23 -84 37.5t-126 14.5q-81 0 -154.5 -23.5t-130 -71t-89.5 -118.5t-33 -166
q0 -93 31.5 -164t86.5 -119t128.5 -72t156.5 -24q70 0 144.5 16.5t133.5 57.5v248q0 16 -32 16l-210 1v9h347v-8l-92 -2v-201l1 -68q-32 -23 -68 -38t-74.5 -24t-77.5 -13t-75 -4zM478 917q-8 0 -13.5 5.5t-5.5 13.5t5.5 13.5t13.5 5.5t13.5 -5.5t5.5 -13.5t-5.5 -13.5
t-13.5 -5.5z" />
    <glyph glyph-name="Hbar" unicode="&#x126;" horiz-adv-x="881" 
d="M67 6l60 2q32 2 32 16v710q0 14 -32 16l-60 2v6h197v-6l-60 -2q-32 -2 -32 -16v-330h537v330q0 14 -32 16l-60 2v6h197v-6l-60 -2q-32 -2 -32 -16v-710q0 -14 32 -16l60 -2v-6h-197v6l60 2q32 2 32 16v369h-537v-369q0 -14 32 -16l60 -2v-6h-197v6zM67 582h747v-11h-747
v11z" />
    <glyph glyph-name="Hcircumflex" unicode="&#x124;" horiz-adv-x="881" 
d="M67 6l60 2q32 2 32 16v710q0 14 -32 16l-60 2v6h197v-6l-60 -2q-32 -2 -32 -16v-330h537v330q0 14 -32 16l-60 2v6h197v-6l-60 -2q-32 -2 -32 -16v-710q0 -14 32 -16l60 -2v-6h-197v6l60 2q32 2 32 16v369h-537v-369q0 -14 32 -16l60 -2v-6h-197v6zM438 972h4l146 -139
h-9l-139 124l-139 -124h-9z" />
    <glyph glyph-name="Ibreve" unicode="&#x12c;" horiz-adv-x="331" 
d="M67 6l60 2q32 2 32 16v710q0 14 -32 16l-60 2v6h197v-6l-60 -2q-32 -2 -32 -16v-710q0 -14 32 -16l60 -2v-6h-197v6zM166 833q-30 0 -56.5 8.5t-47 26.5t-33.5 46.5t-17 68.5h13q8 -72 45.5 -106t95.5 -34t95.5 34t45.5 106h13q-4 -40 -17.5 -68.5t-33.5 -46.5
t-46.5 -26.5t-56.5 -8.5z" />
    <glyph glyph-name="Idotaccent" unicode="&#x130;" horiz-adv-x="331" 
d="M67 6l60 2q32 2 32 16v710q0 14 -32 16l-60 2v6h197v-6l-60 -2q-32 -2 -32 -16v-710q0 -14 32 -16l60 -2v-6h-197v6zM166 917q-8 0 -13.5 5.5t-5.5 13.5t5.5 13.5t13.5 5.5t13.5 -5.5t5.5 -13.5t-5.5 -13.5t-13.5 -5.5z" />
    <glyph glyph-name="Imacron" unicode="&#x12a;" horiz-adv-x="331" 
d="M67 6l60 2q32 2 32 16v710q0 14 -32 16l-60 2v6h197v-6l-60 -2q-32 -2 -32 -16v-710q0 -14 32 -16l60 -2v-6h-197v6zM29 905h274v-9h-274v9z" />
    <glyph glyph-name="Iogonek" unicode="&#x12e;" horiz-adv-x="331" 
d="M67 6l60 2q32 2 32 16v710q0 14 -32 16l-60 2v6h197v-6l-60 -2q-32 -2 -32 -16v-710q0 -14 32 -16l60 -2v-6h-197v6zM163 -232q-39 0 -67.5 19.5t-28.5 54.5q0 21 16 44t38.5 44.5t45.5 39.5t38 30h9q-17 -14 -40 -33t-43.5 -40t-35 -42.5t-14.5 -41.5q0 -31 24.5 -48
t57.5 -17q29 0 52.5 9t38.5 20l5 -7q-18 -14 -43.5 -23t-52.5 -9z" />
    <glyph glyph-name="Itilde" unicode="&#x128;" horiz-adv-x="331" 
d="M67 6l60 2q32 2 32 16v710q0 14 -32 16l-60 2v6h197v-6l-60 -2q-32 -2 -32 -16v-710q0 -14 32 -16l60 -2v-6h-197v6zM251 861q-28 0 -49 13t-40 28.5t-38 28.5t-42 13q-55 0 -56 -72h-11q0 43 19.5 62.5t47.5 19.5q25 0 45 -13t39 -28.5t39 -28.5t46 -13q25 0 39.5 18
t15.5 54h11q0 -43 -20 -62.5t-46 -19.5z" />
    <glyph glyph-name="uni1ECA" unicode="&#x1eca;" horiz-adv-x="331" 
d="M67 6l60 2q32 2 32 16v710q0 14 -32 16l-60 2v6h197v-6l-60 -2q-32 -2 -32 -16v-710q0 -14 32 -16l60 -2v-6h-197v6zM166 -190q-8 0 -13.5 5.5t-5.5 13.5t5.5 13.5t13.5 5.5t13.5 -5.5t5.5 -13.5t-5.5 -13.5t-13.5 -5.5z" />
    <glyph glyph-name="Jcircumflex" unicode="&#x134;" horiz-adv-x="310" 
d="M3 -126q46 38 75.5 63.5t46 49.5t22.5 50.5t6 67.5v629q0 14 -32 16l-60 2v6h197v-6l-60 -2q-32 -2 -32 -16v-619q0 -41 -3.5 -67t-15 -48t-33 -43.5t-57.5 -52.5q-11 -9 -23 -18.5t-25 -19.5zM158 972h4l146 -139h-9l-139 124l-139 -124h-9z" />
    <glyph glyph-name="uni0136" unicode="&#x136;" horiz-adv-x="741" 
d="M67 6l60 2q32 2 32 16v710q0 14 -32 16l-60 2v6h197v-6l-60 -2q-32 -2 -32 -16v-344l417 347q8 7 0.5 9t-36.5 4l-49 2v6h212v-6l-53 -2q-25 -1 -37 -4t-26 -14l-408 -340l537 -392h-21l-536 390v-366q0 -14 32 -16l60 -2v-6h-197v6zM315 -283q50 51 69 91.5t19 66.5
q0 29 -21 44q0 8 5.5 14t13.5 6q20 0 20 -31q0 -15 -3 -35.5t-13.5 -45.5t-30 -54.5t-52.5 -62.5z" />
    <glyph glyph-name="Lacute" unicode="&#x139;" horiz-adv-x="664" 
d="M67 6l60 2q32 2 32 16v710q0 14 -32 16l-60 2v6h197v-6l-60 -2q-32 -2 -32 -16v-723h383q10 0 14.5 2.5t8.5 10.5l58 129h7l-57 -153h-519v6zM288 972h16v-1l-170 -138h-12z" />
    <glyph glyph-name="Lcaron" unicode="&#x13d;" horiz-adv-x="664" 
d="M67 6l60 2q32 2 32 16v710q0 14 -32 16l-60 2v6h197v-6l-60 -2q-32 -2 -32 -16v-723h383q10 0 14.5 2.5t8.5 10.5l58 129h7l-57 -153h-519v6zM330 545q50 51 69 91.5t19 66.5q0 29 -21 44q0 8 5.5 14t13.5 6q20 0 20 -31q0 -15 -3 -35.5t-13.5 -45.5t-30 -54.5
t-52.5 -62.5z" />
    <glyph glyph-name="uni013B" unicode="&#x13b;" horiz-adv-x="664" 
d="M67 6l60 2q32 2 32 16v710q0 14 -32 16l-60 2v6h197v-6l-60 -2q-32 -2 -32 -16v-723h383q10 0 14.5 2.5t8.5 10.5l58 129h7l-57 -153h-519v6zM264 -283q50 51 69 91.5t19 66.5q0 29 -21 44q0 8 5.5 14t13.5 6q20 0 20 -31q0 -15 -3 -35.5t-13.5 -45.5t-30 -54.5
t-52.5 -62.5z" />
    <glyph glyph-name="Ldot" unicode="&#x13f;" horiz-adv-x="664" 
d="M67 6l60 2q32 2 32 16v710q0 14 -32 16l-60 2v6h197v-6l-60 -2q-32 -2 -32 -16v-723h383q10 0 14.5 2.5t8.5 10.5l58 129h7l-57 -153h-519v6zM498 364q-8 0 -13.5 5.5t-5.5 13.5t5.5 13.5t13.5 5.5t13.5 -5.5t5.5 -13.5t-5.5 -13.5t-13.5 -5.5z" />
    <glyph glyph-name="glyph223" horiz-adv-x="664" 
d="M67 6l60 2q32 2 32 16v710q0 14 -32 16l-60 2v6h197v-6l-60 -2q-32 -2 -32 -16v-723h383q10 0 14.5 2.5t8.5 10.5l58 129h7l-57 -153h-519v6zM498 364q-8 0 -13.5 5.5t-5.5 13.5t5.5 13.5t13.5 5.5t13.5 -5.5t5.5 -13.5t-5.5 -13.5t-13.5 -5.5z" />
    <glyph glyph-name="Lslash" unicode="&#x141;" horiz-adv-x="664" 
d="M67 6l60 2q32 2 32 16v710q0 14 -32 16l-60 2v6h197v-6l-60 -2q-32 -2 -32 -16v-723h383q10 0 14.5 2.5t8.5 10.5l58 129h7l-57 -153h-519v6zM20 261l293 230v-15l-293 -230v15z" />
    <glyph glyph-name="Eng" unicode="&#x14a;" horiz-adv-x="868" 
d="M67 6l60 2q32 2 32 16v640l-76 93v1h14l615 -745v721q0 14 -32 16l-60 2v6h197v-6l-60 -2q-32 -2 -32 -16v-720q0 -53 -2.5 -88.5t-10.5 -60.5t-22.5 -43.5t-38.5 -38.5q-11 -10 -24 -20t-28 -21l-3 4q36 29 58.5 50t35.5 45.5t18 58t5 88.5v2l-541 659v-625
q0 -14 32 -16l60 -2v-6h-197v6z" />
    <glyph glyph-name="Nacute" unicode="&#x143;" horiz-adv-x="868" 
d="M67 6l60 2q32 2 32 16v640l-76 93v1h14l615 -745v721q0 14 -32 16l-60 2v6h197v-6l-60 -2q-32 -2 -32 -16v-756h-2l-551 671v-625q0 -14 32 -16l60 -2v-6h-197v6zM573 972h16v-1l-170 -138h-12z" />
    <glyph glyph-name="Ncaron" unicode="&#x147;" horiz-adv-x="868" 
d="M67 6l60 2q32 2 32 16v640l-76 93v1h14l615 -745v721q0 14 -32 16l-60 2v6h197v-6l-60 -2q-32 -2 -32 -16v-756h-2l-551 671v-625q0 -14 32 -16l60 -2v-6h-197v6zM311 972l139 -124l139 124h9l-146 -139h-4l-146 139h9z" />
    <glyph glyph-name="uni0145" unicode="&#x145;" horiz-adv-x="868" 
d="M67 6l60 2q32 2 32 16v640l-76 93v1h14l615 -745v721q0 14 -32 16l-60 2v6h197v-6l-60 -2q-32 -2 -32 -16v-756h-2l-551 671v-625q0 -14 32 -16l60 -2v-6h-197v6zM350 -283q50 51 69 91.5t19 66.5q0 29 -21 44q0 8 5.5 14t13.5 6q20 0 20 -31q0 -15 -3 -35.5t-13.5 -45.5
t-30 -54.5t-52.5 -62.5z" />
    <glyph glyph-name="OE" unicode="&#x152;" horiz-adv-x="1354" 
d="M1093 280h-7l-6 97q-1 11 -5 13.5t-24 2.5h-227v-382h420q10 0 14.5 2.5t8.5 10.5l58 129h7l-57 -153h-464v273q-15 -62 -48 -113.5t-80.5 -89.5t-108.5 -59t-132 -21q-86 0 -156.5 30.5t-120.5 83t-77.5 123.5t-27.5 152t27.5 152t77.5 123.5t120.5 83t156.5 30.5
q71 0 132 -21t108.5 -59t80.5 -90t48 -113v273h407l28 -147h-7l-33 124q-3 12 -16 12h-366v-343h227q20 0 24 2.5t5 13.5l6 97h7v-237zM809 379q0 89 -30.5 159.5t-81.5 119t-117 74.5t-138 26t-138 -26t-117 -74.5t-81.5 -119t-30.5 -159.5t30.5 -159.5t81.5 -119
t117 -74.5t138 -26t138 26t117 74.5t81.5 119t30.5 159.5z" />
    <glyph glyph-name="Obreve" unicode="&#x14e;" horiz-adv-x="884" 
d="M442 -10q-86 0 -156.5 30.5t-120.5 83t-77.5 123.5t-27.5 152t27.5 152t77.5 123.5t120.5 83t156.5 30.5t156.5 -30.5t120.5 -83t77.5 -123.5t27.5 -152t-27.5 -152t-77.5 -123.5t-120.5 -83t-156.5 -30.5zM442 0q72 0 138 26t117 74.5t81.5 119t30.5 159.5t-30.5 159.5
t-81.5 119t-117 74.5t-138 26t-138 -26t-117 -74.5t-81.5 -119t-30.5 -159.5t30.5 -159.5t81.5 -119t117 -74.5t138 -26zM442 833q-30 0 -56.5 8.5t-47 26.5t-33.5 46.5t-17 68.5h13q8 -72 45.5 -106t95.5 -34t95.5 34t45.5 106h13q-4 -40 -17.5 -68.5t-33.5 -46.5
t-46.5 -26.5t-56.5 -8.5z" />
    <glyph glyph-name="Ohungarumlaut" unicode="&#x150;" horiz-adv-x="884" 
d="M442 -10q-86 0 -156.5 30.5t-120.5 83t-77.5 123.5t-27.5 152t27.5 152t77.5 123.5t120.5 83t156.5 30.5t156.5 -30.5t120.5 -83t77.5 -123.5t27.5 -152t-27.5 -152t-77.5 -123.5t-120.5 -83t-156.5 -30.5zM442 0q72 0 138 26t117 74.5t81.5 119t30.5 159.5t-30.5 159.5
t-81.5 119t-117 74.5t-138 26t-138 -26t-117 -74.5t-81.5 -119t-30.5 -159.5t30.5 -159.5t81.5 -119t117 -74.5t138 -26zM483 972h16v-1l-170 -138h-12zM683 972h16v-1l-170 -138h-12z" />
    <glyph glyph-name="Omacron" unicode="&#x14c;" horiz-adv-x="884" 
d="M442 -10q-86 0 -156.5 30.5t-120.5 83t-77.5 123.5t-27.5 152t27.5 152t77.5 123.5t120.5 83t156.5 30.5t156.5 -30.5t120.5 -83t77.5 -123.5t27.5 -152t-27.5 -152t-77.5 -123.5t-120.5 -83t-156.5 -30.5zM442 0q72 0 138 26t117 74.5t81.5 119t30.5 159.5t-30.5 159.5
t-81.5 119t-117 74.5t-138 26t-138 -26t-117 -74.5t-81.5 -119t-30.5 -159.5t30.5 -159.5t81.5 -119t117 -74.5t138 -26zM305 905h274v-9h-274v9z" />
    <glyph glyph-name="uni1ECC" unicode="&#x1ecc;" horiz-adv-x="884" 
d="M442 -10q-86 0 -156.5 30.5t-120.5 83t-77.5 123.5t-27.5 152t27.5 152t77.5 123.5t120.5 83t156.5 30.5t156.5 -30.5t120.5 -83t77.5 -123.5t27.5 -152t-27.5 -152t-77.5 -123.5t-120.5 -83t-156.5 -30.5zM442 0q72 0 138 26t117 74.5t81.5 119t30.5 159.5t-30.5 159.5
t-81.5 119t-117 74.5t-138 26t-138 -26t-117 -74.5t-81.5 -119t-30.5 -159.5t30.5 -159.5t81.5 -119t117 -74.5t138 -26zM443 -190q-8 0 -13.5 5.5t-5.5 13.5t5.5 13.5t13.5 5.5t13.5 -5.5t5.5 -13.5t-5.5 -13.5t-13.5 -5.5z" />
    <glyph glyph-name="Racute" unicode="&#x154;" horiz-adv-x="715" 
d="M67 6l60 2q32 2 32 16v710q0 14 -32 16l-60 2v6h242q57 0 110 -6t94.5 -26t66 -57.5t24.5 -100.5q0 -60 -23 -97t-61 -57.5t-86 -27.5t-97 -8l386 -378h-20l-385 378h-146v-354q0 -14 32 -16l60 -2v-6h-197v6zM301 389q58 0 110 5.5t91.5 24.5t63 54.5t23.5 94.5
t-23.5 94.5t-63 54t-91.5 24.5t-110 6h-129v-358h129zM495 972h16v-1l-170 -138h-12z" />
    <glyph glyph-name="Rcaron" unicode="&#x158;" horiz-adv-x="715" 
d="M67 6l60 2q32 2 32 16v710q0 14 -32 16l-60 2v6h242q57 0 110 -6t94.5 -26t66 -57.5t24.5 -100.5q0 -60 -23 -97t-61 -57.5t-86 -27.5t-97 -8l386 -378h-20l-385 378h-146v-354q0 -14 32 -16l60 -2v-6h-197v6zM301 389q58 0 110 5.5t91.5 24.5t63 54.5t23.5 94.5
t-23.5 94.5t-63 54t-91.5 24.5t-110 6h-129v-358h129zM233 972l139 -124l139 124h9l-146 -139h-4l-146 139h9z" />
    <glyph glyph-name="uni0156" unicode="&#x156;" horiz-adv-x="715" 
d="M67 6l60 2q32 2 32 16v710q0 14 -32 16l-60 2v6h242q57 0 110 -6t94.5 -26t66 -57.5t24.5 -100.5q0 -60 -23 -97t-61 -57.5t-86 -27.5t-97 -8l386 -378h-20l-385 378h-146v-354q0 -14 32 -16l60 -2v-6h-197v6zM301 389q58 0 110 5.5t91.5 24.5t63 54.5t23.5 94.5
t-23.5 94.5t-63 54t-91.5 24.5t-110 6h-129v-358h129zM324 -283q50 51 69 91.5t19 66.5q0 29 -21 44q0 8 5.5 14t13.5 6q20 0 20 -31q0 -15 -3 -35.5t-13.5 -45.5t-30 -54.5t-52.5 -62.5z" />
    <glyph glyph-name="Sacute" unicode="&#x15a;" horiz-adv-x="625" 
d="M317 -10q-58 0 -113 12.5t-100 42.5l-44 153h7l46 -124q6 -16 10 -21.5t14 -11.5q19 -12 43 -20t48.5 -12.5t47.5 -6.5t41 -2q51 0 93 14t72 38.5t46.5 57.5t16.5 72q0 46 -17.5 79.5t-48 57.5t-71.5 41t-87 31l-52 16q-86 26 -134.5 71t-48.5 122q0 36 18 66.5t48.5 53
t71.5 35.5t87 13q57 0 104 -10t86 -36l43 -137h-7l-45 110q-7 16 -11 21.5t-13 10.5q-14 9 -33.5 15t-40.5 9.5t-42.5 5t-39.5 1.5q-43 0 -81.5 -12t-68 -33t-46.5 -50t-17 -63q0 -71 46 -113t129 -67l52 -16q50 -15 92.5 -34t74 -44.5t49 -59.5t17.5 -81q0 -39 -16 -74.5
t-47 -62.5t-76 -42.5t-103 -15.5zM439 972h16v-1l-170 -138h-12z" />
    <glyph glyph-name="Scaron" unicode="&#x160;" horiz-adv-x="625" 
d="M317 -10q-58 0 -113 12.5t-100 42.5l-44 153h7l46 -124q6 -16 10 -21.5t14 -11.5q19 -12 43 -20t48.5 -12.5t47.5 -6.5t41 -2q51 0 93 14t72 38.5t46.5 57.5t16.5 72q0 46 -17.5 79.5t-48 57.5t-71.5 41t-87 31l-52 16q-86 26 -134.5 71t-48.5 122q0 36 18 66.5t48.5 53
t71.5 35.5t87 13q57 0 104 -10t86 -36l43 -137h-7l-45 110q-7 16 -11 21.5t-13 10.5q-14 9 -33.5 15t-40.5 9.5t-42.5 5t-39.5 1.5q-43 0 -81.5 -12t-68 -33t-46.5 -50t-17 -63q0 -71 46 -113t129 -67l52 -16q50 -15 92.5 -34t74 -44.5t49 -59.5t17.5 -81q0 -39 -16 -74.5
t-47 -62.5t-76 -42.5t-103 -15.5zM177 972l139 -124l139 124h9l-146 -139h-4l-146 139h9z" />
    <glyph glyph-name="Scedilla" unicode="&#x15e;" horiz-adv-x="625" 
d="M317 -10q-58 0 -113 12.5t-100 42.5l-44 153h7l46 -124q6 -16 10 -21.5t14 -11.5q19 -12 43 -20t48.5 -12.5t47.5 -6.5t41 -2q51 0 93 14t72 38.5t46.5 57.5t16.5 72q0 46 -17.5 79.5t-48 57.5t-71.5 41t-87 31l-52 16q-86 26 -134.5 71t-48.5 122q0 36 18 66.5t48.5 53
t71.5 35.5t87 13q57 0 104 -10t86 -36l43 -137h-7l-45 110q-7 16 -11 21.5t-13 10.5q-14 9 -33.5 15t-40.5 9.5t-42.5 5t-39.5 1.5q-43 0 -81.5 -12t-68 -33t-46.5 -50t-17 -63q0 -71 46 -113t129 -67l52 -16q50 -15 92.5 -34t74 -44.5t49 -59.5t17.5 -81q0 -39 -16 -74.5
t-47 -62.5t-76 -42.5t-103 -15.5zM293 -246q-20 0 -36.5 5.5t-29 14.5t-19.5 20t-7 22q0 6 5 8t9 0q0 -16 7.5 -28t19 -19.5t25 -11t26.5 -3.5q32 0 54 14.5t22 40.5q0 13 -9.5 24.5t-25 22t-36.5 20t-44 20.5l99 96h15l-93 -91q48 -23 77.5 -42.5t29.5 -48.5t-25.5 -46.5
t-63.5 -17.5z" />
    <glyph glyph-name="Scircumflex" unicode="&#x15c;" horiz-adv-x="625" 
d="M317 -10q-58 0 -113 12.5t-100 42.5l-44 153h7l46 -124q6 -16 10 -21.5t14 -11.5q19 -12 43 -20t48.5 -12.5t47.5 -6.5t41 -2q51 0 93 14t72 38.5t46.5 57.5t16.5 72q0 46 -17.5 79.5t-48 57.5t-71.5 41t-87 31l-52 16q-86 26 -134.5 71t-48.5 122q0 36 18 66.5t48.5 53
t71.5 35.5t87 13q57 0 104 -10t86 -36l43 -137h-7l-45 110q-7 16 -11 21.5t-13 10.5q-14 9 -33.5 15t-40.5 9.5t-42.5 5t-39.5 1.5q-43 0 -81.5 -12t-68 -33t-46.5 -50t-17 -63q0 -71 46 -113t129 -67l52 -16q50 -15 92.5 -34t74 -44.5t49 -59.5t17.5 -81q0 -39 -16 -74.5
t-47 -62.5t-76 -42.5t-103 -15.5zM314 972h4l146 -139h-9l-139 124l-139 -124h-9z" />
    <glyph glyph-name="uni0218" unicode="&#x218;" horiz-adv-x="625" 
d="M317 -10q-58 0 -113 12.5t-100 42.5l-44 153h7l46 -124q6 -16 10 -21.5t14 -11.5q19 -12 43 -20t48.5 -12.5t47.5 -6.5t41 -2q51 0 93 14t72 38.5t46.5 57.5t16.5 72q0 46 -17.5 79.5t-48 57.5t-71.5 41t-87 31l-52 16q-86 26 -134.5 71t-48.5 122q0 36 18 66.5t48.5 53
t71.5 35.5t87 13q57 0 104 -10t86 -36l43 -137h-7l-45 110q-7 16 -11 21.5t-13 10.5q-14 9 -33.5 15t-40.5 9.5t-42.5 5t-39.5 1.5q-43 0 -81.5 -12t-68 -33t-46.5 -50t-17 -63q0 -71 46 -113t129 -67l52 -16q50 -15 92.5 -34t74 -44.5t49 -59.5t17.5 -81q0 -39 -16 -74.5
t-47 -62.5t-76 -42.5t-103 -15.5zM216 -283q50 51 69 91.5t19 66.5q0 29 -21 44q0 8 5.5 14t13.5 6q20 0 20 -31q0 -15 -3 -35.5t-13.5 -45.5t-30 -54.5t-52.5 -62.5z" />
    <glyph glyph-name="Tbar" unicode="&#x166;" horiz-adv-x="713" 
d="M258 6l60 2q32 2 32 16v723h-276q-13 0 -16 -12l-33 -154h-7l28 177h621l28 -177h-7l-33 154q-3 12 -16 12h-276v-723q0 -14 32 -16l60 -2v-6h-197v6zM129 404h456v-11h-456v11z" />
    <glyph glyph-name="Tcaron" unicode="&#x164;" horiz-adv-x="713" 
d="M258 6l60 2q32 2 32 16v723h-276q-13 0 -16 -12l-33 -154h-7l28 177h621l28 -177h-7l-33 154q-3 12 -16 12h-276v-723q0 -14 32 -16l60 -2v-6h-197v6zM217 972l139 -124l139 124h9l-146 -139h-4l-146 139h9z" />
    <glyph glyph-name="uni0162" unicode="&#x162;" horiz-adv-x="713" 
d="M258 6l60 2q32 2 32 16v723h-276q-13 0 -16 -12l-33 -154h-7l28 177h621l28 -177h-7l-33 154q-3 12 -16 12h-276v-723q0 -14 32 -16l60 -2v-6h-197v6zM267 -283q50 51 69 91.5t19 66.5q0 29 -21 44q0 8 5.5 14t13.5 6q20 0 20 -31q0 -15 -3 -35.5t-13.5 -45.5t-30 -54.5
t-52.5 -62.5z" />
    <glyph glyph-name="uni021A" unicode="&#x21a;" horiz-adv-x="713" 
d="M258 6l60 2q32 2 32 16v723h-276q-13 0 -16 -12l-33 -154h-7l28 177h621l28 -177h-7l-33 154q-3 12 -16 12h-276v-723q0 -14 32 -16l60 -2v-6h-197v6zM267 -283q50 51 69 91.5t19 66.5q0 29 -21 44q0 8 5.5 14t13.5 6q20 0 20 -31q0 -15 -3 -35.5t-13.5 -45.5t-30 -54.5
t-52.5 -62.5z" />
    <glyph glyph-name="Ubreve" unicode="&#x16c;" horiz-adv-x="858" 
d="M429 -10q-293 0 -293 308v436q0 14 -32 16l-60 2v6h197v-6l-60 -2q-32 -2 -32 -16v-436q0 -67 15 -122t48.5 -94t86.5 -60.5t130 -21.5q76 0 129.5 21.5t87 60.5t48.5 94t15 122v436q0 14 -32 16l-60 2v6h197v-6l-60 -2q-32 -2 -32 -16v-436q0 -308 -293 -308zM429 833
q-30 0 -56.5 8.5t-47 26.5t-33.5 46.5t-17 68.5h13q8 -72 45.5 -106t95.5 -34t95.5 34t45.5 106h13q-4 -40 -17.5 -68.5t-33.5 -46.5t-46.5 -26.5t-56.5 -8.5z" />
    <glyph glyph-name="Uhungarumlaut" unicode="&#x170;" horiz-adv-x="858" 
d="M429 -10q-293 0 -293 308v436q0 14 -32 16l-60 2v6h197v-6l-60 -2q-32 -2 -32 -16v-436q0 -67 15 -122t48.5 -94t86.5 -60.5t130 -21.5q76 0 129.5 21.5t87 60.5t48.5 94t15 122v436q0 14 -32 16l-60 2v6h197v-6l-60 -2q-32 -2 -32 -16v-436q0 -308 -293 -308zM470 972
h16v-1l-170 -138h-12zM670 972h16v-1l-170 -138h-12z" />
    <glyph glyph-name="Umacron" unicode="&#x16a;" horiz-adv-x="858" 
d="M429 -10q-293 0 -293 308v436q0 14 -32 16l-60 2v6h197v-6l-60 -2q-32 -2 -32 -16v-436q0 -67 15 -122t48.5 -94t86.5 -60.5t130 -21.5q76 0 129.5 21.5t87 60.5t48.5 94t15 122v436q0 14 -32 16l-60 2v6h197v-6l-60 -2q-32 -2 -32 -16v-436q0 -308 -293 -308zM292 905
h274v-9h-274v9z" />
    <glyph glyph-name="Uogonek" unicode="&#x172;" horiz-adv-x="858" 
d="M429 -10q-293 0 -293 308v436q0 14 -32 16l-60 2v6h197v-6l-60 -2q-32 -2 -32 -16v-436q0 -67 15 -122t48.5 -94t86.5 -60.5t130 -21.5q76 0 129.5 21.5t87 60.5t48.5 94t15 122v436q0 14 -32 16l-60 2v6h197v-6l-60 -2q-32 -2 -32 -16v-436q0 -262 -213 -301
q-17 -14 -39.5 -32.5t-42 -39t-33 -42t-13.5 -40.5q0 -31 24.5 -48t57.5 -17q29 0 52.5 9t38.5 20l5 -7q-18 -14 -43.5 -23t-52.5 -9q-39 0 -67.5 19.5t-28.5 54.5q0 20 14.5 42t35.5 43t43.5 39t38.5 30q-33 -6 -70 -6z" />
    <glyph glyph-name="Uring" unicode="&#x16e;" horiz-adv-x="858" 
d="M429 -10q-293 0 -293 308v436q0 14 -32 16l-60 2v6h197v-6l-60 -2q-32 -2 -32 -16v-436q0 -67 15 -122t48.5 -94t86.5 -60.5t130 -21.5q76 0 129.5 21.5t87 60.5t48.5 94t15 122v436q0 14 -32 16l-60 2v6h197v-6l-60 -2q-32 -2 -32 -16v-436q0 -308 -293 -308zM429 833
q-21 0 -39.5 7.5t-32.5 20.5t-22 31t-8 39t8 39t22 31t32.5 20.5t39.5 7.5t39.5 -7.5t32.5 -20.5t22 -31t8 -39t-8 -39t-22 -31t-32.5 -20.5t-39.5 -7.5zM429 843q38 0 64 25.5t26 62.5t-26 62.5t-64 25.5t-64 -25.5t-26 -62.5t26 -62.5t64 -25.5z" />
    <glyph glyph-name="Utilde" unicode="&#x168;" horiz-adv-x="858" 
d="M429 -10q-293 0 -293 308v436q0 14 -32 16l-60 2v6h197v-6l-60 -2q-32 -2 -32 -16v-436q0 -67 15 -122t48.5 -94t86.5 -60.5t130 -21.5q76 0 129.5 21.5t87 60.5t48.5 94t15 122v436q0 14 -32 16l-60 2v6h197v-6l-60 -2q-32 -2 -32 -16v-436q0 -308 -293 -308zM514 861
q-28 0 -49 13t-40 28.5t-38 28.5t-42 13q-55 0 -56 -72h-11q0 43 19.5 62.5t47.5 19.5q25 0 45 -13t39 -28.5t39 -28.5t46 -13q25 0 39.5 18t15.5 54h11q0 -43 -20 -62.5t-46 -19.5z" />
    <glyph glyph-name="uni1EE4" unicode="&#x1ee4;" horiz-adv-x="858" 
d="M429 -10q-293 0 -293 308v436q0 14 -32 16l-60 2v6h197v-6l-60 -2q-32 -2 -32 -16v-436q0 -67 15 -122t48.5 -94t86.5 -60.5t130 -21.5q76 0 129.5 21.5t87 60.5t48.5 94t15 122v436q0 14 -32 16l-60 2v6h197v-6l-60 -2q-32 -2 -32 -16v-436q0 -308 -293 -308zM429 -190
q-8 0 -13.5 5.5t-5.5 13.5t5.5 13.5t13.5 5.5t13.5 -5.5t5.5 -13.5t-5.5 -13.5t-13.5 -5.5z" />
    <glyph glyph-name="Wacute" unicode="&#x1e82;" horiz-adv-x="1188" 
d="M81 734q-3 8 -9.5 11.5t-22.5 4.5l-60 2v6h198v-6l-60 -2q-38 -1 -32 -16l294 -728l208 520l-84 232h166v-6l-110 -2q-38 0 -32 -16l263 -728l294 728q6 15 -32 16l-60 2v6h197v-6l-60 -2q-16 -1 -22.5 -4.5t-9.5 -11.5l-302 -749h-11l-191 524l-210 -524h-10zM717 972
h16v-1l-170 -138h-12z" />
    <glyph glyph-name="Wcircumflex" unicode="&#x174;" horiz-adv-x="1188" 
d="M81 734q-3 8 -9.5 11.5t-22.5 4.5l-60 2v6h198v-6l-60 -2q-38 -1 -32 -16l294 -728l208 520l-84 232h166v-6l-110 -2q-38 0 -32 -16l263 -728l294 728q6 15 -32 16l-60 2v6h197v-6l-60 -2q-16 -1 -22.5 -4.5t-9.5 -11.5l-302 -749h-11l-191 524l-210 -524h-10zM592 972h4
l146 -139h-9l-139 124l-139 -124h-9z" />
    <glyph glyph-name="Wdieresis" unicode="&#x1e84;" horiz-adv-x="1188" 
d="M81 734q-3 8 -9.5 11.5t-22.5 4.5l-60 2v6h198v-6l-60 -2q-38 -1 -32 -16l294 -728l208 520l-84 232h166v-6l-110 -2q-38 0 -32 -16l263 -728l294 728q6 15 -32 16l-60 2v6h197v-6l-60 -2q-16 -1 -22.5 -4.5t-9.5 -11.5l-302 -749h-11l-191 524l-210 -524h-10zM474 917
q-8 0 -13.5 5.5t-5.5 13.5t5.5 13.5t13.5 5.5t13.5 -5.5t5.5 -13.5t-5.5 -13.5t-13.5 -5.5zM714 917q-8 0 -13.5 5.5t-5.5 13.5t5.5 13.5t13.5 5.5t13.5 -5.5t5.5 -13.5t-5.5 -13.5t-13.5 -5.5z" />
    <glyph glyph-name="Wgrave" unicode="&#x1e80;" horiz-adv-x="1188" 
d="M81 734q-3 8 -9.5 11.5t-22.5 4.5l-60 2v6h198v-6l-60 -2q-38 -1 -32 -16l294 -728l208 520l-84 232h166v-6l-110 -2q-38 0 -32 -16l263 -728l294 728q6 15 -32 16l-60 2v6h197v-6l-60 -2q-16 -1 -22.5 -4.5t-9.5 -11.5l-302 -749h-11l-191 524l-210 -524h-10zM648 833
l-170 138v1h16l166 -139h-12z" />
    <glyph glyph-name="Ycircumflex" unicode="&#x176;" horiz-adv-x="769" 
d="M287 6l60 2q32 2 32 16v319l-290 391q-5 7 -10.5 11t-21.5 5l-60 2v6h199v-6l-60 -2q-20 -1 -28.5 -5t-3.5 -11l282 -380l281 380q5 7 -3.5 11t-28.5 5l-60 2v6h198v-6l-60 -2q-16 -1 -21.5 -5t-10.5 -11l-289 -391v-319q0 -14 32 -16l60 -2v-6h-197v6zM384 972h4
l146 -139h-9l-139 124l-139 -124h-9z" />
    <glyph glyph-name="Ydieresis" unicode="&#x178;" horiz-adv-x="769" 
d="M287 6l60 2q32 2 32 16v319l-290 391q-5 7 -10.5 11t-21.5 5l-60 2v6h199v-6l-60 -2q-20 -1 -28.5 -5t-3.5 -11l282 -380l281 380q5 7 -3.5 11t-28.5 5l-60 2v6h198v-6l-60 -2q-16 -1 -21.5 -5t-10.5 -11l-289 -391v-319q0 -14 32 -16l60 -2v-6h-197v6zM266 917
q-8 0 -13.5 5.5t-5.5 13.5t5.5 13.5t13.5 5.5t13.5 -5.5t5.5 -13.5t-5.5 -13.5t-13.5 -5.5zM506 917q-8 0 -13.5 5.5t-5.5 13.5t5.5 13.5t13.5 5.5t13.5 -5.5t5.5 -13.5t-5.5 -13.5t-13.5 -5.5z" />
    <glyph glyph-name="Ygrave" unicode="&#x1ef2;" horiz-adv-x="769" 
d="M287 6l60 2q32 2 32 16v319l-290 391q-5 7 -10.5 11t-21.5 5l-60 2v6h199v-6l-60 -2q-20 -1 -28.5 -5t-3.5 -11l282 -380l281 380q5 7 -3.5 11t-28.5 5l-60 2v6h198v-6l-60 -2q-16 -1 -21.5 -5t-10.5 -11l-289 -391v-319q0 -14 32 -16l60 -2v-6h-197v6zM440 833l-170 138
v1h16l166 -139h-12z" />
    <glyph glyph-name="uni0232" unicode="&#x232;" horiz-adv-x="769" 
d="M287 6l60 2q32 2 32 16v319l-290 391q-5 7 -10.5 11t-21.5 5l-60 2v6h199v-6l-60 -2q-20 -1 -28.5 -5t-3.5 -11l282 -380l281 380q5 7 -3.5 11t-28.5 5l-60 2v6h198v-6l-60 -2q-16 -1 -21.5 -5t-10.5 -11l-289 -391v-319q0 -14 32 -16l60 -2v-6h-197v6zM249 905h274v-9
h-274v9z" />
    <glyph glyph-name="Zacute" unicode="&#x179;" horiz-adv-x="718" 
d="M33 8l610 739h-500q-10 0 -14.5 -2.5t-8.5 -10.5l-58 -129h-7l57 153h549v-9l-609 -738h543q10 0 14.5 2.5t8.5 10.5l58 129h7l-57 -153h-593v8zM495 972h16v-1l-170 -138h-12z" />
    <glyph glyph-name="Zcaron" unicode="&#x17d;" horiz-adv-x="718" 
d="M33 8l610 739h-500q-10 0 -14.5 -2.5t-8.5 -10.5l-58 -129h-7l57 153h549v-9l-609 -738h543q10 0 14.5 2.5t8.5 10.5l58 129h7l-57 -153h-593v8zM233 972l139 -124l139 124h9l-146 -139h-4l-146 139h9z" />
    <glyph glyph-name="Zdotaccent" unicode="&#x17b;" horiz-adv-x="718" 
d="M33 8l610 739h-500q-10 0 -14.5 -2.5t-8.5 -10.5l-58 -129h-7l57 153h549v-9l-609 -738h543q10 0 14.5 2.5t8.5 10.5l58 129h7l-57 -153h-593v8zM372 917q-8 0 -13.5 5.5t-5.5 13.5t5.5 13.5t13.5 5.5t13.5 -5.5t5.5 -13.5t-5.5 -13.5t-13.5 -5.5z" />
    <glyph glyph-name="uni018F" unicode="&#x18f;" horiz-adv-x="833" 
d="M400 -9q-69 0 -126.5 20t-102 56.5t-74 87.5t-42.5 113h688q8 26 11 54t3 58q0 89 -28 159.5t-75.5 119t-111 74.5t-135.5 26q-69 0 -127.5 -19.5t-104 -57t-75.5 -91t-40 -120.5h-8q10 66 39 121t75 94.5t107.5 61t135.5 21.5q86 0 153.5 -30.5t114 -83t71 -123.5
t24.5 -152t-26 -152t-74 -123.5t-117 -83t-155 -30.5zM400 1q58 0 112 17t99 50t78.5 80.5t50.5 108.5h-669q15 -62 46.5 -109.5t74.5 -80t96 -49.5t112 -17z" />
    <glyph glyph-name="abreve" unicode="&#x103;" horiz-adv-x="532" 
d="M217 -10q-37 0 -67 11.5t-51.5 30t-33 43.5t-11.5 52q0 36 17.5 61t47 41.5t67.5 28t79 20.5q55 13 85.5 22.5t44.5 18.5t17 19.5t3 25.5q0 28 -8 53t-25.5 44t-46 30t-69.5 11q-42 0 -76 -13t-57.5 -35t-34.5 -51.5t-7 -61.5h-8q-5 0 -7 1t-2 8q0 35 17 68t49 56
q24 17 55.5 27.5t70.5 10.5q163 0 161 -159l-2 -342h81v-8l-93 -7v151q-9 -44 -28.5 -73.5t-45.5 -48.5t-57 -27t-65 -8zM219 0q36 0 71 11t62 35t43.5 62t17.5 92l2 118q-29 -17 -66 -28t-82 -22q-39 -9 -74.5 -19t-63 -26t-44 -39t-16.5 -57q0 -26 11 -49t30.5 -40
t47 -27.5t61.5 -10.5zM250 594q-30 0 -56.5 8.5t-47 26.5t-33.5 46.5t-17 68.5h13q8 -72 45.5 -106t95.5 -34t95.5 34t45.5 106h13q-4 -40 -17.5 -68.5t-33.5 -46.5t-46.5 -26.5t-56.5 -8.5z" />
    <glyph glyph-name="amacron" unicode="&#x101;" horiz-adv-x="532" 
d="M217 -10q-37 0 -67 11.5t-51.5 30t-33 43.5t-11.5 52q0 36 17.5 61t47 41.5t67.5 28t79 20.5q55 13 85.5 22.5t44.5 18.5t17 19.5t3 25.5q0 28 -8 53t-25.5 44t-46 30t-69.5 11q-42 0 -76 -13t-57.5 -35t-34.5 -51.5t-7 -61.5h-8q-5 0 -7 1t-2 8q0 35 17 68t49 56
q24 17 55.5 27.5t70.5 10.5q163 0 161 -159l-2 -342h81v-8l-93 -7v151q-9 -44 -28.5 -73.5t-45.5 -48.5t-57 -27t-65 -8zM219 0q36 0 71 11t62 35t43.5 62t17.5 92l2 118q-29 -17 -66 -28t-82 -22q-39 -9 -74.5 -19t-63 -26t-44 -39t-16.5 -57q0 -26 11 -49t30.5 -40
t47 -27.5t61.5 -10.5zM113 676h274v-9h-274v9z" />
    <glyph glyph-name="aogonek" unicode="&#x105;" horiz-adv-x="532" 
d="M217 -10q-37 0 -67 11.5t-51.5 30t-33 43.5t-11.5 52q0 36 17.5 61t47 41.5t67.5 28t79 20.5q55 13 85.5 22.5t44.5 18.5t17 19.5t3 25.5q0 28 -8 53t-25.5 44t-46 30t-69.5 11q-42 0 -76 -13t-57.5 -35t-34.5 -51.5t-7 -61.5h-8q-5 0 -7 1t-2 8q0 35 17 68t49 56
q24 17 55.5 27.5t70.5 10.5q163 0 161 -159l-2 -342h81v-8l-35 -3q-17 -14 -40 -32.5t-43.5 -39.5t-34.5 -42.5t-14 -41.5q0 -31 24.5 -48t57.5 -17q29 0 52.5 9t38.5 20l5 -7q-18 -14 -43.5 -23t-52.5 -9q-39 0 -67.5 19.5t-28.5 54.5q0 21 15.5 43.5t37.5 43.5t45 39.5
t38 30.5l-48 -4v151q-9 -44 -28.5 -73.5t-45.5 -48.5t-57 -27t-65 -8zM219 0q36 0 71 11t62 35t43.5 62t17.5 92l2 118q-29 -17 -66 -28t-82 -22q-39 -9 -74.5 -19t-63 -26t-44 -39t-16.5 -57q0 -26 11 -49t30.5 -40t47 -27.5t61.5 -10.5z" />
    <glyph glyph-name="cacute" unicode="&#x107;" horiz-adv-x="570" 
d="M302 -10q-53 0 -98 18.5t-78 53t-51.5 83t-18.5 108.5q0 62 21.5 110.5t56 81.5t79 50t90.5 17q53 0 91.5 -14t63 -33.5t36.5 -39t12 -31.5q0 -11 -11 -11h-4q-13 55 -63 87t-126 32q-43 0 -84.5 -16.5t-74 -48.5t-52.5 -78t-20 -106q0 -54 16.5 -100.5t47 -80
t73.5 -52.5t96 -19q32 0 66.5 8t65 27t54 50t34.5 77h7q-11 -49 -35.5 -82t-56 -53.5t-67.5 -29t-70 -8.5zM370 758h15v-1l-112 -178h-9z" />
    <glyph glyph-name="ccaron" unicode="&#x10d;" horiz-adv-x="570" 
d="M302 -10q-53 0 -98 18.5t-78 53t-51.5 83t-18.5 108.5q0 62 21.5 110.5t56 81.5t79 50t90.5 17q53 0 91.5 -14t63 -33.5t36.5 -39t12 -31.5q0 -11 -11 -11h-4q-13 55 -63 87t-126 32q-43 0 -84.5 -16.5t-74 -48.5t-52.5 -78t-20 -106q0 -54 16.5 -100.5t47 -80
t73.5 -52.5t96 -19q32 0 66.5 8t65 27t54 50t34.5 77h7q-11 -49 -35.5 -82t-56 -53.5t-67.5 -29t-70 -8.5zM154 768l149 -173l149 173h9l-156 -189h-4l-156 189h9z" />
    <glyph glyph-name="ccircumflex" unicode="&#x109;" horiz-adv-x="570" 
d="M302 -10q-53 0 -98 18.5t-78 53t-51.5 83t-18.5 108.5q0 62 21.5 110.5t56 81.5t79 50t90.5 17q53 0 91.5 -14t63 -33.5t36.5 -39t12 -31.5q0 -11 -11 -11h-4q-13 55 -63 87t-126 32q-43 0 -84.5 -16.5t-74 -48.5t-52.5 -78t-20 -106q0 -54 16.5 -100.5t47 -80
t73.5 -52.5t96 -19q32 0 66.5 8t65 27t54 50t34.5 77h7q-11 -49 -35.5 -82t-56 -53.5t-67.5 -29t-70 -8.5zM301 768h4l156 -189h-9l-149 173l-149 -173h-9z" />
    <glyph glyph-name="cdotaccent" unicode="&#x10b;" horiz-adv-x="570" 
d="M302 -10q-53 0 -98 18.5t-78 53t-51.5 83t-18.5 108.5q0 62 21.5 110.5t56 81.5t79 50t90.5 17q53 0 91.5 -14t63 -33.5t36.5 -39t12 -31.5q0 -11 -11 -11h-4q-13 55 -63 87t-126 32q-43 0 -84.5 -16.5t-74 -48.5t-52.5 -78t-20 -106q0 -54 16.5 -100.5t47 -80
t73.5 -52.5t96 -19q32 0 66.5 8t65 27t54 50t34.5 77h7q-11 -49 -35.5 -82t-56 -53.5t-67.5 -29t-70 -8.5zM303 690q-8 0 -13.5 5.5t-5.5 13.5t5.5 13.5t13.5 5.5t13.5 -5.5t5.5 -13.5t-5.5 -13.5t-13.5 -5.5z" />
    <glyph glyph-name="dcaron" unicode="&#x10f;" horiz-adv-x="648" 
d="M304 -10q-57 0 -103 20t-78.5 55.5t-50 83t-17.5 102.5t17.5 102.5t50 82.5t78.5 55.5t103 20.5q54 0 103 -24.5t75 -65.5v321l-92 9v6h104v-748h82v-6l-94 -9v85q-26 -42 -75.5 -66t-102.5 -24zM70 251q0 -52 16.5 -97.5t46.5 -79.5t73.5 -54t97.5 -20q43 0 91.5 18.5
t86.5 66.5v332q-38 48 -86.5 66.5t-91.5 18.5q-54 0 -97.5 -20t-73.5 -54t-46.5 -79.5t-16.5 -97.5zM587 545q50 51 69 91.5t19 66.5q0 29 -21 44q0 8 5.5 14t13.5 6q20 0 20 -31q0 -15 -3 -35.5t-13.5 -45.5t-30 -54.5t-52.5 -62.5z" />
    <glyph glyph-name="dcroat" unicode="&#x111;" horiz-adv-x="608" 
d="M304 -10q-57 0 -103 20t-78.5 55.5t-50 83t-17.5 102.5t17.5 102.5t50 82.5t78.5 55.5t103 20.5q54 0 103 -24.5t75 -65.5v321l-92 9v6h104v-748h82v-6l-94 -9v85q-26 -42 -75.5 -66t-102.5 -24zM70 251q0 -52 16.5 -97.5t46.5 -79.5t73.5 -54t97.5 -20q43 0 91.5 18.5
t86.5 66.5v332q-38 48 -86.5 66.5t-91.5 18.5q-54 0 -97.5 -20t-73.5 -54t-46.5 -79.5t-16.5 -97.5zM329 636h247v-11h-247v11z" />
    <glyph glyph-name="ebreve" unicode="&#x115;" horiz-adv-x="580" 
d="M302 -10q-53 0 -98 18.5t-78 53t-51.5 83t-18.5 108.5q0 62 20.5 110.5t54.5 81.5t76.5 50t87.5 17q90 0 153 -54t78 -156h-451q-2 -11 -3 -23.5t-1 -25.5q0 -54 16.5 -100.5t47 -80t73.5 -52.5t96 -19q32 0 66.5 8t65 27t54 50t34.5 77h7q-11 -49 -35.5 -82t-56 -53.5
t-67.5 -29t-70 -8.5zM294 502q-36 0 -71.5 -12.5t-65 -36.5t-51 -59.5t-30.5 -81.5h432q-5 43 -22.5 78t-45.5 60t-65 38.5t-81 13.5zM302 594q-30 0 -56.5 8.5t-47 26.5t-33.5 46.5t-17 68.5h13q8 -72 45.5 -106t95.5 -34t95.5 34t45.5 106h13q-4 -40 -17.5 -68.5
t-33.5 -46.5t-46.5 -26.5t-56.5 -8.5z" />
    <glyph glyph-name="ecaron" unicode="&#x11b;" horiz-adv-x="580" 
d="M302 -10q-53 0 -98 18.5t-78 53t-51.5 83t-18.5 108.5q0 62 20.5 110.5t54.5 81.5t76.5 50t87.5 17q90 0 153 -54t78 -156h-451q-2 -11 -3 -23.5t-1 -25.5q0 -54 16.5 -100.5t47 -80t73.5 -52.5t96 -19q32 0 66.5 8t65 27t54 50t34.5 77h7q-11 -49 -35.5 -82t-56 -53.5
t-67.5 -29t-70 -8.5zM294 502q-36 0 -71.5 -12.5t-65 -36.5t-51 -59.5t-30.5 -81.5h432q-5 43 -22.5 78t-45.5 60t-65 38.5t-81 13.5zM153 768l149 -173l149 173h9l-156 -189h-4l-156 189h9z" />
    <glyph glyph-name="emacron" unicode="&#x113;" horiz-adv-x="580" 
d="M302 -10q-53 0 -98 18.5t-78 53t-51.5 83t-18.5 108.5q0 62 20.5 110.5t54.5 81.5t76.5 50t87.5 17q90 0 153 -54t78 -156h-451q-2 -11 -3 -23.5t-1 -25.5q0 -54 16.5 -100.5t47 -80t73.5 -52.5t96 -19q32 0 66.5 8t65 27t54 50t34.5 77h7q-11 -49 -35.5 -82t-56 -53.5
t-67.5 -29t-70 -8.5zM294 502q-36 0 -71.5 -12.5t-65 -36.5t-51 -59.5t-30.5 -81.5h432q-5 43 -22.5 78t-45.5 60t-65 38.5t-81 13.5zM165 676h274v-9h-274v9z" />
    <glyph glyph-name="eogonek" unicode="&#x119;" horiz-adv-x="580" 
d="M400 -200q-18 -14 -43.5 -23t-52.5 -9q-39 0 -67.5 19.5t-28.5 54.5q0 21 13.5 42t35.5 41t49.5 38t55.5 33q-11 -2 -27.5 -4t-32.5 -2q-53 0 -98 18.5t-78 53t-51.5 83t-18.5 108.5q0 62 20.5 110.5t54.5 81.5t76.5 50t87.5 17q90 0 153 -54t78 -156h-451
q-2 -11 -3 -23.5t-1 -25.5q0 -54 16.5 -100.5t47 -80t73.5 -52.5t96 -19q32 0 66.5 8t65 27t54 50t34.5 77h7q-9 -41 -26 -68.5t-38 -46t-44 -30l-43 -21.5q-23 -11 -50.5 -27.5t-51.5 -37t-40 -43.5t-16 -46q0 -31 24.5 -48t57.5 -17q29 0 52.5 9t38.5 20zM294 502
q-36 0 -71.5 -12.5t-65 -36.5t-51 -59.5t-30.5 -81.5h432q-5 43 -22.5 78t-45.5 60t-65 38.5t-81 13.5z" />
    <glyph glyph-name="edotaccent" unicode="&#x117;" horiz-adv-x="580" 
d="M302 -10q-53 0 -98 18.5t-78 53t-51.5 83t-18.5 108.5q0 62 20.5 110.5t54.5 81.5t76.5 50t87.5 17q90 0 153 -54t78 -156h-451q-2 -11 -3 -23.5t-1 -25.5q0 -54 16.5 -100.5t47 -80t73.5 -52.5t96 -19q32 0 66.5 8t65 27t54 50t34.5 77h7q-11 -49 -35.5 -82t-56 -53.5
t-67.5 -29t-70 -8.5zM294 502q-36 0 -71.5 -12.5t-65 -36.5t-51 -59.5t-30.5 -81.5h432q-5 43 -22.5 78t-45.5 60t-65 38.5t-81 13.5zM302 690q-8 0 -13.5 5.5t-5.5 13.5t5.5 13.5t13.5 5.5t13.5 -5.5t5.5 -13.5t-5.5 -13.5t-13.5 -5.5z" />
    <glyph glyph-name="gbreve" unicode="&#x11f;" horiz-adv-x="527" 
d="M249 156q-33 0 -64 11l-112 -117l224 -22q46 -5 85.5 -11t68.5 -18t45.5 -33t16.5 -55q0 -38 -23 -69t-61 -53.5t-87 -34.5t-101 -12q-45 0 -84 9t-67.5 26t-44.5 41t-16 55q0 33 19.5 60t49.5 47t66.5 31t71.5 11q-26 2 -53 5t-51 6.5t-43.5 7t-30.5 7.5l117 123
q-47 20 -77 62t-30 101q0 40 15 73t39.5 56t57.5 36t69 13t69 -13t57.5 -36t39.5 -56t15 -73t-15 -73t-39.5 -56t-57.5 -36t-69 -13zM346 502h171l-10 -10h-171zM249 166q35 0 65 12t52.5 34t35.5 53t13 69t-13 69t-35.5 53t-52.5 34t-65 12t-65 -12t-52.5 -34t-35.5 -53
t-13 -69t13 -69t35.5 -53t52.5 -34t65 -12zM242 -248q53 0 100 12.5t81.5 34t54.5 50t20 60.5q0 30 -15.5 49t-42.5 30.5t-64 17.5t-81 10q-53 5 -99 -5t-80 -30t-53 -48t-19 -59q0 -29 15 -52t41 -38.5t62.5 -23.5t79.5 -8zM259 594q-30 0 -56.5 8.5t-47 26.5t-33.5 46.5
t-17 68.5h13q8 -72 45.5 -106t95.5 -34t95.5 34t45.5 106h13q-4 -40 -17.5 -68.5t-33.5 -46.5t-46.5 -26.5t-56.5 -8.5z" />
    <glyph glyph-name="gcircumflex" unicode="&#x11d;" horiz-adv-x="527" 
d="M249 156q-33 0 -64 11l-112 -117l224 -22q46 -5 85.5 -11t68.5 -18t45.5 -33t16.5 -55q0 -38 -23 -69t-61 -53.5t-87 -34.5t-101 -12q-45 0 -84 9t-67.5 26t-44.5 41t-16 55q0 33 19.5 60t49.5 47t66.5 31t71.5 11q-26 2 -53 5t-51 6.5t-43.5 7t-30.5 7.5l117 123
q-47 20 -77 62t-30 101q0 40 15 73t39.5 56t57.5 36t69 13t69 -13t57.5 -36t39.5 -56t15 -73t-15 -73t-39.5 -56t-57.5 -36t-69 -13zM346 502h171l-10 -10h-171zM249 166q35 0 65 12t52.5 34t35.5 53t13 69t-13 69t-35.5 53t-52.5 34t-65 12t-65 -12t-52.5 -34t-35.5 -53
t-13 -69t13 -69t35.5 -53t52.5 -34t65 -12zM242 -248q53 0 100 12.5t81.5 34t54.5 50t20 60.5q0 30 -15.5 49t-42.5 30.5t-64 17.5t-81 10q-53 5 -99 -5t-80 -30t-53 -48t-19 -59q0 -29 15 -52t41 -38.5t62.5 -23.5t79.5 -8zM257 768h4l156 -189h-9l-149 173l-149 -173h-9z
" />
    <glyph glyph-name="uni0123" unicode="&#x123;" horiz-adv-x="527" 
d="M249 156q-33 0 -64 11l-112 -117l224 -22q46 -5 85.5 -11t68.5 -18t45.5 -33t16.5 -55q0 -38 -23 -69t-61 -53.5t-87 -34.5t-101 -12q-45 0 -84 9t-67.5 26t-44.5 41t-16 55q0 33 19.5 60t49.5 47t66.5 31t71.5 11q-26 2 -53 5t-51 6.5t-43.5 7t-30.5 7.5l117 123
q-47 20 -77 62t-30 101q0 40 15 73t39.5 56t57.5 36t69 13t69 -13t57.5 -36t39.5 -56t15 -73t-15 -73t-39.5 -56t-57.5 -36t-69 -13zM346 502h171l-10 -10h-171zM249 166q35 0 65 12t52.5 34t35.5 53t13 69t-13 69t-35.5 53t-52.5 34t-65 12t-65 -12t-52.5 -34t-35.5 -53
t-13 -69t13 -69t35.5 -53t52.5 -34t65 -12zM242 -248q53 0 100 12.5t81.5 34t54.5 50t20 60.5q0 30 -15.5 49t-42.5 30.5t-64 17.5t-81 10q-53 5 -99 -5t-80 -30t-53 -48t-19 -59q0 -29 15 -52t41 -38.5t62.5 -23.5t79.5 -8zM320 790q-50 -51 -69 -91.5t-19 -66.5
q0 -29 21 -44q0 -8 -5.5 -14t-13.5 -6q-20 0 -20 31q0 15 3 35.5t13.5 45.5t30 54.5t52.5 62.5z" />
    <glyph glyph-name="gdotaccent" unicode="&#x121;" horiz-adv-x="527" 
d="M249 156q-33 0 -64 11l-112 -117l224 -22q46 -5 85.5 -11t68.5 -18t45.5 -33t16.5 -55q0 -38 -23 -69t-61 -53.5t-87 -34.5t-101 -12q-45 0 -84 9t-67.5 26t-44.5 41t-16 55q0 33 19.5 60t49.5 47t66.5 31t71.5 11q-26 2 -53 5t-51 6.5t-43.5 7t-30.5 7.5l117 123
q-47 20 -77 62t-30 101q0 40 15 73t39.5 56t57.5 36t69 13t69 -13t57.5 -36t39.5 -56t15 -73t-15 -73t-39.5 -56t-57.5 -36t-69 -13zM346 502h171l-10 -10h-171zM249 166q35 0 65 12t52.5 34t35.5 53t13 69t-13 69t-35.5 53t-52.5 34t-65 12t-65 -12t-52.5 -34t-35.5 -53
t-13 -69t13 -69t35.5 -53t52.5 -34t65 -12zM242 -248q53 0 100 12.5t81.5 34t54.5 50t20 60.5q0 30 -15.5 49t-42.5 30.5t-64 17.5t-81 10q-53 5 -99 -5t-80 -30t-53 -48t-19 -59q0 -29 15 -52t41 -38.5t62.5 -23.5t79.5 -8zM259 690q-8 0 -13.5 5.5t-5.5 13.5t5.5 13.5
t13.5 5.5t13.5 -5.5t5.5 -13.5t-5.5 -13.5t-13.5 -5.5z" />
    <glyph glyph-name="hbar" unicode="&#x127;" horiz-adv-x="599" 
d="M33 6l50 2q32 2 32 16v719l-82 9v6h94v-412q7 46 25.5 77.5t44 51t56 28.5t62.5 9q94 0 133.5 -53.5t39.5 -164.5v-270q0 -14 32 -16l50 -2v-6h-176v6l50 2q32 2 32 16v268q0 109 -39 159.5t-126 50.5q-39 0 -72.5 -14t-58.5 -40.5t-39 -65.5t-14 -90v-268q0 -14 32 -16
l50 -2v-6h-176v6zM33 636h247v-11h-247v11z" />
    <glyph glyph-name="hcircumflex" unicode="&#x125;" horiz-adv-x="599" 
d="M33 6l50 2q32 2 32 16v719l-82 9v6h94v-412q7 46 25.5 77.5t44 51t56 28.5t62.5 9q94 0 133.5 -53.5t39.5 -164.5v-270q0 -14 32 -16l50 -2v-6h-176v6l50 2q32 2 32 16v268q0 109 -39 159.5t-126 50.5q-39 0 -72.5 -14t-58.5 -40.5t-39 -65.5t-14 -90v-268q0 -14 32 -16
l50 -2v-6h-176v6zM101 1014h4l146 -139h-9l-139 124l-139 -124h-9z" />
    <glyph glyph-name="dotlessi" unicode="&#x131;" horiz-adv-x="255" 
d="M42 6l50 2q32 2 32 16v463l-82 9v6h94v-478q0 -14 32 -16l50 -2v-6h-176v6z" />
    <glyph glyph-name="ibreve" unicode="&#x12d;" horiz-adv-x="255" 
d="M42 6l50 2q32 2 32 16v463l-82 9v6h94v-478q0 -14 32 -16l50 -2v-6h-176v6zM116 594q-30 0 -56.5 8.5t-47 26.5t-33.5 46.5t-17 68.5h13q8 -72 45.5 -106t95.5 -34t95.5 34t45.5 106h13q-4 -40 -17.5 -68.5t-33.5 -46.5t-46.5 -26.5t-56.5 -8.5z" />
    <glyph glyph-name="imacron" unicode="&#x12b;" horiz-adv-x="255" 
d="M42 6l50 2q32 2 32 16v463l-82 9v6h94v-478q0 -14 32 -16l50 -2v-6h-176v6zM-21 676h274v-9h-274v9z" />
    <glyph glyph-name="iogonek" unicode="&#x12f;" horiz-adv-x="255" 
d="M42 6l50 2q32 2 32 16v463l-82 9v6h94v-478q0 -14 32 -16l50 -2v-6h-176v6zM111 739q0 8 5.5 13.5t13.5 5.5t13.5 -5.5t5.5 -13.5t-5.5 -13.5t-13.5 -5.5t-13.5 5.5t-5.5 13.5zM124 -232q-39 0 -67.5 19.5t-28.5 54.5q0 21 16 44t38.5 44.5t45.5 39.5t38 30h9
q-17 -14 -40 -33t-43.5 -40t-35 -42.5t-14.5 -41.5q0 -31 24.5 -48t57.5 -17q29 0 52.5 9t38.5 20l5 -7q-18 -14 -43.5 -23t-52.5 -9z" />
    <glyph glyph-name="itilde" unicode="&#x129;" horiz-adv-x="255" 
d="M42 6l50 2q32 2 32 16v463l-82 9v6h94v-478q0 -14 32 -16l50 -2v-6h-176v6zM201 631q-28 0 -49 13t-40 28.5t-38 28.5t-42 13q-55 0 -56 -72h-11q0 43 19.5 62.5t47.5 19.5q25 0 45 -13t39 -28.5t39 -28.5t46 -13q25 0 39.5 18t15.5 54h11q0 -43 -20 -62.5t-46 -19.5z
" />
    <glyph glyph-name="uni1ECB" unicode="&#x1ecb;" horiz-adv-x="255" 
d="M42 6l50 2q32 2 32 16v463l-82 9v6h94v-478q0 -14 32 -16l50 -2v-6h-176v6zM111 739q0 8 5.5 13.5t13.5 5.5t13.5 -5.5t5.5 -13.5t-5.5 -13.5t-13.5 -5.5t-13.5 5.5t-5.5 13.5zM130 -190q-8 0 -13.5 5.5t-5.5 13.5t5.5 13.5t13.5 5.5t13.5 -5.5t5.5 -13.5t-5.5 -13.5
t-13.5 -5.5z" />
    <glyph glyph-name="uni0237" unicode="&#x237;" horiz-adv-x="231" 
d="M-2 -254q37 30 60 52t36 48.5t17 65t4 102.5v473l-82 9v6h94v-488q0 -53 -2.5 -88.5t-10.5 -60.5t-22.5 -43.5t-38.5 -38.5q-11 -10 -24 -20t-28 -21z" />
    <glyph glyph-name="jcircumflex" unicode="&#x135;" horiz-adv-x="231" 
d="M-2 -254q37 30 60 52t36 48.5t17 65t4 102.5v473l-82 9v6h94v-488q0 -53 -2.5 -88.5t-10.5 -60.5t-22.5 -43.5t-38.5 -38.5q-11 -10 -24 -20t-28 -21zM105 768h4l156 -189h-9l-149 173l-149 -173h-9z" />
    <glyph glyph-name="uni0137" unicode="&#x137;" horiz-adv-x="523" 
d="M33 6l50 2q32 2 32 16v719l-82 9v6h94v-477l265 198q8 6 6 10.5t-28 5.5l-32 1v6h159v-6l-44 -2q-14 -1 -23 -3.5t-20 -10.5l-269 -201l370 -279h-20l-364 276v-252q0 -14 32 -16l50 -2v-6h-176v6zM209 -283q50 51 69 91.5t19 66.5q0 29 -21 44q0 8 5.5 14t13.5 6
q20 0 20 -31q0 -15 -3 -35.5t-13.5 -45.5t-30 -54.5t-52.5 -62.5z" />
    <glyph glyph-name="lacute" unicode="&#x13a;" horiz-adv-x="250" 
d="M37 6l50 2q32 2 32 16v719l-82 9v6h94v-734q0 -14 32 -16l50 -2v-6h-176v6zM188 1014h15v-1l-112 -178h-9z" />
    <glyph glyph-name="lcaron" unicode="&#x13e;" horiz-adv-x="290" 
d="M37 6l50 2q32 2 32 16v719l-82 9v6h94v-734q0 -14 32 -16l50 -2v-6h-176v6zM244 545q50 51 69 91.5t19 66.5q0 29 -21 44q0 8 5.5 14t13.5 6q20 0 20 -31q0 -15 -3 -35.5t-13.5 -45.5t-30 -54.5t-52.5 -62.5z" />
    <glyph glyph-name="uni013C" unicode="&#x13c;" horiz-adv-x="250" 
d="M37 6l50 2q32 2 32 16v719l-82 9v6h94v-734q0 -14 32 -16l50 -2v-6h-176v6zM36 -283q50 51 69 91.5t19 66.5q0 29 -21 44q0 8 5.5 14t13.5 6q20 0 20 -31q0 -15 -3 -35.5t-13.5 -45.5t-30 -54.5t-52.5 -62.5z" />
    <glyph glyph-name="ldot" unicode="&#x140;" horiz-adv-x="294" 
d="M37 6l50 2q32 2 32 16v719l-82 9v6h94v-734q0 -14 32 -16l50 -2v-6h-176v6zM273 377q-8 0 -13.5 5.5t-5.5 13.5t5.5 13.5t13.5 5.5t13.5 -5.5t5.5 -13.5t-5.5 -13.5t-13.5 -5.5z" />
    <glyph glyph-name="glyph298" horiz-adv-x="294" 
d="M37 6l50 2q32 2 32 16v719l-82 9v6h94v-734q0 -14 32 -16l50 -2v-6h-176v6zM273 377q-8 0 -13.5 5.5t-5.5 13.5t5.5 13.5t13.5 5.5t13.5 -5.5t5.5 -13.5t-5.5 -13.5t-13.5 -5.5z" />
    <glyph glyph-name="lslash" unicode="&#x142;" horiz-adv-x="290" 
d="M57 6l50 2q32 2 32 16v719l-82 9v6h94v-734q0 -14 32 -16l50 -2v-6h-176v6zM40 320l210 155v-13l-210 -155v13z" />
    <glyph glyph-name="eng" unicode="&#x14b;" horiz-adv-x="587" 
d="M320 512q94 0 133.5 -53.5t39.5 -164.5v-280q0 -53 -2.5 -88.5t-10.5 -60.5t-22.5 -43.5t-38.5 -38.5q-11 -10 -24 -20t-28 -21l-3 4q37 30 60 52t36 48.5t17 65t4 102.5v278q0 109 -39 159.5t-126 50.5q-39 0 -72.5 -14t-58.5 -40.5t-39 -65.5t-14 -90v-268
q0 -14 32 -16l50 -2v-6h-176v6l50 2q32 2 32 16v463l-82 9v6h94v-156q7 46 25.5 77.5t44 51t56 28.5t62.5 9z" />
    <glyph glyph-name="nacute" unicode="&#x144;" horiz-adv-x="604" 
d="M38 6l50 2q32 2 32 16v463l-82 9v6h94v-156q7 46 25.5 77.5t44 51t56 28.5t62.5 9q94 0 133.5 -53.5t39.5 -164.5v-270q0 -14 32 -16l50 -2v-6h-176v6l50 2q32 2 32 16v268q0 109 -39 159.5t-126 50.5q-39 0 -72.5 -14t-58.5 -40.5t-39 -65.5t-14 -90v-268q0 -14 32 -16
l50 -2v-6h-176v6zM375 758h15v-1l-112 -178h-9z" />
    <glyph glyph-name="ncaron" unicode="&#x148;" horiz-adv-x="604" 
d="M38 6l50 2q32 2 32 16v463l-82 9v6h94v-156q7 46 25.5 77.5t44 51t56 28.5t62.5 9q94 0 133.5 -53.5t39.5 -164.5v-270q0 -14 32 -16l50 -2v-6h-176v6l50 2q32 2 32 16v268q0 109 -39 159.5t-126 50.5q-39 0 -72.5 -14t-58.5 -40.5t-39 -65.5t-14 -90v-268q0 -14 32 -16
l50 -2v-6h-176v6zM159 768l149 -173l149 173h9l-156 -189h-4l-156 189h9z" />
    <glyph glyph-name="uni0146" unicode="&#x146;" horiz-adv-x="604" 
d="M38 6l50 2q32 2 32 16v463l-82 9v6h94v-156q7 46 25.5 77.5t44 51t56 28.5t62.5 9q94 0 133.5 -53.5t39.5 -164.5v-270q0 -14 32 -16l50 -2v-6h-176v6l50 2q32 2 32 16v268q0 109 -39 159.5t-126 50.5q-39 0 -72.5 -14t-58.5 -40.5t-39 -65.5t-14 -90v-268q0 -14 32 -16
l50 -2v-6h-176v6zM204 -283q50 51 69 91.5t19 66.5q0 29 -21 44q0 8 5.5 14t13.5 6q20 0 20 -31q0 -15 -3 -35.5t-13.5 -45.5t-30 -54.5t-52.5 -62.5z" />
    <glyph glyph-name="oe" unicode="&#x153;" horiz-adv-x="1068" 
d="M307 512q40 0 78.5 -12.5t71.5 -37t58 -60.5t36 -82q10 46 33 82t54.5 60.5t69 37t75.5 12.5q90 0 153 -54t78 -156h-451q-2 -11 -3 -23.5t-1 -25.5q0 -54 16.5 -100.5t47 -80t73.5 -52.5t96 -19q32 0 66.5 8t65 27t54 50t34.5 77h7q-11 -49 -35.5 -82t-56 -53.5
t-67.5 -29t-70 -8.5q-91 0 -155 51.5t-84 141.5q-11 -47 -35.5 -82.5t-57.5 -60.5t-72 -37.5t-79 -12.5q-47 0 -92 17.5t-80.5 50.5t-57.5 81.5t-22 111.5t22 111.5t57.5 81.5t80.5 50.5t92 17.5zM782 502q-36 0 -71.5 -12.5t-65 -36.5t-51 -59.5t-30.5 -81.5h432
q-5 43 -22.5 78t-45.5 60t-65 38.5t-81 13.5zM307 0q42 0 84.5 16t76.5 47.5t55 78.5t21 109t-21 109t-55 78.5t-76.5 47.5t-84.5 16t-84.5 -16t-76.5 -47.5t-55 -78.5t-21 -109t21 -109t55 -78.5t76.5 -47.5t84.5 -16z" />
    <glyph glyph-name="obreve" unicode="&#x14f;" horiz-adv-x="614" 
d="M307 -10q-47 0 -92 17.5t-80.5 50.5t-57.5 81.5t-22 111.5t22 111.5t57.5 81.5t80.5 50.5t92 17.5q46 0 91.5 -17.5t81 -50.5t57.5 -81.5t22 -111.5t-22 -111.5t-57.5 -81.5t-81 -50.5t-91.5 -17.5zM307 0q42 0 84.5 16t76.5 47.5t55 78.5t21 109t-21 109t-55 78.5
t-76.5 47.5t-84.5 16t-84.5 -16t-76.5 -47.5t-55 -78.5t-21 -109t21 -109t55 -78.5t76.5 -47.5t84.5 -16zM307 594q-30 0 -56.5 8.5t-47 26.5t-33.5 46.5t-17 68.5h13q8 -72 45.5 -106t95.5 -34t95.5 34t45.5 106h13q-4 -40 -17.5 -68.5t-33.5 -46.5t-46.5 -26.5t-56.5 -8.5
z" />
    <glyph glyph-name="ohungarumlaut" unicode="&#x151;" horiz-adv-x="614" 
d="M307 -10q-47 0 -92 17.5t-80.5 50.5t-57.5 81.5t-22 111.5t22 111.5t57.5 81.5t80.5 50.5t92 17.5q46 0 91.5 -17.5t81 -50.5t57.5 -81.5t22 -111.5t-22 -111.5t-57.5 -81.5t-81 -50.5t-91.5 -17.5zM307 0q42 0 84.5 16t76.5 47.5t55 78.5t21 109t-21 109t-55 78.5
t-76.5 47.5t-84.5 16t-84.5 -16t-76.5 -47.5t-55 -78.5t-21 -109t21 -109t55 -78.5t76.5 -47.5t84.5 -16zM331 758h15v-1l-112 -178h-9zM511 758h15v-1l-112 -178h-9z" />
    <glyph glyph-name="omacron" unicode="&#x14d;" horiz-adv-x="614" 
d="M307 -10q-47 0 -92 17.5t-80.5 50.5t-57.5 81.5t-22 111.5t22 111.5t57.5 81.5t80.5 50.5t92 17.5q46 0 91.5 -17.5t81 -50.5t57.5 -81.5t22 -111.5t-22 -111.5t-57.5 -81.5t-81 -50.5t-91.5 -17.5zM307 0q42 0 84.5 16t76.5 47.5t55 78.5t21 109t-21 109t-55 78.5
t-76.5 47.5t-84.5 16t-84.5 -16t-76.5 -47.5t-55 -78.5t-21 -109t21 -109t55 -78.5t76.5 -47.5t84.5 -16zM170 676h274v-9h-274v9z" />
    <glyph glyph-name="uni1ECD" unicode="&#x1ecd;" horiz-adv-x="614" 
d="M307 -10q-47 0 -92 17.5t-80.5 50.5t-57.5 81.5t-22 111.5t22 111.5t57.5 81.5t80.5 50.5t92 17.5q46 0 91.5 -17.5t81 -50.5t57.5 -81.5t22 -111.5t-22 -111.5t-57.5 -81.5t-81 -50.5t-91.5 -17.5zM307 0q42 0 84.5 16t76.5 47.5t55 78.5t21 109t-21 109t-55 78.5
t-76.5 47.5t-84.5 16t-84.5 -16t-76.5 -47.5t-55 -78.5t-21 -109t21 -109t55 -78.5t76.5 -47.5t84.5 -16zM307 -190q-8 0 -13.5 5.5t-5.5 13.5t5.5 13.5t13.5 5.5t13.5 -5.5t5.5 -13.5t-5.5 -13.5t-13.5 -5.5z" />
    <glyph glyph-name="racute" unicode="&#x155;" horiz-adv-x="364" 
d="M38 6l50 2q32 2 32 16v463l-82 9v6h94v-154q8 46 26.5 77t44.5 49t59 25.5t69 7.5h6v-13h-18q-51 0 -86.5 -16t-58 -43.5t-32.5 -64t-10 -78.5v-268q0 -8 9 -11.5t30 -4.5l73 -2v-6h-206v6zM266 758h15v-1l-112 -178h-9z" />
    <glyph glyph-name="rcaron" unicode="&#x159;" horiz-adv-x="364" 
d="M38 6l50 2q32 2 32 16v463l-82 9v6h94v-154q8 46 26.5 77t44.5 49t59 25.5t69 7.5h6v-13h-18q-51 0 -86.5 -16t-58 -43.5t-32.5 -64t-10 -78.5v-268q0 -8 9 -11.5t30 -4.5l73 -2v-6h-206v6zM50 768l149 -173l149 173h9l-156 -189h-4l-156 189h9z" />
    <glyph glyph-name="uni0157" unicode="&#x157;" horiz-adv-x="364" 
d="M38 6l50 2q32 2 32 16v463l-82 9v6h94v-154q8 46 26.5 77t44.5 49t59 25.5t69 7.5h6v-13h-18q-51 0 -86.5 -16t-58 -43.5t-32.5 -64t-10 -78.5v-268q0 -8 9 -11.5t30 -4.5l73 -2v-6h-206v6zM37 -283q50 51 69 91.5t19 66.5q0 29 -21 44q0 8 5.5 14t13.5 6q20 0 20 -31
q0 -15 -3 -35.5t-13.5 -45.5t-30 -54.5t-52.5 -62.5z" />
    <glyph glyph-name="sacute" unicode="&#x15b;" horiz-adv-x="472" 
d="M235 -10q-49 0 -91 11.5t-71 34.5l-12 137h7l18 -119q2 -14 18.5 -24.5t41.5 -18.5q41 -11 88 -11q34 0 64 8.5t52.5 24.5t36 39.5t13.5 53.5t-11 51.5t-30 36t-46 23t-58 14.5l-45 8q-66 12 -101.5 44t-35.5 87q0 24 11 46t32 39t51 27t69 10q38 0 73 -10.5t62 -33.5
l20 -127h-7l-25 109q-4 15 -18 25t-33 16t-38.5 8.5t-33.5 2.5q-71 0 -110.5 -33t-39.5 -80q0 -48 33 -77.5t93 -40.5l49 -9q73 -14 113 -44.5t40 -90.5q0 -32 -14 -57t-38 -43t-56.5 -27.5t-70.5 -9.5zM317 758h15v-1l-112 -178h-9z" />
    <glyph glyph-name="scaron" unicode="&#x161;" horiz-adv-x="472" 
d="M235 -10q-49 0 -91 11.5t-71 34.5l-12 137h7l18 -119q2 -14 18.5 -24.5t41.5 -18.5q41 -11 88 -11q34 0 64 8.5t52.5 24.5t36 39.5t13.5 53.5t-11 51.5t-30 36t-46 23t-58 14.5l-45 8q-66 12 -101.5 44t-35.5 87q0 24 11 46t32 39t51 27t69 10q38 0 73 -10.5t62 -33.5
l20 -127h-7l-25 109q-4 15 -18 25t-33 16t-38.5 8.5t-33.5 2.5q-71 0 -110.5 -33t-39.5 -80q0 -48 33 -77.5t93 -40.5l49 -9q73 -14 113 -44.5t40 -90.5q0 -32 -14 -57t-38 -43t-56.5 -27.5t-70.5 -9.5zM101 768l149 -173l149 173h9l-156 -189h-4l-156 189h9z" />
    <glyph glyph-name="scedilla" unicode="&#x15f;" horiz-adv-x="472" 
d="M235 -10q-49 0 -91 11.5t-71 34.5l-12 137h7l18 -119q2 -14 18.5 -24.5t41.5 -18.5q41 -11 88 -11q34 0 64 8.5t52.5 24.5t36 39.5t13.5 53.5t-11 51.5t-30 36t-46 23t-58 14.5l-45 8q-66 12 -101.5 44t-35.5 87q0 24 11 46t32 39t51 27t69 10q38 0 73 -10.5t62 -33.5
l20 -127h-7l-25 109q-4 15 -18 25t-33 16t-38.5 8.5t-33.5 2.5q-71 0 -110.5 -33t-39.5 -80q0 -48 33 -77.5t93 -40.5l49 -9q73 -14 113 -44.5t40 -90.5q0 -32 -14 -57t-38 -43t-56.5 -27.5t-70.5 -9.5zM246 -246q-20 0 -36.5 5.5t-29 14.5t-19.5 20t-7 22q0 6 5 8t9 0
q0 -16 7.5 -28t19 -19.5t25 -11t26.5 -3.5q32 0 54 14.5t22 40.5q0 13 -9.5 24.5t-25 22t-36.5 20t-44 20.5l99 96h15l-93 -91q48 -23 77.5 -42.5t29.5 -48.5t-25.5 -46.5t-63.5 -17.5z" />
    <glyph glyph-name="scircumflex" unicode="&#x15d;" horiz-adv-x="472" 
d="M235 -10q-49 0 -91 11.5t-71 34.5l-12 137h7l18 -119q2 -14 18.5 -24.5t41.5 -18.5q41 -11 88 -11q34 0 64 8.5t52.5 24.5t36 39.5t13.5 53.5t-11 51.5t-30 36t-46 23t-58 14.5l-45 8q-66 12 -101.5 44t-35.5 87q0 24 11 46t32 39t51 27t69 10q38 0 73 -10.5t62 -33.5
l20 -127h-7l-25 109q-4 15 -18 25t-33 16t-38.5 8.5t-33.5 2.5q-71 0 -110.5 -33t-39.5 -80q0 -48 33 -77.5t93 -40.5l49 -9q73 -14 113 -44.5t40 -90.5q0 -32 -14 -57t-38 -43t-56.5 -27.5t-70.5 -9.5zM248 768h4l156 -189h-9l-149 173l-149 -173h-9z" />
    <glyph glyph-name="uni0219" unicode="&#x219;" horiz-adv-x="472" 
d="M235 -10q-49 0 -91 11.5t-71 34.5l-12 137h7l18 -119q2 -14 18.5 -24.5t41.5 -18.5q41 -11 88 -11q34 0 64 8.5t52.5 24.5t36 39.5t13.5 53.5t-11 51.5t-30 36t-46 23t-58 14.5l-45 8q-66 12 -101.5 44t-35.5 87q0 24 11 46t32 39t51 27t69 10q38 0 73 -10.5t62 -33.5
l20 -127h-7l-25 109q-4 15 -18 25t-33 16t-38.5 8.5t-33.5 2.5q-71 0 -110.5 -33t-39.5 -80q0 -48 33 -77.5t93 -40.5l49 -9q73 -14 113 -44.5t40 -90.5q0 -32 -14 -57t-38 -43t-56.5 -27.5t-70.5 -9.5zM161 -283q50 51 69 91.5t19 66.5q0 29 -21 44q0 8 5.5 14t13.5 6
q20 0 20 -31q0 -15 -3 -35.5t-13.5 -45.5t-30 -54.5t-52.5 -62.5z" />
    <glyph glyph-name="tbar" unicode="&#x167;" horiz-adv-x="376" 
d="M239 -10q-17 0 -34 2.5t-30.5 10.5t-22 24t-8.5 43v421h-135v11h135v108l12 2v-110h216v-11h-216v-420q0 -24 7.5 -38.5t19.5 -21.5t27 -9t30 -2q31 0 62 8.5t58 22.5l3 -6q-26 -15 -61 -25t-63 -10zM9 373h363v-11h-363v11z" />
    <glyph glyph-name="tcaron" unicode="&#x165;" horiz-adv-x="376" 
d="M239 -10q-17 0 -34 2.5t-30.5 10.5t-22 24t-8.5 43v421h-135v11h135v108l12 2v-110h216v-11h-216v-420q0 -24 7.5 -38.5t19.5 -21.5t27 -9t30 -2q31 0 62 8.5t58 22.5l3 -6q-26 -15 -61 -25t-63 -10zM216 565q50 51 69 91.5t19 66.5q0 29 -21 44q0 8 5.5 14t13.5 6
q20 0 20 -31q0 -15 -3 -35.5t-13.5 -45.5t-30 -54.5t-52.5 -62.5z" />
    <glyph glyph-name="uni0163" unicode="&#x163;" horiz-adv-x="376" 
d="M239 -10q-17 0 -34 2.5t-30.5 10.5t-22 24t-8.5 43v421h-135v11h135v108l12 2v-110h216v-11h-216v-420q0 -24 7.5 -38.5t19.5 -21.5t27 -9t30 -2q31 0 62 8.5t58 22.5l3 -6q-26 -15 -61 -25t-63 -10zM96 -283q50 51 69 91.5t19 66.5q0 29 -21 44q0 8 5.5 14t13.5 6
q20 0 20 -31q0 -15 -3 -35.5t-13.5 -45.5t-30 -54.5t-52.5 -62.5z" />
    <glyph glyph-name="uni021B" unicode="&#x21b;" horiz-adv-x="376" 
d="M239 -10q-17 0 -34 2.5t-30.5 10.5t-22 24t-8.5 43v421h-135v11h135v108l12 2v-110h216v-11h-216v-420q0 -24 7.5 -38.5t19.5 -21.5t27 -9t30 -2q31 0 62 8.5t58 22.5l3 -6q-26 -15 -61 -25t-63 -10zM96 -283q50 51 69 91.5t19 66.5q0 29 -21 44q0 8 5.5 14t13.5 6
q20 0 20 -31q0 -15 -3 -35.5t-13.5 -45.5t-30 -54.5t-52.5 -62.5z" />
    <glyph glyph-name="ubreve" unicode="&#x16d;" horiz-adv-x="597" 
d="M283 -10q-94 0 -133.5 53.5t-39.5 164.5v279l-82 9v6h94v-292q0 -109 39 -159.5t126 -50.5q39 0 72.5 14t58.5 40.5t39 65.5t14 90v277l-82 9v6h94v-492h82v-6l-94 -9v161q-8 -46 -26 -77.5t-43.5 -51t-56 -28.5t-62.5 -9zM296 594q-30 0 -56.5 8.5t-47 26.5t-33.5 46.5
t-17 68.5h13q8 -72 45.5 -106t95.5 -34t95.5 34t45.5 106h13q-4 -40 -17.5 -68.5t-33.5 -46.5t-46.5 -26.5t-56.5 -8.5z" />
    <glyph glyph-name="uhungarumlaut" unicode="&#x171;" horiz-adv-x="597" 
d="M283 -10q-94 0 -133.5 53.5t-39.5 164.5v279l-82 9v6h94v-292q0 -109 39 -159.5t126 -50.5q39 0 72.5 14t58.5 40.5t39 65.5t14 90v277l-82 9v6h94v-492h82v-6l-94 -9v161q-8 -46 -26 -77.5t-43.5 -51t-56 -28.5t-62.5 -9zM320 758h15v-1l-112 -178h-9zM500 758h15v-1
l-112 -178h-9z" />
    <glyph glyph-name="umacron" unicode="&#x16b;" horiz-adv-x="597" 
d="M283 -10q-94 0 -133.5 53.5t-39.5 164.5v279l-82 9v6h94v-292q0 -109 39 -159.5t126 -50.5q39 0 72.5 14t58.5 40.5t39 65.5t14 90v277l-82 9v6h94v-492h82v-6l-94 -9v161q-8 -46 -26 -77.5t-43.5 -51t-56 -28.5t-62.5 -9zM159 676h274v-9h-274v9z" />
    <glyph glyph-name="uogonek" unicode="&#x173;" horiz-adv-x="597" 
d="M283 -10q-94 0 -133.5 53.5t-39.5 164.5v279l-82 9v6h94v-292q0 -109 39 -159.5t126 -50.5q39 0 72.5 14t58.5 40.5t39 65.5t14 90v277l-82 9v6h94v-492h82v-6l-94 -9v161q-8 -46 -26 -77.5t-43.5 -51t-56 -28.5t-62.5 -9zM432 -232q-39 0 -67.5 19.5t-28.5 54.5
q0 21 16 44t38.5 44.5t45.5 39.5t38 30h9q-17 -14 -40 -33t-43.5 -40t-35 -42.5t-14.5 -41.5q0 -31 24.5 -48t57.5 -17q29 0 52.5 9t38.5 20l5 -7q-18 -14 -43.5 -23t-52.5 -9z" />
    <glyph glyph-name="uring" unicode="&#x16f;" horiz-adv-x="597" 
d="M283 -10q-94 0 -133.5 53.5t-39.5 164.5v279l-82 9v6h94v-292q0 -109 39 -159.5t126 -50.5q39 0 72.5 14t58.5 40.5t39 65.5t14 90v277l-82 9v6h94v-492h82v-6l-94 -9v161q-8 -46 -26 -77.5t-43.5 -51t-56 -28.5t-62.5 -9zM296 585q-21 0 -39.5 7.5t-32.5 20.5t-22 31
t-8 39t8 39t22 31t32.5 20.5t39.5 7.5t39.5 -7.5t32.5 -20.5t22 -31t8 -39t-8 -39t-22 -31t-32.5 -20.5t-39.5 -7.5zM296 595q38 0 64 25.5t26 62.5t-26 62.5t-64 25.5t-64 -25.5t-26 -62.5t26 -62.5t64 -25.5z" />
    <glyph glyph-name="utilde" unicode="&#x169;" horiz-adv-x="597" 
d="M283 -10q-94 0 -133.5 53.5t-39.5 164.5v279l-82 9v6h94v-292q0 -109 39 -159.5t126 -50.5q39 0 72.5 14t58.5 40.5t39 65.5t14 90v277l-82 9v6h94v-492h82v-6l-94 -9v161q-8 -46 -26 -77.5t-43.5 -51t-56 -28.5t-62.5 -9zM381 631q-28 0 -49 13t-40 28.5t-38 28.5
t-42 13q-55 0 -56 -72h-11q0 43 19.5 62.5t47.5 19.5q25 0 45 -13t39 -28.5t39 -28.5t46 -13q25 0 39.5 18t15.5 54h11q0 -43 -20 -62.5t-46 -19.5z" />
    <glyph glyph-name="uni1EE5" unicode="&#x1ee5;" horiz-adv-x="597" 
d="M283 -10q-94 0 -133.5 53.5t-39.5 164.5v279l-82 9v6h94v-292q0 -109 39 -159.5t126 -50.5q39 0 72.5 14t58.5 40.5t39 65.5t14 90v277l-82 9v6h94v-492h82v-6l-94 -9v161q-8 -46 -26 -77.5t-43.5 -51t-56 -28.5t-62.5 -9zM307 -190q-8 0 -13.5 5.5t-5.5 13.5t5.5 13.5
t13.5 5.5t13.5 -5.5t5.5 -13.5t-5.5 -13.5t-13.5 -5.5z" />
    <glyph glyph-name="wacute" unicode="&#x1e83;" horiz-adv-x="865" 
d="M78 478q-3 8 -9.5 11.5t-22.5 4.5l-50 2v6h177v-6l-50 -2q-38 -1 -32 -16l195 -468l149 349l-54 143h127v-6l-72 -2q-38 -1 -32 -16l176 -467l195 467q6 15 -32 16l-50 2v6h176v-6l-50 -2q-16 -1 -22.5 -4.5t-9.5 -11.5l-204 -488h-7l-135 354l-152 -354h-7zM499 758h15
v-1l-112 -178h-9z" />
    <glyph glyph-name="wcircumflex" unicode="&#x175;" horiz-adv-x="865" 
d="M78 478q-3 8 -9.5 11.5t-22.5 4.5l-50 2v6h177v-6l-50 -2q-38 -1 -32 -16l195 -468l149 349l-54 143h127v-6l-72 -2q-38 -1 -32 -16l176 -467l195 467q6 15 -32 16l-50 2v6h176v-6l-50 -2q-16 -1 -22.5 -4.5t-9.5 -11.5l-204 -488h-7l-135 354l-152 -354h-7zM430 768h4
l156 -189h-9l-149 173l-149 -173h-9z" />
    <glyph glyph-name="wdieresis" unicode="&#x1e85;" horiz-adv-x="865" 
d="M78 478q-3 8 -9.5 11.5t-22.5 4.5l-50 2v6h177v-6l-50 -2q-38 -1 -32 -16l195 -468l149 349l-54 143h127v-6l-72 -2q-38 -1 -32 -16l176 -467l195 467q6 15 -32 16l-50 2v6h176v-6l-50 -2q-16 -1 -22.5 -4.5t-9.5 -11.5l-204 -488h-7l-135 354l-152 -354h-7zM552 690
q-8 0 -13.5 5.5t-5.5 13.5t5.5 13.5t13.5 5.5t13.5 -5.5t5.5 -13.5t-5.5 -13.5t-13.5 -5.5zM312 690q-8 0 -13.5 5.5t-5.5 13.5t5.5 13.5t13.5 5.5t13.5 -5.5t5.5 -13.5t-5.5 -13.5t-13.5 -5.5z" />
    <glyph glyph-name="wgrave" unicode="&#x1e81;" horiz-adv-x="865" 
d="M78 478q-3 8 -9.5 11.5t-22.5 4.5l-50 2v6h177v-6l-50 -2q-38 -1 -32 -16l195 -468l149 349l-54 143h127v-6l-72 -2q-38 -1 -32 -16l176 -467l195 467q6 15 -32 16l-50 2v6h176v-6l-50 -2q-16 -1 -22.5 -4.5t-9.5 -11.5l-204 -488h-7l-135 354l-152 -354h-7zM470 579
l-112 178v1h15l106 -179h-9z" />
    <glyph glyph-name="ycircumflex" unicode="&#x177;" horiz-adv-x="572" 
d="M162 -250q-9 0 -9 9t9 24t26 31l88 196l-195 468q-3 8 -9.5 11.5t-22.5 4.5l-50 2v6h177v-6l-50 -2q-38 -1 -32 -16l189 -452l201 452q6 15 -32 16l-50 2v6h176v-6l-50 -2q-16 -1 -22.5 -4.5t-9.5 -11.5l-304 -683q-12 -28 -18 -36.5t-12 -8.5zM286 768h4l156 -189h-9
l-149 173l-149 -173h-9z" />
    <glyph glyph-name="ygrave" unicode="&#x1ef3;" horiz-adv-x="572" 
d="M162 -250q-9 0 -9 9t9 24t26 31l88 196l-195 468q-3 8 -9.5 11.5t-22.5 4.5l-50 2v6h177v-6l-50 -2q-38 -1 -32 -16l189 -452l201 452q6 15 -32 16l-50 2v6h176v-6l-50 -2q-16 -1 -22.5 -4.5t-9.5 -11.5l-304 -683q-12 -28 -18 -36.5t-12 -8.5zM326 579l-112 178v1h15
l106 -179h-9z" />
    <glyph glyph-name="uni0233" unicode="&#x233;" horiz-adv-x="572" 
d="M162 -250q-9 0 -9 9t9 24t26 31l88 196l-195 468q-3 8 -9.5 11.5t-22.5 4.5l-50 2v6h177v-6l-50 -2q-38 -1 -32 -16l189 -452l201 452q6 15 -32 16l-50 2v6h176v-6l-50 -2q-16 -1 -22.5 -4.5t-9.5 -11.5l-304 -683q-12 -28 -18 -36.5t-12 -8.5zM151 676h274v-9h-274v9z
" />
    <glyph glyph-name="zacute" unicode="&#x17a;" horiz-adv-x="526" 
d="M448 492h-306q-10 0 -14.5 -2.5t-8.5 -10.5l-58 -139h-7l57 162h360l-411 -492h341q10 0 15 2.5t8 10.5l58 140h7l-57 -163h-396zM369 758h15v-1l-112 -178h-9z" />
    <glyph glyph-name="zcaron" unicode="&#x17e;" horiz-adv-x="526" 
d="M448 492h-306q-10 0 -14.5 -2.5t-8.5 -10.5l-58 -139h-7l57 162h360l-411 -492h341q10 0 15 2.5t8 10.5l58 140h7l-57 -163h-396zM153 768l149 -173l149 173h9l-156 -189h-4l-156 189h9z" />
    <glyph glyph-name="zdotaccent" unicode="&#x17c;" horiz-adv-x="526" 
d="M448 492h-306q-10 0 -14.5 -2.5t-8.5 -10.5l-58 -139h-7l57 162h360l-411 -492h341q10 0 15 2.5t8 10.5l58 140h7l-57 -163h-396zM302 690q-8 0 -13.5 5.5t-5.5 13.5t5.5 13.5t13.5 5.5t13.5 -5.5t5.5 -13.5t-5.5 -13.5t-13.5 -5.5z" />
    <glyph glyph-name="uni0259" unicode="&#x259;" horiz-adv-x="580" 
d="M277.983 512.969q52.9961 0 97.9932 -18.499q44.998 -18.499 77.9961 -52.9971q32.998 -34.4971 51.4961 -82.9941q18.499 -48.4971 18.499 -108.494q0 -61.9961 -20.498 -110.493q-20.499 -48.4971 -54.4971 -81.4951t-76.4951 -49.9961
q-42.498 -16.999 -87.4951 -16.999q-89.9941 0 -152.99 53.9961q-62.9961 53.9971 -77.9951 155.99h450.972q2 11 3 23.499t1 25.498q0 53.9971 -16.499 100.494t-46.9971 79.9951t-73.4951 52.4971q-42.998 18.999 -95.9941 18.999q-31.998 0 -66.4961 -8
q-34.498 -7.99902 -64.9961 -26.998t-53.9971 -49.9971q-23.498 -30.998 -34.498 -76.9951h-6.99902q10.999 48.9971 35.498 81.9951q24.498 32.998 55.9961 53.4961q31.498 20.499 67.4961 28.998q35.998 8.5 69.9961 8.5zM285.982 1q35.998 0 71.4961 12.499
q35.4971 12.499 64.9961 36.498q29.498 23.998 50.9961 59.4961q21.499 35.498 30.498 81.4951h-431.973q4.99902 -42.9971 22.498 -77.9951t45.4971 -59.9961q27.999 -24.999 64.9961 -38.498q36.998 -13.499 80.9951 -13.499z" />
    <glyph glyph-name="uni0410" unicode="&#x410;" horiz-adv-x="756" 
d="M675 24q3 -8 9.5 -11.5t22.5 -4.5l60 -2v-6h-198v6l60 2q38 1 32 16l-118 303h-331l-117 -303q-3 -8 4 -11.5t28 -4.5l60 -2v-6h-198v6l60 2q16 1 22.5 4.5t9.5 11.5l291 749h11zM217 338h322l-162 414z" />
    <glyph glyph-name="uni0411" unicode="&#x411;" horiz-adv-x="732" 
d="M172 747v-323h167q90 0 150.5 -16t97 -44.5t52 -67.5t15.5 -84q0 -46 -15.5 -84.5t-52 -67t-97 -44.5t-150.5 -16h-272v6l60 2q32 2 32 16v710q0 14 -32 16l-60 2v6h519l28 -147h-7l-33 124q-3 12 -16 12h-386zM333 11q82 0 140.5 13.5t95 39t53.5 63t17 85.5t-17 85
t-53.5 63t-95 39.5t-141.5 13.5h-160v-402h161z" />
    <glyph glyph-name="uni0412" unicode="&#x412;" horiz-adv-x="712" 
d="M67 6l60 2q32 2 32 16v710q0 14 -32 16l-60 2v6h252q56 0 107.5 -6.5t90.5 -26t62.5 -54t23.5 -90.5q0 -40 -15.5 -72t-41.5 -55.5t-61 -37t-74 -16.5v-1q48 -1 92 -11.5t77.5 -32.5t53.5 -57t20 -86q0 -46 -15.5 -84.5t-52 -67t-97 -44.5t-150.5 -16h-272v6zM364 404
q46 0 86.5 11t71 33.5t48.5 55.5t18 77q0 51 -20.5 83.5t-57 50.5t-87 25t-110.5 7h-141v-343h192zM333 11q82 0 140.5 13.5t95 39t53.5 63t17 85.5t-19 82t-54.5 56t-86.5 32.5t-115 10.5h-192v-382h161z" />
    <glyph glyph-name="uni0413" unicode="&#x413;" horiz-adv-x="654" 
d="M172 24q0 -16 32 -16l110 -2v-6h-247v6l60 2q32 2 32 16v710q0 14 -32 16l-60 2v6h529l28 -147h-7l-33 124q-3 12 -16 12h-396v-723z" />
    <glyph glyph-name="uni0414" unicode="&#x414;" horiz-adv-x="781" 
d="M47 -156h-7l8 167h80q19 41 37.5 102.5t32.5 149.5t22.5 204t8.5 267q0 14 -32 16l-60 2v6h577v-6l-60 -2q-32 -2 -32 -16v-723h104l8 -167h-7l-13 144q-1 12 -16 12h-622q-15 0 -16 -12zM609 747h-368q0 -157 -9 -276t-23 -207.5t-31.5 -149.5t-35.5 -103h467v736z" />
    <glyph glyph-name="uni0415" unicode="&#x415;" horiz-adv-x="702" 
d="M67 6l60 2q32 2 32 16v710q0 14 -32 16l-60 2v6h499l28 -147h-7l-33 124q-3 12 -16 12h-366v-343h227q20 0 24 2.5t5 13.5l6 97h7v-237h-7l-6 97q-1 11 -5 13.5t-24 2.5h-227v-382h420q10 0 14.5 2.5t8.5 10.5l58 129h7l-57 -153h-556v6z" />
    <glyph glyph-name="uni0401" unicode="&#x401;" horiz-adv-x="702" 
d="M67 6l60 2q32 2 32 16v710q0 14 -32 16l-60 2v6h499l28 -147h-7l-33 124q-3 12 -16 12h-366v-343h227q20 0 24 2.5t5 13.5l6 97h7v-237h-7l-6 97q-1 11 -5 13.5t-24 2.5h-227v-382h420q10 0 14.5 2.5t8.5 10.5l58 129h7l-57 -153h-556v6zM245 917q-8 0 -13.5 5.5
t-5.5 13.5t5.5 13.5t13.5 5.5t13.5 -5.5t5.5 -13.5t-5.5 -13.5t-13.5 -5.5zM485 917q-8 0 -13.5 5.5t-5.5 13.5t5.5 13.5t13.5 5.5t13.5 -5.5t5.5 -13.5t-5.5 -13.5t-13.5 -5.5z" />
    <glyph glyph-name="uni0416" unicode="&#x416;" horiz-adv-x="1050" 
d="M426 6l60 2q32 2 32 16v710q0 14 -32 16l-60 2v6h197v-6l-60 -2q-32 -2 -32 -16v-344l377 347q8 8 0.5 9.5t-36.5 3.5l-49 2v6h212v-6l-53 -2q-25 -1 -37.5 -3.5t-25.5 -14.5l-369 -340l488 -392h-21l-486 390v-366q0 -14 32 -16l60 -2v-6h-197v6zM12 0l486 391l-370 341
q-13 12 -24.5 14.5t-36.5 3.5l-53 2v6h212v-6l-49 -2q-29 -2 -36.5 -3.5t0.5 -9.5l377 -347l-486 -390h-20z" />
    <glyph glyph-name="uni0417" unicode="&#x417;" horiz-adv-x="655" 
d="M309 0q134 0 203.5 52.5t69.5 149.5q0 100 -71 145.5t-194 45.5h-87v11h87q44 0 83.5 12t69 35t46.5 58t17 82q0 51 -19 83.5t-50 51t-71 25.5t-81 7q-21 0 -44 -2.5t-44 -8t-39 -12.5t-28 -16q-9 -8 -13 -13.5t-11 -21.5l-46 -110h-7l44 137q40 33 91.5 45t99.5 12
q39 0 80.5 -6.5t75 -26t55.5 -54t22 -90.5q0 -42 -14.5 -76t-40 -58.5t-59 -39t-70.5 -17.5v-1q46 -1 88.5 -12t74.5 -34.5t51 -60.5t19 -90q0 -46 -17 -84.5t-52 -67t-88.5 -44.5t-127.5 -16q-59 0 -113.5 17.5t-96.5 52.5l-52 146h7l53 -119q7 -16 11.5 -21.5t13.5 -13.5
q23 -20 71 -36t103 -16z" />
    <glyph glyph-name="uni0418" unicode="&#x418;" horiz-adv-x="871" 
d="M67 6l60 2q32 2 32 16v710q0 14 -32 16l-60 2v6h197v-6l-60 -2q-32 -2 -32 -16v-659l527 632v27q0 14 -32 16l-60 2v6h197v-6l-60 -2q-32 -2 -32 -16v-710q0 -14 32 -16l60 -2v-6h-197v6l60 2q32 2 32 16v667l-527 -632v-35q0 -14 32 -16l60 -2v-6h-197v6z" />
    <glyph glyph-name="uni0419" unicode="&#x419;" horiz-adv-x="871" 
d="M67 6l60 2q32 2 32 16v710q0 14 -32 16l-60 2v6h197v-6l-60 -2q-32 -2 -32 -16v-659l527 632v27q0 14 -32 16l-60 2v6h197v-6l-60 -2q-32 -2 -32 -16v-710q0 -14 32 -16l60 -2v-6h-197v6l60 2q32 2 32 16v667l-527 -632v-35q0 -14 32 -16l60 -2v-6h-197v6zM436 833
q-39 0 -67.5 11t-46.5 31t-27 47.5t-9 60.5h13q0 -41 13 -68t33 -43t44 -22.5t47 -6.5t47.5 6.5t44.5 22.5t32.5 43t12.5 68h13q0 -74 -41.5 -112t-108.5 -38z" />
    <glyph glyph-name="uni041A" unicode="&#x41a;" horiz-adv-x="741" 
d="M67 6l60 2q32 2 32 16v710q0 14 -32 16l-60 2v6h197v-6l-60 -2q-32 -2 -32 -16v-344l417 347q8 7 0.5 9t-36.5 4l-49 2v6h212v-6l-53 -2q-25 -1 -37 -4t-26 -14l-408 -340l537 -392h-21l-536 390v-366q0 -14 32 -16l60 -2v-6h-197v6z" />
    <glyph glyph-name="uni041B" unicode="&#x41b;" horiz-adv-x="747" 
d="M87 20q-12 -17 -21 -23.5t-19 -6.5q-7 0 -7 7q0 10 12.5 20.5t32.5 21.5q28 41 48.5 96.5t34 136.5t20.5 193.5t7 268.5q0 14 -32 16l-60 2v6h577v-6l-60 -2q-32 -2 -32 -16v-710q0 -14 32 -16l60 -2v-6h-197v6l60 2q32 2 32 16v723h-368q0 -171 -8 -290.5t-23 -202.5
t-37 -137.5t-52 -96.5z" />
    <glyph glyph-name="uni041C" unicode="&#x41c;" horiz-adv-x="1017" 
d="M47 6l60 2q31 1 32 16l40 710q1 14 -32 16l-60 2v6h112l307 -582l312 582h112v-6l-60 -2q-33 -2 -32 -16l40 -710q1 -15 32 -16l60 -2v-6h-197v6l60 2q33 2 32 16l-40 720l-316 -587h-6l-311 588l-40 -721q-1 -14 32 -16l60 -2v-6h-197v6z" />
    <glyph glyph-name="uni041D" unicode="&#x41d;" horiz-adv-x="881" 
d="M67 6l60 2q32 2 32 16v710q0 14 -32 16l-60 2v6h197v-6l-60 -2q-32 -2 -32 -16v-330h537v330q0 14 -32 16l-60 2v6h197v-6l-60 -2q-32 -2 -32 -16v-710q0 -14 32 -16l60 -2v-6h-197v6l60 2q32 2 32 16v369h-537v-369q0 -14 32 -16l60 -2v-6h-197v6z" />
    <glyph glyph-name="uni041E" unicode="&#x41e;" horiz-adv-x="884" 
d="M442 -10q-86 0 -156.5 30.5t-120.5 83t-77.5 123.5t-27.5 152t27.5 152t77.5 123.5t120.5 83t156.5 30.5t156.5 -30.5t120.5 -83t77.5 -123.5t27.5 -152t-27.5 -152t-77.5 -123.5t-120.5 -83t-156.5 -30.5zM442 0q72 0 138 26t117 74.5t81.5 119t30.5 159.5t-30.5 159.5
t-81.5 119t-117 74.5t-138 26t-138 -26t-117 -74.5t-81.5 -119t-30.5 -159.5t30.5 -159.5t81.5 -119t117 -74.5t138 -26z" />
    <glyph glyph-name="uni041F" unicode="&#x41f;" horiz-adv-x="851" 
d="M784 758v-6l-60 -2q-32 -2 -32 -16v-710q0 -14 32 -16l60 -2v-6h-197v6l60 2q32 2 32 16v723h-507v-723q0 -14 32 -16l60 -2v-6h-197v6l60 2q32 2 32 16v710q0 14 -32 16l-60 2v6h717z" />
    <glyph glyph-name="uni0420" unicode="&#x420;" horiz-adv-x="695" 
d="M67 6l60 2q32 2 32 16v710q0 14 -32 16l-60 2v6h296q57 0 110 -7t93.5 -28t65 -59.5t24.5 -101.5t-24.5 -101.5t-65 -59.5t-93.5 -28t-110 -7h-166v11h154q59 0 112 6.5t92.5 26.5t62.5 56.5t23 95.5t-23 95.5t-62.5 56.5t-92.5 26.5t-112 6.5h-179v-723q0 -16 32 -16
l110 -2v-6h-247v6z" />
    <glyph glyph-name="uni0421" unicode="&#x421;" horiz-adv-x="825" 
d="M475 -10q-87 0 -162.5 25.5t-131.5 75t-88.5 122t-32.5 166.5q0 93 32.5 165.5t89 122t133 75.5t164.5 26q70 0 135.5 -16t110.5 -54l44 -137h-7l-46 110q-7 16 -11 21.5t-13 13.5q-26 23 -84 37.5t-126 14.5q-81 0 -154.5 -23.5t-130 -71t-89.5 -119t-33 -166.5
q0 -93 31.5 -164t86.5 -118.5t128.5 -71.5t156.5 -24q34 0 66.5 4t61 11t51 16.5t35.5 20.5q9 8 13.5 13.5t11.5 21.5l53 119h7l-52 -146q-45 -38 -112.5 -54t-137.5 -16z" />
    <glyph glyph-name="uni0422" unicode="&#x422;" horiz-adv-x="713" 
d="M258 6l60 2q32 2 32 16v723h-276q-13 0 -16 -12l-33 -154h-7l28 177h621l28 -177h-7l-33 154q-3 12 -16 12h-276v-723q0 -14 32 -16l60 -2v-6h-197v6z" />
    <glyph glyph-name="uni0423" unicode="&#x423;" horiz-adv-x="766" 
d="M373 132q-36 -69 -64 -105.5t-57 -36.5q-11 0 -11 9q0 10 14.5 17t41.5 15q11 14 20 28t19.5 32t23 41.5t30.5 56.5l-310 545q-5 8 -10.5 11.5t-21.5 4.5l-60 2v6h198v-6l-60 -2q-40 -2 -31 -16l302 -531l275 531q7 15 -30 16l-62 2v6h197v-6l-60 -2q-16 -1 -22 -4.5
t-10 -11.5z" />
    <glyph glyph-name="uni0424" unicode="&#x424;" horiz-adv-x="924" 
d="M364 -14l60 2q32 2 32 16v76q-83 1 -156.5 18.5t-129 54t-88 92.5t-32.5 134t33 134.5t88.5 93t129 54t155.5 17.5v76q0 14 -32 16l-60 2v6h197v-6l-60 -2q-32 -2 -32 -16v-76q78 -1 151.5 -18.5t129.5 -54t90 -92.5t34 -134t-34 -134t-90 -92.5t-129.5 -54t-151.5 -18.5
v-76q0 -14 32 -16l60 -2v-6h-197v6zM65 379q0 -56 17.5 -99.5t47.5 -75.5t69.5 -54t83 -35t88 -19t85.5 -6v578q-41 0 -85.5 -6t-88 -19t-83 -35t-69.5 -54t-47.5 -75.5t-17.5 -99.5zM859 379q0 56 -18.5 99.5t-49 75.5t-70.5 53.5t-83 35t-87 19t-82 6.5v-578q38 0 82 6
t87 19.5t83 35t70.5 53.5t49 75t18.5 100z" />
    <glyph glyph-name="uni0425" unicode="&#x425;" horiz-adv-x="792" 
d="M-2 6l57 2q14 1 22 5t13 11l298 380l-258 330q-5 6 -13 10.5t-22 5.5l-57 2v6h200v-6l-60 -3q-20 -1 -28 -5.5t-3 -10.5l249 -318l250 318q5 7 -3 11t-28 5l-60 3v6h198v-6l-57 -2q-14 -1 -22 -5t-13 -11l-258 -329l299 -381q5 -6 13 -10.5t22 -5.5l57 -2v-6h-200v6l60 3
q20 1 28 5.5t3 10.5l-290 370l-290 -370q-5 -7 3 -11t28 -5l60 -3v-6h-198v6z" />
    <glyph glyph-name="uni0426" unicode="&#x426;" horiz-adv-x="851" 
d="M67 0v6l60 2q32 2 32 16v710q0 14 -32 16l-60 2v6h197v-6l-60 -2q-32 -2 -32 -16v-723h507v723q0 14 -32 16l-60 2v6h197v-6l-60 -2q-32 -2 -32 -16v-723h104l8 -167h-7l-13 144q-1 12 -16 12h-701z" />
    <glyph glyph-name="uni0427" unicode="&#x427;" horiz-adv-x="791" 
d="M129 734q0 14 -32 16l-60 2v6h197v-6l-60 -2q-32 -2 -32 -16v-149q0 -56 12 -96t32 -66.5t46.5 -42t55.5 -24t59 -10.5t57 -2q39 0 77.5 6t69.5 14q36 9 68 20v350q0 14 -32 16l-60 2v6h197v-6l-60 -2q-32 -2 -32 -16v-710q0 -14 32 -16l60 -2v-6h-227v6l90 2q32 0 32 16
v349q-33 -11 -69 -20q-31 -8 -69.5 -14t-78.5 -6q-27 0 -57.5 2.5t-61 10.5t-58.5 24.5t-49.5 44.5t-34 69.5t-12.5 100.5v149z" />
    <glyph glyph-name="uni0428" unicode="&#x428;" horiz-adv-x="1141" 
d="M67 0v6l60 2q32 2 32 16v710q0 14 -32 16l-60 2v6h197v-6l-60 -2q-32 -2 -32 -16v-723h392v723q0 14 -32 16l-60 2v6h197v-6l-60 -2q-32 -2 -32 -16v-723h392v723q0 14 -32 16l-60 2v6h197v-6l-60 -2q-32 -2 -32 -16v-710q0 -14 32 -16l60 -2v-6h-1007z" />
    <glyph glyph-name="uni0429" unicode="&#x429;" horiz-adv-x="1141" 
d="M67 0v6l60 2q32 2 32 16v710q0 14 -32 16l-60 2v6h197v-6l-60 -2q-32 -2 -32 -16v-723h392v723q0 14 -32 16l-60 2v6h197v-6l-60 -2q-32 -2 -32 -16v-723h392v723q0 14 -32 16l-60 2v6h197v-6l-60 -2q-32 -2 -32 -16v-723h104l8 -167h-7l-13 144q-1 12 -16 12h-991z" />
    <glyph glyph-name="uni042A" unicode="&#x42a;" horiz-adv-x="832" 
d="M469 424q87 0 145.5 -16t94 -44.5t50.5 -67.5t15 -84q0 -46 -15 -84.5t-50.5 -67t-94 -44.5t-145.5 -16h-262v6l60 2q32 2 32 16v723h-225q-13 0 -16 -12l-33 -154h-7l28 177h388v-6l-90 -2q-32 -2 -32 -16v-310h157zM463 11q80 0 136 13.5t91.5 39t52 63t16.5 85.5
t-16.5 85t-52 63t-92 39.5t-136.5 13.5h-150v-402h151z" />
    <glyph glyph-name="uni042B" unicode="&#x42b;" horiz-adv-x="976" 
d="M329 424q87 0 145.5 -16t94 -44.5t50.5 -67.5t15 -84q0 -46 -15 -84.5t-50.5 -67t-94 -44.5t-145.5 -16h-262v6l60 2q32 2 32 16v710q0 14 -32 16l-60 2v6h227v-6l-90 -2q-32 0 -32 -16v-310h157zM323 11q80 0 136 13.5t91.5 39t52 63t16.5 85.5t-16.5 85t-52 63
t-92 39.5t-136.5 13.5h-150v-402h151zM712 6l60 2q32 2 32 16v710q0 14 -32 16l-60 2v6h197v-6l-60 -2q-32 -2 -32 -16v-710q0 -14 32 -16l60 -2v-6h-197v6z" />
    <glyph glyph-name="uni042C" unicode="&#x42c;" horiz-adv-x="692" 
d="M329 424q87 0 145.5 -16t94 -44.5t50.5 -67.5t15 -84q0 -46 -15 -84.5t-50.5 -67t-94 -44.5t-145.5 -16h-262v6l60 2q32 2 32 16v710q0 14 -32 16l-60 2v6h227v-6l-90 -2q-32 0 -32 -16v-310h157zM323 11q80 0 136 13.5t91.5 39t52 63t16.5 85.5t-16.5 85t-52 63
t-92 39.5t-136.5 13.5h-150v-402h151z" />
    <glyph glyph-name="uni042D" unicode="&#x42d;" horiz-adv-x="825" 
d="M350 -10q-70 0 -137.5 16t-112.5 54l-52 146h7l53 -119q7 -16 11.5 -21.5t13.5 -13.5q13 -11 35 -20.5t50.5 -16.5t61.5 -11t67 -4q83 0 156.5 22.5t128 69t86.5 118t32 168.5v5h-378q-20 0 -24 -2.5t-5 -13.5l-6 -97h-7v237h7l6 -97q1 -11 5 -13.5t24 -2.5h378
q-3 91 -37.5 159.5t-90 114t-128 68t-151.5 22.5q-33 0 -65 -3.5t-59 -9.5t-48.5 -15t-33.5 -19q-9 -8 -13 -13.5t-11 -21.5l-46 -110h-7l44 137q44 37 108.5 51t133.5 14q88 0 164.5 -26t133 -75.5t89 -122t32.5 -165.5q0 -98 -32.5 -171t-88.5 -121.5t-131.5 -72.5
t-162.5 -24z" />
    <glyph glyph-name="uni042E" unicode="&#x42e;" horiz-adv-x="1134" 
d="M67 6l60 2q32 2 32 16v710q0 14 -32 16l-60 2v6h197v-6l-60 -2q-32 -2 -32 -16v-330h159q4 76 32.5 142.5t77 116t115 77.5t146.5 28q84 0 152.5 -30.5t117 -83t75.5 -123.5t27 -152t-27 -152t-75.5 -123.5t-117 -83t-152.5 -30.5t-152.5 30.5t-117 83t-75.5 123.5
t-27 152v14h-158v-369q0 -14 32 -16l60 -2v-6h-197v6zM702 0q70 0 134.5 26t114 74.5t79 119t29.5 159.5t-29.5 159.5t-79 119t-114 74.5t-134.5 26t-134.5 -26t-114 -74.5t-79 -119t-29.5 -159.5t29.5 -159.5t79 -119t114 -74.5t134.5 -26z" />
    <glyph glyph-name="uni042F" unicode="&#x42f;" horiz-adv-x="715" 
d="M24 0l346 359q-50 1 -98.5 9.5t-86.5 30.5t-61 60t-23 99q0 64 25.5 103.5t68 61t97.5 28.5t114 7h242v-6l-60 -2q-32 -2 -32 -16v-710q0 -14 32 -16l60 -2v-6h-197v6l60 2q32 2 32 16v335h-156l-345 -359h-18zM543 747h-139q-58 0 -110 -7t-91.5 -27t-63 -57t-23.5 -98
q0 -60 23.5 -97t63 -57.5t91.5 -27t110 -6.5h139v377z" />
    <glyph glyph-name="uni0402" unicode="&#x402;" horiz-adv-x="833" 
d="M208 6l60 2q32 2 32 16v723h-226q-13 0 -16 -12l-33 -154h-7l28 177h561l28 -177h-7l-33 154q-3 12 -16 12h-266v-377q41 44 98 63t114 19q120 0 171.5 -54t51.5 -164v-119q0 -41 -3.5 -67t-15 -48t-33 -43.5t-57.5 -52.5q-11 -9 -23 -18.5t-25 -19.5l-6 8
q46 38 75.5 63.5t46 49.5t22.5 50.5t6 67.5v127q0 109 -50.5 159.5t-163.5 50.5q-63 0 -119 -24t-89 -64v-330q0 -14 32 -16l60 -2v-6h-197v6z" />
    <glyph glyph-name="uni0403" unicode="&#x403;" horiz-adv-x="654" 
d="M172 24q0 -16 32 -16l110 -2v-6h-247v6l60 2q32 2 32 16v710q0 14 -32 16l-60 2v6h529l28 -147h-7l-33 124q-3 12 -16 12h-396v-723zM511 972h16v-1l-170 -138h-12z" />
    <glyph glyph-name="uni0404" unicode="&#x404;" horiz-adv-x="825" 
d="M475 -10q-87 0 -162.5 25.5t-131.5 75t-88.5 122t-32.5 166.5q0 93 32.5 165.5t89 122t133 75.5t164.5 26q70 0 135.5 -16t110.5 -54l44 -137h-7l-46 110q-7 16 -11 21.5t-13 13.5q-26 23 -84 37.5t-126 14.5q-78 0 -149.5 -22t-127 -66.5t-90.5 -111t-39 -154.5h393
q20 0 24 2.5t5 13.5l6 97h7v-237h-7l-6 97q-1 11 -5 13.5t-24 2.5h-394v-15q0 -93 31.5 -164t86.5 -118.5t128.5 -71.5t156.5 -24q34 0 66.5 4t61 11t51 16.5t35.5 20.5q9 8 13.5 13.5t11.5 21.5l53 119h7l-52 -146q-45 -38 -112.5 -54t-137.5 -16z" />
    <glyph glyph-name="uni0405" unicode="&#x405;" horiz-adv-x="625" 
d="M317 -10q-58 0 -113 12.5t-100 42.5l-44 153h7l46 -124q6 -16 10 -21.5t14 -11.5q19 -12 43 -20t48.5 -12.5t47.5 -6.5t41 -2q51 0 93 14t72 38.5t46.5 57.5t16.5 72q0 46 -17.5 79.5t-48 57.5t-71.5 41t-87 31l-52 16q-86 26 -134.5 71t-48.5 122q0 36 18 66.5t48.5 53
t71.5 35.5t87 13q57 0 104 -10t86 -36l43 -137h-7l-45 110q-7 16 -11 21.5t-13 10.5q-14 9 -33.5 15t-40.5 9.5t-42.5 5t-39.5 1.5q-43 0 -81.5 -12t-68 -33t-46.5 -50t-17 -63q0 -71 46 -113t129 -67l52 -16q50 -15 92.5 -34t74 -44.5t49 -59.5t17.5 -81q0 -39 -16 -74.5
t-47 -62.5t-76 -42.5t-103 -15.5z" />
    <glyph glyph-name="uni0406" unicode="&#x406;" horiz-adv-x="331" 
d="M67 6l60 2q32 2 32 16v710q0 14 -32 16l-60 2v6h197v-6l-60 -2q-32 -2 -32 -16v-710q0 -14 32 -16l60 -2v-6h-197v6z" />
    <glyph glyph-name="uni0407" unicode="&#x407;" horiz-adv-x="331" 
d="M67 6l60 2q32 2 32 16v710q0 14 -32 16l-60 2v6h197v-6l-60 -2q-32 -2 -32 -16v-710q0 -14 32 -16l60 -2v-6h-197v6zM46 917q-8 0 -13.5 5.5t-5.5 13.5t5.5 13.5t13.5 5.5t13.5 -5.5t5.5 -13.5t-5.5 -13.5t-13.5 -5.5zM286 917q-8 0 -13.5 5.5t-5.5 13.5t5.5 13.5
t13.5 5.5t13.5 -5.5t5.5 -13.5t-5.5 -13.5t-13.5 -5.5z" />
    <glyph glyph-name="uni0408" unicode="&#x408;" horiz-adv-x="310" 
d="M3 -126q46 38 75.5 63.5t46 49.5t22.5 50.5t6 67.5v629q0 14 -32 16l-60 2v6h197v-6l-60 -2q-32 -2 -32 -16v-619q0 -41 -3.5 -67t-15 -48t-33 -43.5t-57.5 -52.5q-11 -9 -23 -18.5t-25 -19.5z" />
    <glyph glyph-name="uni0409" unicode="&#x409;" horiz-adv-x="1078" 
d="M715 424q87 0 145.5 -16t94 -44.5t50.5 -67.5t15 -84q0 -46 -15 -84.5t-50.5 -67t-94 -44.5t-145.5 -16h-262v6l60 2q32 2 32 16v723h-338q0 -171 -8 -290.5t-23 -202.5t-37 -137.5t-52 -96.5q-12 -17 -21 -23.5t-19 -6.5q-7 0 -7 7q0 10 11.5 19.5t33.5 22.5
q28 41 48.5 96.5t34 136.5t20.5 193.5t7 268.5q0 14 -32 16l-60 2v6h577v-6l-90 -2q-32 -2 -32 -16v-310h157zM709 11q80 0 136 13.5t91.5 39t52 63t16.5 85.5t-16.5 85t-52 63t-92 39.5t-136.5 13.5h-150v-402h151z" />
    <glyph glyph-name="uni040A" unicode="&#x40a;" horiz-adv-x="1142" 
d="M67 6l60 2q32 2 32 16v710q0 14 -32 16l-60 2v6h197v-6l-60 -2q-32 -2 -32 -16v-320h437v320q0 14 -32 16l-60 2v6h227v-6l-90 -2q-32 0 -32 -16v-320h157q87 0 145.5 -15.5t94 -43t50.5 -65.5t15 -83q0 -46 -15 -84t-50.5 -65.5t-94 -42.5t-145.5 -15h-262v6l60 2
q32 2 32 16v379h-437v-379q0 -14 32 -16l60 -2v-6h-197v6zM773 11q80 0 136 12.5t91.5 37.5t52 61.5t16.5 84.5t-16.5 84.5t-52 61t-92 37.5t-136.5 13h-150v-392h151z" />
    <glyph glyph-name="uni040B" unicode="&#x40b;" horiz-adv-x="867" 
d="M208 6l60 2q32 2 32 16v723h-226q-13 0 -16 -12l-33 -154h-7l28 177h561l28 -177h-7l-33 154q-3 12 -16 12h-266v-377q41 44 98 63t114 19q120 0 171.5 -54t51.5 -164v-210q0 -14 32 -16l50 -2v-6h-95v232q0 109 -50.5 159.5t-163.5 50.5q-63 0 -119 -24t-89 -64v-330
q0 -14 32 -16l60 -2v-6h-197v6z" />
    <glyph glyph-name="uni040C" unicode="&#x40c;" horiz-adv-x="741" 
d="M67 6l60 2q32 2 32 16v710q0 14 -32 16l-60 2v6h197v-6l-60 -2q-32 -2 -32 -16v-344l417 347q8 7 0.5 9t-36.5 4l-49 2v6h212v-6l-53 -2q-25 -1 -37 -4t-26 -14l-408 -340l537 -392h-21l-536 390v-366q0 -14 32 -16l60 -2v-6h-197v6zM521 972h16v-1l-170 -138h-12z" />
    <glyph glyph-name="uni040E" unicode="&#x40e;" horiz-adv-x="766" 
d="M373 132q-36 -69 -64 -105.5t-57 -36.5q-11 0 -11 9q0 10 14.5 17t41.5 15q11 14 20 28t19.5 32t23 41.5t30.5 56.5l-310 545q-5 8 -10.5 11.5t-21.5 4.5l-60 2v6h198v-6l-60 -2q-40 -2 -31 -16l302 -531l275 531q7 15 -30 16l-62 2v6h197v-6l-60 -2q-16 -1 -22 -4.5
t-10 -11.5zM401 833q-39 0 -67.5 11t-46.5 31t-27 47.5t-9 60.5h13q0 -41 13 -68t33 -43t44 -22.5t47 -6.5t47.5 6.5t44.5 22.5t32.5 43t12.5 68h13q0 -74 -41.5 -112t-108.5 -38z" />
    <glyph glyph-name="uni040F" unicode="&#x40f;" horiz-adv-x="851" 
d="M419 -12q0 12 -16 12h-336v6l60 2q32 2 32 16v710q0 14 -32 16l-60 2v6h197v-6l-60 -2q-32 -2 -32 -16v-723h507v723q0 14 -32 16l-60 2v6h197v-6l-60 -2q-32 -2 -32 -16v-710q0 -14 32 -16l60 -2v-6h-336q-16 0 -16 -12l-3 -144h-7z" />
    <glyph glyph-name="uni0490" unicode="&#x490;" horiz-adv-x="624" 
d="M172 747v-723q0 -16 32 -16l110 -2v-6h-247v6l60 2q32 2 32 16v710q0 14 -32 16l-60 2v6h501q15 0 16 12l13 144h7l-8 -167h-424z" />
    <glyph glyph-name="uni0462" unicode="&#x462;" horiz-adv-x="825" 
d="M462 363q156 0 230.5 -45t74.5 -136q0 -92 -74.5 -137t-230.5 -45h-262v6l60 2q32 2 32 16v593h-226q-13 0 -16 -12l-33 -154h-7l28 177h254v106q0 14 -32 16l-60 2v6h197v-6l-60 -2q-32 -2 -32 -16v-106h254l28 -177h-7l-33 154q-3 12 -16 12h-226v-254h157zM456 11
q70 0 125.5 8.5t93 29t57.5 53t20 80.5t-20 80.5t-58 52.5t-93 28.5t-126 8.5h-150v-341h151z" />
    <glyph glyph-name="uni0472" unicode="&#x472;" horiz-adv-x="884" 
d="M442 -10q-86 0 -156.5 30.5t-120.5 83t-77.5 123.5t-27.5 152t27.5 152t77.5 123.5t120.5 83t156.5 30.5t156.5 -30.5t120.5 -83t77.5 -123.5t27.5 -152t-27.5 -152t-77.5 -123.5t-120.5 -83t-156.5 -30.5zM442 0q71 0 136.5 25.5t116.5 73t81.5 116.5t32.5 156
q-49 -21 -102.5 -21.5t-111.5 8.5t-119.5 22t-126.5 19t-134 0.5t-140 -33.5q2 -86 33.5 -154t82 -115t115.5 -72t136 -25zM75 376q71 29 140 35t134.5 0t127 -19t119.5 -22t111.5 -9.5t101.5 19.5q0 88 -31 158.5t-82 119t-117 74.5t-137 26q-72 0 -138 -26t-117 -74.5
t-81.5 -119t-30.5 -159.5v-3z" />
    <glyph glyph-name="uni0474" unicode="&#x474;" horiz-adv-x="727" 
d="M394 -15h-11l-302 749q-3 8 -9.5 11.5t-22.5 4.5l-60 2v6h198v-6l-60 -2q-38 -1 -32 -16l294 -728l229 578q20 51 36.5 86.5t30 57t24 31t18.5 9.5t9.5 -3.5t1.5 -7.5q0 -9 -16 -23.5t-36 -29.5q-11 -20 -25 -49t-32 -74z" />
    <glyph glyph-name="uni0492" unicode="&#x492;" horiz-adv-x="654" 
d="M172 24q0 -16 32 -16l110 -2v-6h-247v6l60 2q32 2 32 16v710q0 14 -32 16l-60 2v6h529l28 -147h-7l-33 124q-3 12 -16 12h-396v-723zM67 404h344v-11h-344v11z" />
    <glyph glyph-name="uni0496" unicode="&#x496;" horiz-adv-x="1073" 
d="M426 6l60 2q32 2 32 16v710q0 14 -32 16l-60 2v6h197v-6l-60 -2q-32 -2 -32 -16v-344l377 347q8 8 0.5 9.5t-36.5 3.5l-49 2v6h212v-6l-53 -2q-25 -1 -37.5 -3.5t-25.5 -14.5l-369 -340l474 -381h61l8 -167h-7l-13 144q-1 12 -16 12h-40l-486 390v-366q0 -14 32 -16
l60 -2v-6h-197v6zM12 0l486 391l-370 341q-13 12 -24.5 14.5t-36.5 3.5l-53 2v6h212v-6l-49 -2q-29 -2 -36.5 -3.5t0.5 -9.5l377 -347l-486 -390h-20z" />
    <glyph glyph-name="uni049A" unicode="&#x49a;" horiz-adv-x="764" 
d="M67 6l60 2q32 2 32 16v710q0 14 -32 16l-60 2v6h197v-6l-60 -2q-32 -2 -32 -16v-344l417 347q8 7 0.5 9t-36.5 4l-49 2v6h212v-6l-53 -2q-25 -1 -37 -4t-26 -14l-408 -340l522 -381h62l8 -167h-7l-13 144q-1 12 -16 12h-40l-536 390v-366q0 -14 32 -16l60 -2v-6h-197v6z
" />
    <glyph glyph-name="uni04A2" unicode="&#x4a2;" horiz-adv-x="881" 
d="M826 11l8 -167h-7l-13 144q-1 12 -16 12h-181v6l60 2q32 2 32 16v369h-537v-369q0 -14 32 -16l60 -2v-6h-197v6l60 2q32 2 32 16v710q0 14 -32 16l-60 2v6h197v-6l-60 -2q-32 -2 -32 -16v-330h537v330q0 14 -32 16l-60 2v6h197v-6l-60 -2q-32 -2 -32 -16v-723h104z" />
    <glyph glyph-name="uni04AE" unicode="&#x4ae;" horiz-adv-x="769" 
d="M287 6l60 2q32 2 32 16v319l-290 391q-5 7 -10.5 11t-21.5 5l-60 2v6h199v-6l-60 -2q-20 -1 -28.5 -5t-3.5 -11l282 -380l281 380q5 7 -3.5 11t-28.5 5l-60 2v6h198v-6l-60 -2q-16 -1 -21.5 -5t-10.5 -11l-289 -391v-319q0 -14 32 -16l60 -2v-6h-197v6z" />
    <glyph glyph-name="uni04B0" unicode="&#x4b0;" horiz-adv-x="769" 
d="M287 6l60 2q32 2 32 16v319l-290 391q-5 7 -10.5 11t-21.5 5l-60 2v6h199v-6l-60 -2q-20 -1 -28.5 -5t-3.5 -11l282 -380l281 380q5 7 -3.5 11t-28.5 5l-60 2v6h198v-6l-60 -2q-16 -1 -21.5 -5t-10.5 -11l-289 -391v-319q0 -14 32 -16l60 -2v-6h-197v6zM157 344h456v-11
h-456v11z" />
    <glyph glyph-name="uni04B2" unicode="&#x4b2;" horiz-adv-x="792" 
d="M-2 6l57 2q14 1 22 5t13 11l298 380l-258 330q-5 6 -13 10.5t-22 5.5l-57 2v6h200v-6l-60 -3q-20 -1 -28 -5.5t-3 -10.5l249 -318l250 318q5 7 -3 11t-28 5l-60 3v6h198v-6l-57 -2q-14 -1 -22 -5t-13 -11l-258 -329l309 -394h82l8 -167h-7l-13 144q-1 12 -16 12h-172v6
l60 3q20 1 28 5.5t3 10.5l-290 370l-290 -370q-5 -7 3 -11t28 -5l60 -3v-6h-198v6z" />
    <glyph glyph-name="uni04B6" unicode="&#x4b6;" horiz-adv-x="791" 
d="M497 0v6l90 2q32 0 32 16v349q-33 -11 -69 -20q-31 -8 -69.5 -14t-78.5 -6q-27 0 -57.5 2.5t-61 10.5t-58.5 24.5t-49.5 44.5t-34 69.5t-12.5 100.5v149q0 14 -32 16l-60 2v6h197v-6l-60 -2q-32 -2 -32 -16v-149q0 -56 12 -96t32 -66.5t46.5 -42t55.5 -24t59 -10.5t57 -2
q39 0 77.5 6t69.5 14q36 9 68 20v350q0 14 -32 16l-60 2v6h197v-6l-60 -2q-32 -2 -32 -16v-723h104l8 -167h-7l-13 144q-1 12 -16 12h-211z" />
    <glyph glyph-name="uni04BA" unicode="&#x4ba;" horiz-adv-x="791" 
d="M661.96 23.998q0 -13.999 31.998 -15.998l59.9961 -2v-6h-196.988v6l59.9961 2q31.998 1.99902 31.998 15.998v148.991q0 55.9971 -11.999 95.9941q-11.999 39.998 -31.998 66.4961t-46.4971 41.9971t-55.4961 23.999q-28.999 8.49902 -58.9971 10.499t-56.9961 2
q-38.998 0 -77.4951 -6q-38.498 -5.99902 -69.4961 -13.999q-35.998 -8.99902 -67.9961 -19.998v-349.979q0 -13.999 31.998 -15.998l59.9971 -2v-6h-196.988v6l59.9961 2q31.998 1.99902 31.998 15.998v709.957q0 13.999 -31.998 15.999l-59.9961 2v6h226.986v-6
l-89.9951 -2q-31.998 0 -31.998 -15.999v-348.979q32.998 10.999 68.9961 19.999q30.998 7.99902 69.4961 13.999q38.4971 5.99902 78.4951 5.99902q26.998 0 57.4961 -2.49902q30.498 -2.5 60.9961 -10.5q30.498 -7.99902 58.4971 -24.498q27.998 -16.499 49.4971 -44.4971
q21.498 -27.999 33.9971 -69.4961q12.5 -41.4971 12.5 -100.494v-148.991z" />
    <glyph glyph-name="uni04C0" unicode="&#x4c0;" horiz-adv-x="331" 
d="M67 6l60 2q32 2 32 16v710q0 14 -32 16l-60 2v6h197v-6l-60 -2q-32 -2 -32 -16v-710q0 -14 32 -16l60 -2v-6h-197v6z" />
    <glyph glyph-name="uni04D8" unicode="&#x4d8;" horiz-adv-x="833" 
d="M400 -9q-69 0 -126.5 20t-102 56.5t-74 87.5t-42.5 113h688q8 26 11 54t3 58q0 89 -28 159.5t-75.5 119t-111 74.5t-135.5 26q-69 0 -127.5 -19.5t-104 -57t-75.5 -91t-40 -120.5h-8q10 66 39 121t75 94.5t107.5 61t135.5 21.5q86 0 153.5 -30.5t114 -83t71 -123.5
t24.5 -152t-26 -152t-74 -123.5t-117 -83t-155 -30.5zM400 1q58 0 112 17t99 50t78.5 80.5t50.5 108.5h-669q15 -62 46.5 -109.5t74.5 -80t96 -49.5t112 -17z" />
    <glyph glyph-name="uni04E2" unicode="&#x4e2;" horiz-adv-x="871" 
d="M67 6l60 2q32 2 32 16v710q0 14 -32 16l-60 2v6h197v-6l-60 -2q-32 -2 -32 -16v-659l527 632v27q0 14 -32 16l-60 2v6h197v-6l-60 -2q-32 -2 -32 -16v-710q0 -14 32 -16l60 -2v-6h-197v6l60 2q32 2 32 16v667l-527 -632v-35q0 -14 32 -16l60 -2v-6h-197v6zM316 905h274
v-9h-274v9z" />
    <glyph glyph-name="uni04E8" unicode="&#x4e8;" horiz-adv-x="884" 
d="M442 -10q-86 0 -156.5 30.5t-120.5 83t-77.5 123.5t-27.5 152t27.5 152t77.5 123.5t120.5 83t156.5 30.5t156.5 -30.5t120.5 -83t77.5 -123.5t27.5 -152t-27.5 -152t-77.5 -123.5t-120.5 -83t-156.5 -30.5zM442 0q72 0 138 26t117 74.5t81.5 119t30.5 159.5q0 3 -0.5 6.5
t-0.5 7.5h-733v-14q0 -89 30.5 -159.5t81.5 -119t117 -74.5t138 -26zM442 758q-69 0 -133 -24t-114.5 -69.5t-82.5 -111.5t-36 -149h732q-5 83 -36.5 149t-82 111.5t-114.5 69.5t-133 24z" />
    <glyph glyph-name="uni04EE" unicode="&#x4ee;" horiz-adv-x="766" 
d="M373 132q-36 -69 -64 -105.5t-57 -36.5q-11 0 -11 9q0 10 14.5 17t41.5 15q11 14 20 28t19.5 32t23 41.5t30.5 56.5l-310 545q-5 8 -10.5 11.5t-21.5 4.5l-60 2v6h198v-6l-60 -2q-40 -2 -31 -16l302 -531l275 531q7 15 -30 16l-62 2v6h197v-6l-60 -2q-16 -1 -22 -4.5
t-10 -11.5zM259 905h274v-9h-274v9z" />
    <glyph glyph-name="uni0430" unicode="&#x430;" horiz-adv-x="532" 
d="M217 -10q-37 0 -67 11.5t-51.5 30t-33 43.5t-11.5 52q0 36 17.5 61t47 41.5t67.5 28t79 20.5q55 13 85.5 22.5t44.5 18.5t17 19.5t3 25.5q0 28 -8 53t-25.5 44t-46 30t-69.5 11q-42 0 -76 -13t-57.5 -35t-34.5 -51.5t-7 -61.5h-8q-5 0 -7 1t-2 8q0 35 17 68t49 56
q24 17 55.5 27.5t70.5 10.5q163 0 161 -159l-2 -342h81v-8l-93 -7v151q-9 -44 -28.5 -73.5t-45.5 -48.5t-57 -27t-65 -8zM219 0q36 0 71 11t62 35t43.5 62t17.5 92l2 118q-29 -17 -66 -28t-82 -22q-39 -9 -74.5 -19t-63 -26t-44 -39t-16.5 -57q0 -26 11 -49t30.5 -40
t47 -27.5t61.5 -10.5z" />
    <glyph glyph-name="uni0431" unicode="&#x431;" horiz-adv-x="614" 
d="M559 246q0 -56 -20 -103t-54.5 -81t-80.5 -53t-98 -19q-50 0 -93.5 18t-76.5 54t-52 89.5t-19 125.5q0 118 16.5 202t51.5 139.5t90 84.5t133 37q45 5 75.5 8.5t49 8t26.5 12t8 19.5h6q0 -15 -8.5 -24.5t-28 -16t-50.5 -10.5t-77 -9q-67 -7 -117.5 -30t-85 -66
t-53.5 -108t-23 -156q21 37 49.5 63t59.5 41.5t62.5 22.5t57.5 7q52 0 98 -18t80 -51t54 -80.5t20 -106.5zM306 0q46 0 89 17t76 48.5t53 77t20 103.5q0 61 -19.5 107t-52.5 77t-76 46.5t-89 15.5q-24 0 -54.5 -6.5t-62 -21.5t-61.5 -41t-51 -65q-1 -11 -1 -22v-22v-37
q0 -71 19.5 -123.5t52 -86.5t73.5 -50.5t84 -16.5z" />
    <glyph glyph-name="uni0432" unicode="&#x432;" horiz-adv-x="524" 
d="M88 8q32 2 32 16v454q0 14 -32 16l-50 2v6h222q89 0 140.5 -29.5t51.5 -92.5q0 -22 -7 -42t-22.5 -36t-40 -27t-59.5 -14v-1q86 -4 126 -39.5t40 -84.5q0 -32 -11.5 -57.5t-38 -43t-70 -26.5t-108.5 -9h-223v6zM132 492v-227h152q48 0 78 10t46.5 26.5t22.5 37t6 41.5
q0 59 -49 85.5t-134 26.5h-122zM132 10h122q64 0 106.5 8.5t67.5 24.5t35.5 39.5t10.5 53.5q0 22 -8 43t-29.5 38t-58.5 27.5t-94 10.5h-152v-245z" />
    <glyph glyph-name="uni0433" unicode="&#x433;" horiz-adv-x="474" 
d="M132 492v-468q0 -14 32 -16l70 -2v-6h-196v6l50 2q32 2 32 16v454q0 14 -32 16l-50 2v6h383l28 -147h-7l-31 124q-2 8 -7.5 10.5t-15.5 2.5h-256z" />
    <glyph glyph-name="uni0434" unicode="&#x434;" horiz-adv-x="553" 
d="M17 -137h-7l8 147h55q25 47 41 102.5t25 115.5t12.5 123.5t3.5 126.5q0 14 -32 16l-50 2v6h442v-6l-50 -2q-32 -2 -32 -16v-468h80l8 -147h-7l-13 124q-1 8 -6.5 10.5t-14.5 2.5h-429q-9 0 -14.5 -2.5t-6.5 -10.5zM421 492h-255q-2 -151 -18.5 -272.5t-63.5 -209.5h337
v482z" />
    <glyph glyph-name="uni0435" unicode="&#x435;" horiz-adv-x="580" 
d="M302 -10q-53 0 -98 18.5t-78 53t-51.5 83t-18.5 108.5q0 62 20.5 110.5t54.5 81.5t76.5 50t87.5 17q90 0 153 -54t78 -156h-451q-2 -11 -3 -23.5t-1 -25.5q0 -54 16.5 -100.5t47 -80t73.5 -52.5t96 -19q32 0 66.5 8t65 27t54 50t34.5 77h7q-11 -49 -35.5 -82t-56 -53.5
t-67.5 -29t-70 -8.5zM294 502q-36 0 -71.5 -12.5t-65 -36.5t-51 -59.5t-30.5 -81.5h432q-5 43 -22.5 78t-45.5 60t-65 38.5t-81 13.5z" />
    <glyph glyph-name="uni0451" unicode="&#x451;" horiz-adv-x="580" 
d="M302 -10q-53 0 -98 18.5t-78 53t-51.5 83t-18.5 108.5q0 62 20.5 110.5t54.5 81.5t76.5 50t87.5 17q90 0 153 -54t78 -156h-451q-2 -11 -3 -23.5t-1 -25.5q0 -54 16.5 -100.5t47 -80t73.5 -52.5t96 -19q32 0 66.5 8t65 27t54 50t34.5 77h7q-11 -49 -35.5 -82t-56 -53.5
t-67.5 -29t-70 -8.5zM294 502q-36 0 -71.5 -12.5t-65 -36.5t-51 -59.5t-30.5 -81.5h432q-5 43 -22.5 78t-45.5 60t-65 38.5t-81 13.5zM422 690q-8 0 -13.5 5.5t-5.5 13.5t5.5 13.5t13.5 5.5t13.5 -5.5t5.5 -13.5t-5.5 -13.5t-13.5 -5.5zM182 690q-8 0 -13.5 5.5t-5.5 13.5
t5.5 13.5t13.5 5.5t13.5 -5.5t5.5 -13.5t-5.5 -13.5t-13.5 -5.5z" />
    <glyph glyph-name="uni0436" unicode="&#x436;" horiz-adv-x="762" 
d="M15 0l346 268l-271 212q-11 8 -19 10.5t-22 3.5l-44 2v6h159v-6l-32 -1q-26 -1 -28 -5.5t6 -10.5l265 -208v207q0 14 -32 16l-50 2v6h176v-6l-50 -2q-32 -2 -32 -16v-207l265 208q8 6 6 10.5t-28 5.5l-32 1v6h159v-6l-44 -2q-14 -1 -23 -3.5t-20 -10.5l-269 -211
l348 -269h-18l-344 266v-242q0 -14 32 -16l50 -2v-6h-176v6l50 2q32 2 32 16v242l-344 -266h-16z" />
    <glyph glyph-name="uni0437" unicode="&#x437;" horiz-adv-x="477" 
d="M256 -10q-56 0 -94 14t-62 33.5t-34.5 39t-10.5 31.5q0 11 11 11h4q13 -55 58.5 -87t127.5 -32q83 0 127 34t44 97q0 22 -8 44.5t-28.5 40t-56 28.5t-90.5 11h-77v10h77q48 0 78 11t46.5 28.5t22.5 39.5t6 43q0 33 -13 55t-34.5 35.5t-48.5 19t-55 5.5q-17 0 -41.5 -2
t-47.5 -10q-19 -6 -33 -14.5t-18 -25.5l-25 -109h-7l20 127q15 13 34 21.5t39.5 13.5t40.5 7t38 2q31 0 61 -6.5t53 -21t37.5 -38.5t14.5 -59q0 -23 -7 -44t-22.5 -38.5t-40 -29t-59.5 -14.5v-1q83 -4 121 -41t38 -88q0 -67 -47.5 -104t-138.5 -37z" />
    <glyph glyph-name="uni0438" unicode="&#x438;" horiz-adv-x="613" 
d="M120 478q0 14 -32 16l-50 2v6h176v-6l-50 -2q-32 -2 -32 -16v-412l349 389v23q0 14 -32 16l-50 2v6h176v-6l-50 -2q-32 -2 -32 -16v-454q0 -14 32 -16l50 -2v-6h-176v6l50 2q32 2 32 16v416l-349 -389v-27q0 -14 32 -16l50 -2v-6h-176v6l50 2q32 2 32 16v454z" />
    <glyph glyph-name="uni0439" unicode="&#x439;" horiz-adv-x="613" 
d="M120 478q0 14 -32 16l-50 2v6h176v-6l-50 -2q-32 -2 -32 -16v-412l349 389v23q0 14 -32 16l-50 2v6h176v-6l-50 -2q-32 -2 -32 -16v-454q0 -14 32 -16l50 -2v-6h-176v6l50 2q32 2 32 16v416l-349 -389v-27q0 -14 32 -16l50 -2v-6h-176v6l50 2q32 2 32 16v454zM303 594
q-40 0 -69 11t-47.5 31t-27.5 47.5t-9 60.5h13q0 -41 13.5 -68t34 -43t45 -22.5t47.5 -6.5q24 0 48.5 6.5t45 22.5t33.5 43t13 68h13q0 -74 -42 -112t-111 -38z" />
    <glyph glyph-name="uni043A" unicode="&#x43a;" horiz-adv-x="537" 
d="M120 478q0 14 -32 16l-50 2v6h176v-6l-50 -2q-32 -2 -32 -16v-207l285 208q8 6 6 10.5t-28 5.5l-32 1v6h159v-6l-44 -2q-14 -1 -23 -3.5t-20 -10.5l-289 -211l369 -269h-19l-364 266v-242q0 -14 32 -16l50 -2v-6h-176v6l50 2q32 2 32 16v454z" />
    <glyph glyph-name="uni043B" unicode="&#x43b;" horiz-adv-x="573" 
d="M86 2q-12 -12 -26 -12q-8 0 -8 7t9 14t37 21q46 64 64 178t18 268q0 15 -34 16l-50 2v6h439v-6l-50 -2q-32 -2 -32 -16v-454q0 -14 32 -16l50 -2v-6h-176v6l50 2q32 2 32 16v468h-251q0 -85 -4.5 -160.5t-16.5 -138.5t-32 -111.5t-51 -79.5z" />
    <glyph glyph-name="uni043C" unicode="&#x43c;" horiz-adv-x="737" 
d="M38 6l49 2q32 1 33 16l26 454q1 8 -4 11.5t-25 4.5l-53 2v6h101l206 -367l204 367h98v-6l-55 -2q-16 -1 -22 -4.5t-5 -11.5l26 -454q1 -15 33 -16l49 -2v-6h-176v6l50 2q33 2 32 16l-26 464l-206 -371h-6l-209 372l-26 -465q-1 -14 32 -16l50 -2v-6h-176v6z" />
    <glyph glyph-name="uni043D" unicode="&#x43d;" horiz-adv-x="603" 
d="M120 478q0 14 -32 16l-50 2v6h176v-6l-50 -2q-32 -2 -32 -16v-213h339v213q0 14 -32 16l-50 2v6h176v-6l-50 -2q-32 -2 -32 -16v-454q0 -14 32 -16l50 -2v-6h-176v6l50 2q32 2 32 16v231h-339v-231q0 -14 32 -16l50 -2v-6h-176v6l50 2q32 2 32 16v454z" />
    <glyph glyph-name="uni043E" unicode="&#x43e;" horiz-adv-x="614" 
d="M307 -10q-47 0 -92 17.5t-80.5 50.5t-57.5 81.5t-22 111.5t22 111.5t57.5 81.5t80.5 50.5t92 17.5q46 0 91.5 -17.5t81 -50.5t57.5 -81.5t22 -111.5t-22 -111.5t-57.5 -81.5t-81 -50.5t-91.5 -17.5zM307 0q42 0 84.5 16t76.5 47.5t55 78.5t21 109t-21 109t-55 78.5
t-76.5 47.5t-84.5 16t-84.5 -16t-76.5 -47.5t-55 -78.5t-21 -109t21 -109t55 -78.5t76.5 -47.5t84.5 -16z" />
    <glyph glyph-name="uni043F" unicode="&#x43f;" horiz-adv-x="593" 
d="M132 492v-468q0 -14 32 -16l50 -2v-6h-176v6l50 2q32 2 32 16v454q0 14 -32 16l-50 2v6h517v-6l-50 -2q-32 -2 -32 -16v-454q0 -14 32 -16l50 -2v-6h-176v6l50 2q32 2 32 16v468h-329z" />
    <glyph glyph-name="uni0440" unicode="&#x440;" horiz-adv-x="610" 
d="M33 -242l50 2q32 2 32 16v711l-82 9v6h94v-80q26 42 75.5 66t102.5 24q57 0 103 -20.5t78.5 -55.5t50 -82.5t17.5 -102.5t-17.5 -102.5t-50 -83t-78.5 -55.5t-103 -20q-27 0 -53.5 6.5t-50 18t-42.5 28t-32 37.5v-304q0 -14 32 -16l70 -2v-6h-196v6zM127 85
q38 -48 86.5 -66.5t91.5 -18.5q54 0 97.5 20t73.5 54t46.5 79.5t16.5 97.5t-16.5 97.5t-46.5 79.5t-73.5 54t-97.5 20q-43 0 -91.5 -18.5t-86.5 -66.5v-332z" />
    <glyph glyph-name="uni0441" unicode="&#x441;" horiz-adv-x="569" 
d="M302 -10q-53 0 -98 18.5t-78 53t-51.5 83t-18.5 108.5q0 62 21.5 110.5t56 81.5t79 50t90.5 17q53 0 91.5 -14t63 -33.5t36.5 -39t12 -31.5q0 -11 -11 -11h-4q-13 55 -63 87t-126 32q-43 0 -84.5 -16.5t-74 -48.5t-52.5 -78t-20 -106q0 -54 16.5 -100.5t47 -80
t73.5 -52.5t96 -19q32 0 66.5 8t65 27t54 50t34.5 77h7q-11 -49 -35.5 -82t-56 -53.5t-67.5 -29t-70 -8.5z" />
    <glyph glyph-name="uni0442" unicode="&#x442;" horiz-adv-x="536" 
d="M86 492q-10 0 -15.5 -2.5t-7.5 -10.5l-31 -124h-7l28 147h430l28 -147h-7l-31 124q-2 8 -7.5 10.5t-15.5 2.5h-176v-468q0 -14 32 -16l60 -2v-6h-196v6l60 2q32 2 32 16v468h-176z" />
    <glyph glyph-name="uni0443" unicode="&#x443;" horiz-adv-x="572" 
d="M162 -250q-9 0 -9 9t9 24t26 31l88 196l-195 468q-3 8 -9.5 11.5t-22.5 4.5l-50 2v6h177v-6l-50 -2q-38 -1 -32 -16l189 -452l201 452q6 15 -32 16l-50 2v6h176v-6l-50 -2q-16 -1 -22.5 -4.5t-9.5 -11.5l-304 -683q-12 -28 -18 -36.5t-12 -8.5z" />
    <glyph glyph-name="uni0444" unicode="&#x444;" horiz-adv-x="714" 
d="M351 502q-53 0 -103.5 -16t-90 -47.5t-63.5 -78.5t-24 -109t24 -109t63.5 -78.5t90 -47.5t103.5 -16v502zM644 251q0 62 -24 109t-63.5 78.5t-90 47.5t-103.5 16v-502q53 0 103.5 16t90 47.5t63.5 78.5t24 109zM269 -242l50 2q32 2 32 16v214q-58 0 -111.5 17.5
t-94.5 50.5t-65.5 81.5t-24.5 111.5t24.5 111.5t65.5 81.5t94.5 50.5t111.5 17.5v231l-82 9v6h94v-246q58 0 111.5 -17.5t94.5 -50.5t65.5 -81.5t24.5 -111.5t-24.5 -111.5t-65.5 -81.5t-94.5 -50.5t-111.5 -17.5v-214q0 -14 32 -16l50 -2v-6h-176v6z" />
    <glyph glyph-name="uni0445" unicode="&#x445;" horiz-adv-x="598" 
d="M13 6l47 2q28 1 37 13l195 238l-178 222q-9 12 -37 13l-47 2v6h179v-6l-50 -2q-38 -1 -29 -14l170 -212l174 212q10 13 -29 14l-50 2v6h178v-6l-47 -2q-28 -1 -37 -13l-182 -221l192 -239q9 -12 35 -13l47 -2v-6h-179v6l50 2q40 2 31 14l-184 228l-187 -228
q-10 -13 29 -14l50 -2v-6h-178v6z" />
    <glyph glyph-name="uni0446" unicode="&#x446;" horiz-adv-x="593" 
d="M38 0v6l50 2q32 2 32 16v454q0 14 -32 16l-50 2v6h176v-6l-50 -2q-32 -2 -32 -16v-468h329v468q0 14 -32 16l-50 2v6h176v-6l-50 -2q-32 -2 -32 -16v-468h80l8 -147h-7l-13 124q-1 8 -6.5 10.5t-14.5 2.5h-482z" />
    <glyph glyph-name="uni0447" unicode="&#x447;" horiz-adv-x="570" 
d="M107 478q0 14 -32 16l-50 2v6h176v-6l-50 -2q-32 -2 -32 -16v-84q0 -52 10.5 -85t30.5 -52.5t50.5 -27t71.5 -7.5q55 0 97 11.5t59 17.5v227q0 14 -32 16l-50 2v6h176v-6l-50 -2q-32 -2 -32 -16v-454q0 -14 32 -16l50 -2v-6h-186v6l60 2q32 2 32 16v218q-17 -7 -59 -18.5
t-97 -11.5q-44 0 -76.5 8t-54.5 29t-33 56t-11 89v84z" />
    <glyph glyph-name="uni0448" unicode="&#x448;" horiz-adv-x="836" 
d="M412 10v468q0 14 -32 16l-50 2v6h176v-6l-50 -2q-32 -2 -32 -16v-468h280v468q0 14 -32 16l-50 2v6h176v-6l-50 -2q-32 -2 -32 -16v-454q0 -14 32 -16l50 -2v-6h-760v6l50 2q32 2 32 16v454q0 14 -32 16l-50 2v6h176v-6l-50 -2q-32 -2 -32 -16v-468h280z" />
    <glyph glyph-name="uni0449" unicode="&#x449;" horiz-adv-x="836" 
d="M38 0v6l50 2q32 2 32 16v454q0 14 -32 16l-50 2v6h176v-6l-50 -2q-32 -2 -32 -16v-468h280v468q0 14 -32 16l-50 2v6h176v-6l-50 -2q-32 -2 -32 -16v-468h280v468q0 14 -32 16l-50 2v6h176v-6l-50 -2q-32 -2 -32 -16v-468h80l8 -147h-7l-13 124q-1 8 -6.5 10.5t-14.5 2.5
h-725z" />
    <glyph glyph-name="uni044A" unicode="&#x44a;" horiz-adv-x="569" 
d="M86 492q-10 0 -15.5 -2.5t-7.5 -10.5l-31 -124h-7l28 147h261v-6l-60 -2q-32 -2 -32 -16v-183h89q64 0 107.5 -11t70.5 -30.5t38.5 -46.5t11.5 -60t-11.5 -60.5t-38.5 -46.5t-70.5 -29.5t-107.5 -10.5h-183v6l50 2q32 2 32 16v468h-124zM222 10h82q67 0 110 9.5
t67.5 27.5t33.5 43t9 57q0 30 -9 55.5t-33.5 44t-67.5 28.5t-110 10h-82v-275z" />
    <glyph glyph-name="uni044B" unicode="&#x44b;" horiz-adv-x="703" 
d="M571 478q0 14 -32 16l-50 2v6h176v-6l-50 -2q-32 -2 -32 -16v-454q0 -14 32 -16l50 -2v-6h-176v6l50 2q32 2 32 16v454zM224 496l-60 -2q-32 -2 -32 -16v-183h89q64 0 107.5 -11t70.5 -30.5t38.5 -46.5t11.5 -60t-11.5 -60.5t-38.5 -46.5t-70.5 -29.5t-107.5 -10.5h-183
v6l50 2q32 2 32 16v454q0 14 -32 16l-50 2v6h186v-6zM132 10h82q67 0 110 9.5t67.5 27.5t33.5 43t9 57q0 30 -9 55.5t-33.5 44t-67.5 28.5t-110 10h-82v-275z" />
    <glyph glyph-name="uni044C" unicode="&#x44c;" horiz-adv-x="479" 
d="M224 496l-60 -2q-32 -2 -32 -16v-183h89q64 0 107.5 -11t70.5 -30.5t38.5 -46.5t11.5 -60t-11.5 -60.5t-38.5 -46.5t-70.5 -29.5t-107.5 -10.5h-183v6l50 2q32 2 32 16v454q0 14 -32 16l-50 2v6h186v-6zM132 10h82q67 0 110 9.5t67.5 27.5t33.5 43t9 57q0 30 -9 55.5
t-33.5 44t-67.5 28.5t-110 10h-82v-275z" />
    <glyph glyph-name="uni044D" unicode="&#x44d;" horiz-adv-x="555" 
d="M197 265h288q-3 48 -20.5 91.5t-48 75.5t-73 51t-93.5 19q-20 0 -49 -3t-55 -11q-19 -6 -33 -14.5t-18 -23.5l-25 -109h-7l20 127q16 12 37 20.5t43.5 14t45 7.5t41.5 2q55 0 101 -20t79 -55.5t51.5 -83.5t18.5 -104q0 -62 -19 -110.5t-52.5 -81.5t-78.5 -50t-97 -17
q-53 0 -91.5 14t-63 33.5t-36.5 39t-12 31.5q0 11 11 11h4q13 -55 63 -87t126 -32q49 0 91.5 16.5t73.5 48.5t48.5 78t17.5 106v6h-288v10z" />
    <glyph glyph-name="uni044E" unicode="&#x44e;" horiz-adv-x="804" 
d="M120 478q0 14 -32 16l-50 2v6h176v-6l-50 -2q-32 -2 -32 -16v-213h133q3 59 24.5 105t55.5 77.5t76 48t86 16.5q45 0 88 -17.5t77.5 -50.5t55.5 -81.5t21 -111.5t-21 -111.5t-55.5 -81.5t-77.5 -50.5t-88 -17.5t-88 17.5t-77.5 50.5t-55.5 81.5t-21 111.5v4h-133v-231
q0 -14 32 -16l50 -2v-6h-176v6l50 2q32 2 32 16v454zM507 0q40 0 81 16t73 47.5t52.5 78.5t20.5 109t-20.5 109t-52.5 78.5t-73 47.5t-81 16q-41 0 -81.5 -16t-72.5 -47.5t-52.5 -78.5t-20.5 -109t20.5 -109t52.5 -78.5t72.5 -47.5t81.5 -16z" />
    <glyph glyph-name="uni044F" unicode="&#x44f;" horiz-adv-x="515" 
d="M244 229q-29 0 -57.5 7.5t-51.5 23t-37 40t-14 59.5q0 40 15 67.5t41 44.5t59.5 24t71.5 7h206v-6l-50 -2q-32 -2 -32 -16v-454q0 -14 32 -16l50 -2v-6h-176v6l50 2q32 2 32 16v202h-129l-206 -226h-13zM277 492q-40 0 -72.5 -6.5t-56 -22t-36.5 -41t-13 -63.5
q0 -34 13 -57.5t37.5 -38t59 -21t78.5 -6.5h96v256h-106z" />
    <glyph glyph-name="uni0452" unicode="&#x452;" horiz-adv-x="578" 
d="M476 292q0 109 -39 159.5t-126 50.5q-39 0 -72.5 -14t-58.5 -40.5t-39 -65.5t-14 -90v-268q0 -14 32 -16l50 -2v-6h-176v6l50 2q32 2 32 16v601h-82v11h82v107l-82 9v6h94v-122h153v-11h-153v-279q7 46 25.5 77.5t44 51t56 28.5t62.5 9q94 0 132.5 -54t40.5 -164v-280
q0 -53 -2.5 -88.5t-10.5 -60.5t-22.5 -43.5t-38.5 -38.5q-11 -10 -24 -20t-28 -21l-3 4q37 30 60 52t36 48.5t17 65t4 102.5v278z" />
    <glyph glyph-name="uni0453" unicode="&#x453;" horiz-adv-x="474" 
d="M132 492v-468q0 -14 32 -16l70 -2v-6h-196v6l50 2q32 2 32 16v454q0 14 -32 16l-50 2v6h383l28 -147h-7l-31 124q-2 8 -7.5 10.5t-15.5 2.5h-256zM369 758h15v-1l-112 -178h-9z" />
    <glyph glyph-name="uni0454" unicode="&#x454;" horiz-adv-x="570" 
d="M302 -10q-53 0 -98 18.5t-78 53t-51.5 83t-18.5 108.5q0 62 21.5 110.5t56 81.5t79 50t90.5 17q53 0 91.5 -14t63 -33.5t36.5 -39t12 -31.5q0 -11 -11 -11h-4q-13 55 -63 87t-126 32q-42 0 -82.5 -16t-73 -46t-53 -74t-22.5 -101h299v-10h-299v-2q0 -54 16.5 -100.5
t47 -80t73.5 -52.5t96 -19q32 0 66.5 8t65 27t54 50t34.5 77h7q-11 -49 -35.5 -82t-56 -53.5t-67.5 -29t-70 -8.5z" />
    <glyph glyph-name="uni0455" unicode="&#x455;" horiz-adv-x="472" 
d="M235 -10q-49 0 -91 11.5t-71 34.5l-12 137h7l18 -119q2 -14 18.5 -24.5t41.5 -18.5q41 -11 88 -11q34 0 64 8.5t52.5 24.5t36 39.5t13.5 53.5t-11 51.5t-30 36t-46 23t-58 14.5l-45 8q-66 12 -101.5 44t-35.5 87q0 24 11 46t32 39t51 27t69 10q38 0 73 -10.5t62 -33.5
l20 -127h-7l-25 109q-4 15 -18 25t-33 16t-38.5 8.5t-33.5 2.5q-71 0 -110.5 -33t-39.5 -80q0 -48 33 -77.5t93 -40.5l49 -9q73 -14 113 -44.5t40 -90.5q0 -32 -14 -57t-38 -43t-56.5 -27.5t-70.5 -9.5z" />
    <glyph glyph-name="uni0456" unicode="&#x456;" horiz-adv-x="255" 
d="M42 6l50 2q32 2 32 16v463l-82 9v6h94v-478q0 -14 32 -16l50 -2v-6h-176v6zM111 739q0 8 5.5 13.5t13.5 5.5t13.5 -5.5t5.5 -13.5t-5.5 -13.5t-13.5 -5.5t-13.5 5.5t-5.5 13.5z" />
    <glyph glyph-name="uni0457" unicode="&#x457;" horiz-adv-x="255" 
d="M46 720q-8 0 -13.5 5.5t-5.5 13.5t5.5 13.5t13.5 5.5t13.5 -5.5t5.5 -13.5t-5.5 -13.5t-13.5 -5.5zM186 720q-8 0 -13.5 5.5t-5.5 13.5t5.5 13.5t13.5 5.5t13.5 -5.5t5.5 -13.5t-5.5 -13.5t-13.5 -5.5zM42 6l50 2q32 2 32 16v463l-82 9v6h94v-478q0 -14 32 -16l50 -2v-6
h-176v6z" />
    <glyph glyph-name="uni0458" unicode="&#x458;" horiz-adv-x="231" 
d="M-2 -254q37 30 60 52t36 48.5t17 65t4 102.5v473l-82 9v6h94v-488q0 -53 -2.5 -88.5t-10.5 -60.5t-22.5 -43.5t-38.5 -38.5q-11 -10 -24 -20t-28 -21zM102 739q0 8 5.5 13.5t13.5 5.5t13.5 -5.5t5.5 -13.5t-5.5 -13.5t-13.5 -5.5t-13.5 5.5t-5.5 13.5z" />
    <glyph glyph-name="uni0459" unicode="&#x459;" horiz-adv-x="760" 
d="M505 496l-50 -2q-32 -2 -32 -16v-193h79q64 0 107.5 -10.5t70.5 -29t38.5 -45t11.5 -58.5t-11.5 -58.5t-38.5 -45t-70.5 -28.5t-107.5 -10h-173v6l50 2q32 2 32 16v468h-221q0 -152 -16.5 -271.5t-62.5 -188.5q-11 -16 -23.5 -29t-25.5 -13q-10 0 -10 8t12.5 16t35.5 19
q45 66 62.5 179.5t17.5 265.5q0 15 -34 16l-50 2v6h409v-6zM423 10h72q67 0 110 9t67.5 26.5t33.5 42t9 54.5q0 29 -9 53.5t-33.5 42t-67.5 27.5t-110 10h-72v-265z" />
    <glyph glyph-name="uni045A" unicode="&#x45a;" horiz-adv-x="780" 
d="M120 478q0 14 -32 16l-50 2v6h176v-6l-50 -2q-32 -2 -32 -16v-203h299v203q0 14 -32 16l-50 2v6h176v-6l-50 -2q-32 -2 -32 -16v-203h79q64 0 107.5 -10t70.5 -28t38.5 -43.5t11.5 -56.5t-11.5 -56.5t-38.5 -43.5t-70.5 -27.5t-107.5 -9.5h-173v6l50 2q32 2 32 16v241
h-299v-241q0 -14 32 -16l50 -2v-6h-176v6l50 2q32 2 32 16v454zM443 10h72q67 0 110 9t67.5 25.5t33.5 40t9 52.5q0 28 -9 51.5t-33.5 40.5t-67.5 26.5t-110 9.5h-72v-255z" />
    <glyph glyph-name="uni045B" unicode="&#x45b;" horiz-adv-x="599" 
d="M33 6l50 2q32 2 32 16v719l-82 9v6h94v-412q7 46 25.5 77.5t44 51t56 28.5t62.5 9q94 0 133.5 -53.5t39.5 -164.5v-270q0 -14 32 -16l50 -2v-6h-176v6l50 2q32 2 32 16v268q0 109 -39 159.5t-126 50.5q-39 0 -72.5 -14t-58.5 -40.5t-39 -65.5t-14 -90v-268q0 -14 32 -16
l50 -2v-6h-176v6zM33 636h247v-11h-247v11z" />
    <glyph glyph-name="uni045C" unicode="&#x45c;" horiz-adv-x="537" 
d="M406 758h15v-1l-112 -178h-9zM120 478q0 14 -32 16l-50 2v6h176v-6l-50 -2q-32 -2 -32 -16v-207l285 208q8 6 6 10.5t-28 5.5l-32 1v6h159v-6l-44 -2q-14 -1 -23 -3.5t-20 -10.5l-289 -211l369 -269h-19l-364 266v-242q0 -14 32 -16l50 -2v-6h-176v6l50 2q32 2 32 16v454
z" />
    <glyph glyph-name="uni045E" unicode="&#x45e;" horiz-adv-x="572" 
d="M162 -250q-9 0 -9 9t9 24t26 31l88 196l-195 468q-3 8 -9.5 11.5t-22.5 4.5l-50 2v6h177v-6l-50 -2q-38 -1 -32 -16l189 -452l201 452q6 15 -32 16l-50 2v6h176v-6l-50 -2q-16 -1 -22.5 -4.5t-9.5 -11.5l-304 -683q-12 -28 -18 -36.5t-12 -8.5zM296 594q-40 0 -69 11
t-47.5 31t-27.5 47.5t-9 60.5h13q0 -41 13.5 -68t34 -43t45 -22.5t47.5 -6.5q24 0 48.5 6.5t45 22.5t33.5 43t13 68h13q0 -74 -42 -112t-111 -38z" />
    <glyph glyph-name="uni045F" unicode="&#x45f;" horiz-adv-x="593" 
d="M288 -13q0 8 -6 10.5t-15 2.5h-229v6l50 2q32 2 32 16v454q0 14 -32 16l-50 2v6h176v-6l-50 -2q-32 -2 -32 -16v-468h329v468q0 14 -32 16l-50 2v6h176v-6l-50 -2q-32 -2 -32 -16v-454q0 -14 32 -16l50 -2v-6h-228q-9 0 -15 -2.5t-6 -10.5l-5 -124h-8z" />
    <glyph glyph-name="uni0491" unicode="&#x491;" horiz-adv-x="444" 
d="M132 492v-468q0 -14 32 -16l70 -2v-6h-196v6l50 2q32 2 32 16v454q0 14 -32 16l-50 2v6h340q9 0 14.5 2.5t6.5 10.5l13 124h7l-8 -147h-279z" />
    <glyph glyph-name="uni0463" unicode="&#x463;" horiz-adv-x="576" 
d="M217 492h-146q-10 0 -15.5 -2.5t-7.5 -10.5l-31 -124h-7l28 147h179v241l-82 9v6h94v-256h179l28 -147h-7l-31 124q-2 8 -7.5 10.5t-15.5 2.5h-146v-217h89q118 0 173 -36t55 -102q0 -67 -55 -102t-173 -35h-183v6l50 2q32 2 32 16v468zM229 10h82q62 0 104.5 8t68 24
t36.5 39.5t11 55.5q0 30 -11 54t-36.5 40.5t-68 25t-104.5 8.5h-82v-255z" />
    <glyph glyph-name="uni0473" unicode="&#x473;" horiz-adv-x="614" 
d="M307 -10q-47 0 -92 17.5t-80.5 50.5t-57.5 81.5t-22 111.5t22 111.5t57.5 81.5t80.5 50.5t92 17.5q46 0 91.5 -17.5t81 -50.5t57.5 -81.5t22 -111.5t-22 -111.5t-57.5 -81.5t-81 -50.5t-91.5 -17.5zM70 253q43 20 85.5 21.5t83.5 -5.5t80.5 -18.5t77.5 -18.5t75 -4.5
t72 22.5v1q0 62 -21 109t-55 78.5t-76.5 47.5t-84.5 16t-84.5 -16t-76 -47t-55 -78t-21.5 -108zM307 0q42 0 83.5 15.5t75 45.5t55 75.5t23.5 105.5q-36 -22 -72.5 -25t-75 3t-77.5 17.5t-80 19t-83 6t-86 -19.5q1 -60 22.5 -105.5t55 -76t75.5 -46t84 -15.5z" />
    <glyph glyph-name="uni0475" unicode="&#x475;" horiz-adv-x="554" 
d="M436 369q22 52 38 80.5t27.5 42.5t18.5 17t11 3q9 0 9 -9q0 -8 -14 -19.5t-35 -25.5q-11 -14 -20.5 -35t-23.5 -55l-158 -378h-7l-204 488q-3 8 -9.5 11.5t-22.5 4.5l-50 2v6h177v-6l-50 -2q-38 -1 -32 -16l195 -467z" />
    <glyph glyph-name="uni0493" unicode="&#x493;" horiz-adv-x="474" 
d="M132 492v-227h169v-11h-169v-230q0 -14 32 -16l70 -2v-6h-196v6l50 2q32 2 32 16v230h-82v11h82v213q0 14 -32 16l-50 2v6h383l28 -147h-7l-31 124q-2 8 -7.5 10.5t-15.5 2.5h-256z" />
    <glyph glyph-name="uni0497" unicode="&#x497;" horiz-adv-x="801" 
d="M15 0l346 268l-271 212q-11 8 -19 10.5t-22 3.5l-44 2v6h159v-6l-32 -1q-26 -1 -28 -5.5t6 -10.5l265 -208v207q0 14 -32 16l-50 2v6h176v-6l-50 -2q-32 -2 -32 -16v-207l265 208q8 6 6 10.5t-28 5.5l-32 1v6h159v-6l-44 -2q-14 -1 -23 -3.5t-20 -10.5l-269 -211
l335 -259h52l8 -147h-7l-13 124q-1 8 -6.5 10.5t-14.5 2.5h-24l-344 266v-242q0 -14 32 -16l50 -2v-6h-176v6l50 2q32 2 32 16v242l-344 -266h-16z" />
    <glyph glyph-name="uni049B" unicode="&#x49b;" horiz-adv-x="566" 
d="M120 478q0 14 -32 16l-50 2v6h176v-6l-50 -2q-32 -2 -32 -16v-207l285 208q8 6 6 10.5t-28 5.5l-32 1v6h159v-6l-44 -2q-14 -1 -23 -3.5t-20 -10.5l-289 -211l355 -259h52l8 -147h-7l-13 124q-1 8 -6.5 10.5t-14.5 2.5h-24l-364 266v-242q0 -14 32 -16l50 -2v-6h-176v6
l50 2q32 2 32 16v454z" />
    <glyph glyph-name="uni04A3" unicode="&#x4a3;" horiz-adv-x="603" 
d="M120 478q0 14 -32 16l-50 2v6h176v-6l-50 -2q-32 -2 -32 -16v-213h339v213q0 14 -32 16l-50 2v6h176v-6l-50 -2q-32 -2 -32 -16v-468h80l8 -147h-7l-13 124q-1 8 -6.5 10.5t-14.5 2.5h-141v6l50 2q32 2 32 16v231h-339v-231q0 -14 32 -16l50 -2v-6h-176v6l50 2
q32 2 32 16v454z" />
    <glyph glyph-name="uni04AF" unicode="&#x4af;" horiz-adv-x="571" 
d="M198 -242l50 2q32 2 32 16v223l-202 479q-3 8 -9.5 11.5t-22.5 4.5l-50 2v6h177v-6l-50 -2q-38 -1 -32 -16l195 -465l195 465q6 15 -32 16l-50 2v6h176v-6l-50 -2q-16 -1 -22.5 -4.5t-9.5 -11.5l-201 -479v-223q0 -14 32 -16l50 -2v-6h-176v6z" />
    <glyph glyph-name="uni04B1" unicode="&#x4b1;" horiz-adv-x="571" 
d="M103 0h176l-201 478q-3 8 -9.5 11.5t-22.5 4.5l-50 2v6h177v-6l-50 -2q-38 -1 -32 -16l195 -465l195 465q6 15 -32 16l-50 2v6h176v-6l-50 -2q-16 -1 -22.5 -4.5t-9.5 -11.5l-201 -478h177v-10h-177v-214q0 -14 32 -16l50 -2v-6h-176v6l50 2q32 2 32 16v214h-177v10z" />
    <glyph glyph-name="uni04B3" unicode="&#x4b3;" horiz-adv-x="598" 
d="M13 6l47 2q28 1 37 13l195 238l-178 222q-9 12 -37 13l-47 2v6h179v-6l-50 -2q-38 -1 -29 -14l170 -212l174 212q10 13 -29 14l-50 2v6h178v-6l-47 -2q-28 -1 -37 -13l-182 -221l201 -250h82l8 -147h-7l-13 124q-1 8 -6.5 10.5t-14.5 2.5h-155v6l50 2q40 2 31 14
l-184 228l-187 -228q-10 -13 29 -14l50 -2v-6h-178v6z" />
    <glyph glyph-name="uni04B7" unicode="&#x4b7;" horiz-adv-x="570" 
d="M107 478q0 14 -32 16l-50 2v6h176v-6l-50 -2q-32 -2 -32 -16v-84q0 -52 10.5 -85t30.5 -52.5t50.5 -27t71.5 -7.5q55 0 97 11.5t59 17.5v227q0 14 -32 16l-50 2v6h176v-6l-50 -2q-32 -2 -32 -16v-468h80l8 -147h-7l-13 124q-1 8 -6.5 10.5t-14.5 2.5h-151v6l60 2
q32 2 32 16v218q-17 -7 -59 -18.5t-97 -11.5q-44 0 -76.5 8t-54.5 29t-33 56t-11 89v84z" />
    <glyph glyph-name="uni04BB" unicode="&#x4bb;" horiz-adv-x="599" 
d="M33 6l50 2q32 2 32 16v719l-82 9v6h94v-412q7 46 25.5 77.5t44 51t56 28.5t62.5 9q94 0 133.5 -53.5t39.5 -164.5v-270q0 -14 32 -16l50 -2v-6h-176v6l50 2q32 2 32 16v268q0 109 -39 159.5t-126 50.5q-39 0 -72.5 -14t-58.5 -40.5t-39 -65.5t-14 -90v-268q0 -14 32 -16
l50 -2v-6h-176v6z" />
    <glyph glyph-name="uni04CF" unicode="&#x4cf;" horiz-adv-x="250" 
d="M119 734q0 14 -32 16l-50 2v6h176v-6l-50 -2q-32 -2 -32 -16v-710q0 -14 32 -16l50 -2v-6h-176v6l50 2q32 2 32 16v710z" />
    <glyph glyph-name="uni04D9" unicode="&#x4d9;" horiz-adv-x="580" 
d="M277.983 512.969q52.9961 0 97.9932 -18.499q44.998 -18.499 77.9961 -52.9971q32.998 -34.4971 51.4961 -82.9941q18.499 -48.4971 18.499 -108.494q0 -61.9961 -20.498 -110.493q-20.499 -48.4971 -54.4971 -81.4951t-76.4951 -49.9961
q-42.498 -16.999 -87.4951 -16.999q-89.9941 0 -152.99 53.9961q-62.9961 53.9971 -77.9951 155.99h450.972q2 11 3 23.499t1 25.498q0 53.9971 -16.499 100.494t-46.9971 79.9951t-73.4951 52.4971q-42.998 18.999 -95.9941 18.999q-31.998 0 -66.4961 -8
q-34.498 -7.99902 -64.9961 -26.998t-53.9971 -49.9971q-23.498 -30.998 -34.498 -76.9951h-6.99902q10.999 48.9971 35.498 81.9951q24.498 32.998 55.9961 53.4961q31.498 20.499 67.4961 28.998q35.998 8.5 69.9961 8.5zM285.982 1q35.998 0 71.4961 12.499
q35.4971 12.499 64.9961 36.498q29.498 23.998 50.9961 59.4961q21.499 35.498 30.498 81.4951h-431.973q4.99902 -42.9971 22.498 -77.9951t45.4971 -59.9961q27.999 -24.999 64.9961 -38.498q36.998 -13.499 80.9951 -13.499z" />
    <glyph glyph-name="uni04E3" unicode="&#x4e3;" horiz-adv-x="613" 
d="M120 478q0 14 -32 16l-50 2v6h176v-6l-50 -2q-32 -2 -32 -16v-412l349 389v23q0 14 -32 16l-50 2v6h176v-6l-50 -2q-32 -2 -32 -16v-454q0 -14 32 -16l50 -2v-6h-176v6l50 2q32 2 32 16v416l-349 -389v-27q0 -14 32 -16l50 -2v-6h-176v6l50 2q32 2 32 16v454zM175 676
h274v-9h-274v9z" />
    <glyph glyph-name="uni04E9" unicode="&#x4e9;" horiz-adv-x="614" 
d="M307 -10q-47 0 -92 17.5t-80.5 50.5t-57.5 81.5t-22 111.5t22 111.5t57.5 81.5t80.5 50.5t92 17.5q46 0 91.5 -17.5t81 -50.5t57.5 -81.5t22 -111.5t-22 -111.5t-57.5 -81.5t-81 -50.5t-91.5 -17.5zM307 0q42 0 84.5 16t76.5 47.5t55 78.5t21 109v4h-474v-4
q0 -62 21 -109t55 -78.5t76.5 -47.5t84.5 -16zM307 502q-41 0 -82.5 -15t-75 -44.5t-55.5 -74t-24 -103.5h474q-3 59 -24.5 103.5t-55 74t-75 44.5t-82.5 15z" />
    <glyph glyph-name="uni04EF" unicode="&#x4ef;" horiz-adv-x="572" 
d="M162 -250q-9 0 -9 9t9 24t26 31l88 196l-195 468q-3 8 -9.5 11.5t-22.5 4.5l-50 2v6h177v-6l-50 -2q-38 -1 -32 -16l189 -452l201 452q6 15 -32 16l-50 2v6h176v-6l-50 -2q-16 -1 -22.5 -4.5t-9.5 -11.5l-304 -683q-12 -28 -18 -36.5t-12 -8.5zM157 676h274v-9h-274v9z
" />
    <glyph glyph-name="uni0414.aalt" horiz-adv-x="774" 
d="M76 11l307 762h11l307 -762h55l8 -167h-7l-13 144q-1 12 -16 12h-682q-15 0 -16 -12l-13 -144h-7l8 167h58zM89 11h598l-299 741z" />
    <glyph glyph-name="uni041B.aalt" horiz-adv-x="777" 
d="M695.957 23.998q3 -7.99902 9.5 -11.499t22.498 -4.49902l59.9971 -2v-6h-197.988v6l59.9961 2q37.998 0.999023 31.998 15.998l-293.981 727.956l-293.982 -727.956q-6 -14.999 31.998 -15.998l59.9961 -2v-6h-196.987v6l59.9961 2q15.999 0.999023 22.499 4.49902
q6.49902 3.5 9.49902 11.499l301.981 748.955h10.999z" />
    <glyph glyph-name="uni0432.aalt" horiz-adv-x="524" 
d="M276 -10q-90 0 -143 53.5t-53 172.5v349q0 98 45.5 150.5t132.5 52.5q85 0 129 -50t44 -130q0 -33 -9.5 -65t-29.5 -58t-50.5 -45t-73.5 -27q40 -5 77 -19.5t65.5 -39t46 -61t17.5 -84.5q0 -101 -54.5 -150t-143.5 -49zM92 397h122q63 0 102.5 19t61.5 48t30 62t8 62
q0 81 -41 125.5t-117 44.5q-86 0 -126 -51.5t-40 -145.5v-164zM276 0q87 0 135 46t48 143q0 43 -16 79.5t-47 62.5t-77 41t-105 15h-122v-170q0 -116 49 -166.5t135 -50.5z" />
    <glyph glyph-name="uni0433.aalt" horiz-adv-x="472" 
d="M237 -10q-81 0 -130 33t-49 90q0 32 11.5 54t31.5 38t48.5 28t62.5 23l48 16q65 22 90.5 51t25.5 76q0 43 -31.5 73t-108.5 30q-17 0 -39.5 -2t-43.5 -9q-19 -6 -33 -16t-18 -25l-25 -109h-7l20 127q29 24 66.5 34t79.5 10t71.5 -9t48 -25t27 -36.5t8.5 -42.5
q0 -55 -30 -86t-99 -54l-45 -15q-29 -9 -55 -19t-45.5 -24t-31.5 -35t-12 -53q0 -54 46.5 -83.5t118.5 -29.5q23 0 46 3t43 8q24 8 40.5 18.5t18.5 24.5l18 119h7l-12 -137q-29 -23 -71 -34.5t-91 -11.5z" />
    <glyph glyph-name="uni0434.aalt" horiz-adv-x="598" 
d="M304 -10q-57 0 -103 20t-78.5 55.5t-50 83t-17.5 102.5t17.5 102.5t50 82.5t78.5 55.5t103 20.5q54 0 103 -24.5t75 -66.5l5 81h7v-551q0 -47 -10.5 -85t-33.5 -66t-59.5 -43t-88.5 -15q-56 0 -94 14t-61.5 33.5t-34 39t-10.5 31.5q0 11 11 11h4q13 -55 58 -87t128 -32
q49 0 83.5 14.5t55.5 41t30.5 63t9.5 80.5v129q-26 -42 -75.5 -66t-102.5 -24zM70 251q0 -52 16.5 -97.5t46.5 -79.5t73.5 -54t97.5 -20q43 0 91.5 18.5t86.5 66.5v332q-38 48 -86.5 66.5t-91.5 18.5q-54 0 -97.5 -20t-73.5 -54t-46.5 -79.5t-16.5 -97.5z" />
    <glyph glyph-name="uni0436.aalt" horiz-adv-x="762" 
d="M15 0l346 268l-271 212q-11 8 -19 10.5t-22 3.5l-44 2v6h159v-6l-32 -1q-26 -1 -28 -5.5t6 -10.5l265 -208v472l-82 9v6h94v-487l265 208q8 6 6 10.5t-28 5.5l-32 1v6h159v-6l-44 -2q-14 -1 -23 -3.5t-20 -10.5l-269 -211l348 -269h-18l-344 266v-242q0 -14 32 -16l50 -2
v-6h-176v6l50 2q32 2 32 16v242l-344 -266h-16z" />
    <glyph glyph-name="uni0437.aalt" horiz-adv-x="479" 
d="M246 -258q-57 0 -95.5 18t-61.5 43.5t-33 51.5t-10 43q0 11 10 11h4q8 -44 25.5 -73.5t41.5 -48.5t54.5 -27t64.5 -8q45 0 80 14.5t59 40t36.5 61.5t12.5 79q0 36 -12.5 71.5t-39 63.5t-68 45.5t-100.5 17.5h-57v10h57q57 0 93 18t56 45t27 59t7 60q0 46 -14 78t-36.5 51
t-51 27.5t-57.5 8.5q-17 0 -39 -2.5t-42 -9.5q-19 -6 -33 -14.5t-18 -25.5l-25 -109h-7l20 127q29 24 69.5 34t74.5 10q32 0 63 -9t56 -29.5t40 -54t15 -82.5q0 -30 -8.5 -61t-27.5 -57.5t-49.5 -45t-73.5 -22.5v-1q43 -2 79.5 -19t62 -44.5t40 -63.5t14.5 -76
q0 -45 -13.5 -82.5t-39.5 -64.5t-63.5 -42.5t-86.5 -15.5z" />
    <glyph glyph-name="uni0438.aalt" horiz-adv-x="597" 
d="M283 -10q-94 0 -133.5 53.5t-39.5 164.5v279l-82 9v6h94v-292q0 -109 39 -159.5t126 -50.5q39 0 72.5 14t58.5 40.5t39 65.5t14 90v277l-82 9v6h94v-492h82v-6l-94 -9v161q-8 -46 -26 -77.5t-43.5 -51t-56 -28.5t-62.5 -9z" />
    <glyph glyph-name="uni0439.aalt" horiz-adv-x="597" 
d="M283 -10q-94 0 -133.5 53.5t-39.5 164.5v279l-82 9v6h94v-292q0 -109 39 -159.5t126 -50.5q39 0 72.5 14t58.5 40.5t39 65.5t14 90v277l-82 9v6h94v-492h82v-6l-94 -9v161q-8 -46 -26 -77.5t-43.5 -51t-56 -28.5t-62.5 -9zM286 594q-40 0 -69 11t-47.5 31t-27.5 47.5
t-9 60.5h13q0 -41 13.5 -68t34 -43t45 -22.5t47.5 -6.5q24 0 48.5 6.5t45 22.5t33.5 43t13 68h13q0 -74 -42 -112t-111 -38z" />
    <glyph glyph-name="uni043A.aalt" horiz-adv-x="523" 
d="M33 6l50 2q32 2 32 16v719l-82 9v6h94v-477l265 198q8 6 6 10.5t-28 5.5l-32 1v6h159v-6l-44 -2q-14 -1 -23 -3.5t-20 -10.5l-269 -201l370 -279h-20l-364 276v-252q0 -14 32 -16l50 -2v-6h-176v6z" />
    <glyph glyph-name="uni043B.aalt" horiz-adv-x="559" 
d="M486.971 23.998q2.99902 -7.99902 9.49902 -11.499t22.499 -4.49902l49.9961 -2v-6h-176.988v6l49.9961 2q37.998 0.999023 31.998 15.998l-194.987 466.972l-194.988 -466.972q-6 -14.999 31.998 -15.998l49.9971 -2v-6h-175.989v6l49.9971 2
q15.998 0.999023 22.498 4.49902t9.5 11.499l203.987 487.971h6.99902z" />
    <glyph glyph-name="uni043D.aalt" horiz-adv-x="597" 
d="M38 496v6h94v-237h339v222l-82 9v6h94v-478q0 -14 32 -16l50 -2v-6h-176v6l50 2q32 2 32 16v231h-339v-231q0 -14 32 -16l50 -2v-6h-176v6l50 2q32 2 32 16v463z" />
    <glyph glyph-name="uni043F.aalt" horiz-adv-x="604" 
d="M38 6l50 2q32 2 32 16v463l-82 9v6h94v-156q7 46 25.5 77.5t44 51t56 28.5t62.5 9q94 0 133.5 -53.5t39.5 -164.5v-270q0 -14 32 -16l50 -2v-6h-176v6l50 2q32 2 32 16v268q0 109 -39 159.5t-126 50.5q-39 0 -72.5 -14t-58.5 -40.5t-39 -65.5t-14 -90v-268q0 -14 32 -16
l50 -2v-6h-176v6z" />
    <glyph glyph-name="uni0442.aalt" horiz-adv-x="965" 
d="M214 0h-176v6l50 2q32 2 32 16v463l-82 9v6h94v-156q7 46 25.5 77.5t44 51t56 28.5t62.5 9q84 0 124 -43t47 -130q7 49 26 82t44.5 53t56.5 29t63 9q94 0 133.5 -53.5t39.5 -164.5v-270q0 -14 32 -16l50 -2v-6h-176v6l50 2q32 2 32 16v268q0 109 -39 159.5t-126 50.5
q-39 0 -72.5 -14t-58.5 -40.5t-39 -65.5t-14 -90v-268q0 -14 32 -16l50 -2v-6h-176v6l50 2q32 2 32 16v268q0 109 -39 159.5t-126 50.5q-39 0 -72.5 -14t-58.5 -40.5t-39 -65.5t-14 -90v-268q0 -14 32 -16l50 -2v-6z" />
    <glyph glyph-name="uni0447.aalt" horiz-adv-x="564" 
d="M119 394q0 -52 10.5 -85t30.5 -52.5t50.5 -27t71.5 -7.5q55 0 97 11.5t59 17.5v236l-82 9v6h94v-478q0 -14 32 -16l50 -2v-6h-186v6l60 2q32 2 32 16v218q-17 -7 -59 -18.5t-97 -11.5q-44 0 -76.5 8t-54.5 29t-33 56t-11 89v93l-82 9v6h94v-108z" />
    <glyph glyph-name="uni0446.aalt" horiz-adv-x="603" 
d="M471 0v156q-8 -46 -26 -77.5t-43.5 -51t-56 -28.5t-62.5 -9q-94 0 -133.5 53.5t-39.5 164.5v279l-82 9v6h94v-292q0 -109 39 -159.5t126 -50.5q39 0 72.5 14t58.5 40.5t39 65.5t14 90v277l-82 9v6h94v-492h80l8 -147h-7l-13 124q-1 8 -6.5 10.5t-14.5 2.5h-59z" />
    <glyph glyph-name="uni0448.aalt" horiz-adv-x="958" 
d="M389 496v6h94v-292q0 -109 39 -159.5t126 -50.5q39 0 72.5 14t58.5 40.5t39 65.5t14 90v277l-82 9v6h94v-492h82v-6l-94 -9v161q-8 -46 -26 -77.5t-43.5 -51t-56 -28.5t-62.5 -9q-82 0 -122.5 40.5t-48.5 123.5q-8 -45 -26.5 -76.5t-44.5 -51t-56.5 -28t-62.5 -8.5
q-94 0 -133 53.5t-40 164.5v279l-82 9v6h94v-292q0 -109 39 -159.5t126 -50.5q39 0 72.5 14t58.5 40.5t39 65.5t14 90v277z" />
    <glyph glyph-name="uni0449.aalt" horiz-adv-x="964" 
d="M832 156q-8 -46 -26 -77.5t-43.5 -51t-56 -28.5t-62.5 -9q-82 0 -122.5 40.5t-48.5 123.5q-8 -45 -26.5 -76.5t-44.5 -51t-56.5 -28t-62.5 -8.5q-94 0 -133 53.5t-40 164.5v279l-82 9v6h94v-292q0 -109 39 -159.5t126 -50.5q39 0 72.5 14t58.5 40.5t39 65.5t14 90v277
l-82 9v6h94v-292q0 -109 39 -159.5t126 -50.5q39 0 72.5 14t58.5 40.5t39 65.5t14 90v277l-82 9v6h94v-492h80l8 -147h-7l-13 124q-1 8 -6.5 10.5t-14.5 2.5h-59v156z" />
    <glyph glyph-name="uni044E.aalt" horiz-adv-x="804" 
d="M37 6l50 2q32 2 32 16v719l-82 9v6h94v-493h134q3 59 24.5 105t55.5 77.5t76 48t86 16.5q45 0 88 -17.5t77.5 -50.5t55.5 -81.5t21 -111.5t-21 -111.5t-55.5 -81.5t-77.5 -50.5t-88 -17.5t-88 17.5t-77.5 50.5t-55.5 81.5t-21 111.5v4h-134v-231q0 -14 32 -16l50 -2v-6
h-176v6zM507 0q40 0 81 16t73 47.5t52.5 78.5t20.5 109t-20.5 109t-52.5 78.5t-73 47.5t-81 16q-41 0 -81.5 -16t-72.5 -47.5t-52.5 -78.5t-20.5 -109t20.5 -109t52.5 -78.5t72.5 -47.5t81.5 -16z" />
    <glyph glyph-name="uni044C.aalt" horiz-adv-x="498" 
d="M122 305h139q101 0 154 -43.5t53 -114.5q0 -72 -46 -114.5t-129 -42.5q-99 0 -141 55.5t-42 167.5v274l-82 9v6h94v-197zM293 0q82 0 121 39.5t39 107.5q0 33 -11 60t-35 46.5t-62 30.5t-91 11h-132v-80q0 -111 41.5 -163t129.5 -52z" />
    <glyph glyph-name="uni044A.aalt" horiz-adv-x="598" 
d="M393 -10q-99 0 -141 55.5t-42 167.5v279h-124q-10 0 -15.5 -2.5t-7.5 -10.5l-31 -124h-7l28 147h169v-197h139q101 0 154 -43.5t53 -114.5q0 -72 -46 -114.5t-129 -42.5zM222 295v-80q0 -111 41.5 -163t129.5 -52q82 0 121 39.5t39 107.5q0 33 -11 60t-35 46.5t-62 30.5
t-91 11h-132z" />
    <glyph glyph-name="uni0431.aalt" horiz-adv-x="614" 
d="M307 502q51 -3 96.5 -20.5t80 -49.5t55 -78.5t20.5 -107.5q0 -62 -22 -109.5t-57.5 -80t-81 -49.5t-91.5 -17q-47 0 -92 17t-80.5 49.5t-57.5 80t-22 109.5q0 55 19.5 100t51.5 77.5t73 51.5t84 21q-53 4 -88.5 16.5t-57 30t-30.5 39.5t-9 45q0 24 8 47.5t28.5 42
t56.5 30t92 11.5h55q49 0 81 2t50.5 7t25.5 12.5t7 19.5h6q0 -14 -7.5 -24t-27 -16t-52.5 -9t-83 -3h-55q-50 0 -83.5 -9.5t-54 -26t-29 -38.5t-8.5 -46q0 -20 8.5 -40.5t30.5 -38t61 -30t99 -16.5zM307 492q-42 0 -84.5 -15.5t-76.5 -46.5t-55 -77t-21 -107t21 -107t55 -77
t76.5 -46.5t84.5 -15.5t84.5 15.5t76.5 46.5t55 77t21 107t-21 107t-55 77t-76.5 46.5t-84.5 15.5z" />
    <glyph glyph-name="glyph489" 
d="M0 594q-40 0 -69 11t-47.5 31t-27.5 47.5t-9 60.5h13q0 -41 13.5 -68t34 -43t45 -22.5t47.5 -6.5q24 0 48.5 6.5t45 22.5t33.5 43t13 68h13q0 -74 -42 -112t-111 -38z" />
    <glyph glyph-name="glyph490" 
d="M0 833q-39 0 -67.5 11t-46.5 31t-27 47.5t-9 60.5h13q0 -41 13 -68t33 -43t44 -22.5t47 -6.5t47.5 6.5t44.5 22.5t32.5 43t12.5 68h13q0 -74 -41.5 -112t-108.5 -38z" />
    <glyph glyph-name="uni20BD" unicode="&#x20bd;" horiz-adv-x="686" 
d="M67 6l60 2q32 2 32 16v192h-92v11h92v139h-92v11h92v357q0 14 -32 16l-60 2v6h286q57 0 110 -7t93.5 -28t65 -59.5t24.5 -101.5t-24.5 -101.5t-65 -59.5t-93.5 -28t-110 -7h-181v-139h366v-11h-366v-192q0 -16 32 -16l110 -2v-6h-247v6zM172 377h169q59 0 112 6.5
t92.5 26.5t62.5 56.5t23 95.5t-23 95.5t-62.5 56.5t-92.5 26.5t-112 6.5h-169v-370z" />
    <glyph glyph-name="uni20B4" unicode="&#x20b4;" horiz-adv-x="615" 
d="M37 459h399q41 26 62.5 61t21.5 84q0 43 -15.5 72.5t-42 47.5t-61.5 26t-74 8q-18 0 -39.5 -1.5t-42.5 -5t-40.5 -9.5t-33.5 -15q-9 -5 -14 -10t-10 -22l-35 -110h-7l33 137q39 26 86 36t104 10q42 0 79 -9t65 -28.5t44.5 -50.5t16.5 -76q0 -48 -19 -83.5t-54 -61.5h118
v-11h-541v11zM37 309h541v-11h-441q-20 -22 -31.5 -50.5t-11.5 -65.5q0 -88 57 -135t151 -47q17 0 39.5 2t46.5 7t47 12.5t42 19.5q10 6 14.5 11t9.5 22l36 124h7l-34 -153q-44 -29 -97.5 -42t-110.5 -13q-107 0 -164.5 53t-57.5 142q0 35 10 62.5t28 50.5h-81v11z" />
    <glyph glyph-name="uni20B8" unicode="&#x20b8;" horiz-adv-x="673" 
d="M57 758h559l2 -11h-563zM238 6l60 2q32 2 32 16v573h-256q-13 0 -16 -12l-33 -154h-7l28 177h581l28 -177h-7l-33 154q-3 12 -16 12h-256v-573q0 -14 32 -16l60 -2v-6h-197v6z" />
    <glyph glyph-name="ellipsis" unicode="&#x2026;" horiz-adv-x="657" 
d="M89 -10q-8 0 -13.5 5.5t-5.5 13.5t5.5 14t13.5 6q9 0 14.5 -6t5.5 -14t-5.5 -13.5t-14.5 -5.5zM328 -10q-8 0 -13.5 5.5t-5.5 13.5t5.5 14t13.5 6q9 0 14.5 -6t5.5 -14t-5.5 -13.5t-14.5 -5.5zM567 -10q-8 0 -13.5 5.5t-5.5 13.5t5.5 14t13.5 6q9 0 14.5 -6t5.5 -14
t-5.5 -13.5t-14.5 -5.5z" />
    <glyph glyph-name="endash" unicode="&#x2013;" horiz-adv-x="574" 
d="M80 265h414v-11h-414v11z" />
    <glyph glyph-name="emdash" unicode="&#x2014;" horiz-adv-x="821" 
d="M80 265h661v-11h-661v11z" />
    <glyph glyph-name="guilsinglleft" unicode="&#x2039;" horiz-adv-x="336" 
d="M275 52l-7 -8l-216 214l216 214l7 -8l-207 -206z" />
    </font>
</defs>
</svg>
